{
.appVersion = "939";
DisplayStrings = (
"BOLDEXT\012DISPLAY\012"
);
date = "2018-02-28 19:29:49 +0000";
designer = "Sara Lavazza";
familyName = Coconat;
featurePrefixes = (
{
automatic = 1;
code = "languagesystem DFLT dflt;\012languagesystem latn dflt;\012languagesystem latn ROM;\012languagesystem latn MOL;\012languagesystem latn KAZ;\012languagesystem latn TAT;\012languagesystem latn TRK;\012languagesystem latn CRT;\012languagesystem latn AZE;\012";
name = Languagesystems;
}
);
features = (
{
automatic = 1;
code = "feature ccmp;\012feature locl;\012";
name = aalt;
},
{
automatic = 1;
code = "lookup ccmp_Other_1 {\012	@CombiningTopAccents = [acutecomb brevecomb caroncomb circumflexcomb commaturnedabovecomb dieresiscomb dotaccentcomb gravecomb hungarumlautcomb macroncomb ringcomb tildecomb];\012	@CombiningNonTopAccents = [cedillacomb ogonekcomb slashlongcomb slashshortcomb strokelongcomb strokeshortcomb];\012	sub [i]' @CombiningTopAccents by [idotless];\012	sub [i]' @CombiningNonTopAccents @CombiningTopAccents by [idotless];\012} ccmp_Other_1;\012";
name = ccmp;
},
{
automatic = 1;
code = "script latn;\012language ROM;\012sub Scedilla by Scommaaccent;\012sub scedilla by scommaaccent;\012sub Tcedilla by Tcommaaccent;\012sub tcedilla by tcommaaccent;\012language MOL;\012sub Scedilla by Scommaaccent;\012sub scedilla by scommaaccent;\012sub Tcedilla by Tcommaaccent;\012sub tcedilla by tcommaaccent;\012language KAZ;\012sub i by idotaccent;\012language TAT;\012sub i by idotaccent;\012language TRK;\012sub i by idotaccent;\012language CRT;\012sub i by idotaccent;\012language AZE;\012sub i by idotaccent;\012";
name = locl;
}
);
fontMaster = (
{
ascender = 800;
capHeight = 700;
descender = -200;
id = "0B0DCF06-F5B0-447D-A254-17124A94DF9D";
weightValue = 50;
widthValue = 50;
xHeight = 530;
},
{
ascender = 800;
capHeight = 700;
descender = -200;
id = "BA50C409-052E-472C-B8EA-E9BF3018781A";
weight = Bold;
width = Extended;
xHeight = 500;
}
);
glyphs = (
{
glyphname = A;
lastChange = "2019-05-17 07:58:11 +0000";
layers = (
{
anchors = (
{
name = bottom;
position = "{391, 0}";
},
{
name = ogonek;
position = "{704, 10}";
},
{
name = top;
position = "{324, 785}";
}
);
layerId = "0B0DCF06-F5B0-447D-A254-17124A94DF9D";
paths = (
{
closed = 1;
nodes = (
"132 0 LINE",
"124.348 50.165 OFFCURVE",
"145.613 111.174 OFFCURVE",
"152.153 128.321 CURVE",
"189.646 214 LINE",
"508.562 214 LINE",
"546.236 130.4 LINE",
"559.579 94.434 OFFCURVE",
"581.459 27.214 OFFCURVE",
"570 0 CURVE",
"746 0 LINE",
"709.325 36.675 OFFCURVE",
"673.064 102.743 OFFCURVE",
"651.868 145.197 CURVE SMOOTH",
"431.027 615.831 LINE SMOOTH",
"414.882 651.334 OFFCURVE",
"404.386 675.519 OFFCURVE",
"396 699 CURVE",
"238 700 LINE",
"238 698 LINE",
"280.05 672.611 OFFCURVE",
"307.622 644.705 OFFCURVE",
"326.21 614.281 CURVE",
"245 452 OFFCURVE",
"165 290 OFFCURVE",
"83.767 127.923 CURVE SMOOTH",
"65.274 93.756 OFFCURVE",
"36 42 OFFCURVE",
"10 0 CURVE"
);
},
{
closed = 1;
nodes = (
"346.762 573.042 LINE",
"357 551 OFFCURVE",
"367 528 OFFCURVE",
"377 506 CURVE",
"489.635 256 LINE",
"208.025 256 LINE"
);
}
);
width = 782;
},
{
associatedMasterId = "0B0DCF06-F5B0-447D-A254-17124A94DF9D";
layerId = "DB8940C6-123B-4049-82DF-36C2934A52DC";
width = 600;
},
{
layerId = "BA50C409-052E-472C-B8EA-E9BF3018781A";
paths = (
{
closed = 1;
nodes = (
"203 0 LINE",
"189.955 30.981 OFFCURVE",
"200.175 64.622 OFFCURVE",
"220.112 101.463 CURVE",
"286.69 212 LINE",
"711.589 212 LINE",
"767.998 118.872 LINE",
"788.113 78.328 OFFCURVE",
"809.655 22.868 OFFCURVE",
"791 0 CURVE",
"1153 0 LINE",
"1112.473 24.445 OFFCURVE",
"1031 137 OFFCURVE",
"980 216 CURVE SMOOTH",
"931 292 LINE",
"842 428 OFFCURVE",
"752 564 OFFCURVE",
"663 700 CURVE",
"305 700 LINE",
"305 695 LINE",
"356.369 683.037 OFFCURVE",
"404.643 648.297 OFFCURVE",
"445.641 608.288 CURVE",
"363 476 OFFCURVE",
"281 344 OFFCURVE",
"198.007 212.553 CURVE SMOOTH",
"151.627 142.279 OFFCURVE",
"87 52 OFFCURVE",
"30 0 CURVE"
);
},
{
closed = 1;
nodes = (
"494 556 LINE",
"517 528 OFFCURVE",
"536 500 OFFCURVE",
"549.43 479.715 CURVE SMOOTH",
"684 258 LINE",
"314.396 258 LINE"
);
}
);
width = 1163;
},
{
associatedMasterId = "0B0DCF06-F5B0-447D-A254-17124A94DF9D";
layerId = "17D7A309-5218-4CB8-9006-79F38944D49A";
name = "Mar 16 18, 12:37";
paths = (
{
closed = 1;
nodes = (
"745 0 LINE",
"406 699 LINE",
"303 699 LINE",
"639 0 LINE"
);
},
{
closed = 1;
nodes = (
"150 0 LINE",
"439 594 LINE",
"376 660 LINE",
"54 0 LINE"
);
},
{
closed = 1;
nodes = (
"578 199 LINE",
"578 269 LINE",
"202 269 LINE",
"202 199 LINE"
);
},
{
closed = 1;
nodes = (
"745 0 LINE",
"639 0 LINE"
);
},
{
closed = 1;
nodes = (
"327 656 OFFCURVE",
"336 631 OFFCURVE",
"354 590 CURVE",
"457 594 LINE",
"435 638 OFFCURVE",
"420 671 OFFCURVE",
"410 699 CURVE",
"278 700 LINE"
);
},
{
closed = 1;
nodes = (
"576 132 OFFCURVE",
"620 38 OFFCURVE",
"604 0 CURVE",
"766 0 LINE",
"731 31 OFFCURVE",
"681 132 OFFCURVE",
"681 132 CURVE",
"576 132 LINE"
);
},
{
closed = 1;
nodes = (
"119 132 LINE",
"119 132 OFFCURVE",
"69 31 OFFCURVE",
"34 0 CURVE",
"186 0 LINE",
"170 38 OFFCURVE",
"214 132 OFFCURVE",
"214 132 CURVE"
);
}
);
width = 759;
},
{
associatedMasterId = "0B0DCF06-F5B0-447D-A254-17124A94DF9D";
layerId = "75DF6FE5-B74A-4F9D-A6BE-7FA2989153E9";
name = "Apr 1 18, 14:06";
paths = (
{
closed = 1;
nodes = (
"722 0 LINE",
"383 699 LINE",
"273 699 LINE",
"597 0 LINE"
);
},
{
closed = 1;
nodes = (
"88 0 LINE",
"364 633 LINE",
"334 660 LINE",
"12 0 LINE"
);
},
{
closed = 1;
nodes = (
"536 214 LINE",
"536 256 LINE",
"160 256 LINE",
"160 214 LINE"
);
},
{
closed = 1;
nodes = (
"281 667 OFFCURVE",
"294 631 OFFCURVE",
"312 590 CURVE",
"434 594 LINE",
"412 638 OFFCURVE",
"397 671 OFFCURVE",
"387 699 CURVE",
"226 700 LINE"
);
},
{
closed = 1;
nodes = (
"525 154 OFFCURVE",
"578 38 OFFCURVE",
"562 0 CURVE",
"748 0 LINE",
"691 57 OFFCURVE",
"632 185 OFFCURVE",
"632 185 CURVE",
"525 154 LINE"
);
},
{
closed = 1;
nodes = (
"92 164 LINE",
"92 164 OFFCURVE",
"45 68 OFFCURVE",
"2 0 CURVE",
"124 0 LINE",
"115 59 OFFCURVE",
"146 132 OFFCURVE",
"146 132 CURVE"
);
}
);
width = 774;
},
{
associatedMasterId = "BA50C409-052E-472C-B8EA-E9BF3018781A";
layerId = "B0B0D972-0897-4B44-B288-E6C0647DA79A";
name = "Oct 21 18, 17:38";
paths = (
{
closed = 1;
nodes = (
"1122 0 LINE",
"663 700 LINE",
"416 700 LINE",
"840 0 LINE"
);
},
{
closed = 1;
nodes = (
"159 0 LINE",
"513 606 LINE",
"467 660 LINE",
"65 0 LINE"
);
},
{
closed = 1;
nodes = (
"849 212 LINE",
"849 258 LINE",
"251 258 LINE",
"251 212 LINE"
);
},
{
closed = 1;
nodes = (
"305 695 LINE",
"451 661 OFFCURVE",
"572 443 OFFCURVE",
"572 443 CURVE",
"735 538 LINE",
"705 587 OFFCURVE",
"662 672 OFFCURVE",
"656 700 CURVE",
"305 700 LINE"
);
},
{
closed = 1;
nodes = (
"742 166 OFFCURVE",
"822 38 OFFCURVE",
"791 0 CURVE",
"1153 0 LINE",
"1090 38 OFFCURVE",
"931 292 OFFCURVE",
"931 292 CURVE",
"742 166 LINE"
);
},
{
closed = 1;
nodes = (
"255 313 LINE",
"255 313 OFFCURVE",
"133 94 OFFCURVE",
"30 0 CURVE",
"203 0 LINE",
"187 38 OFFCURVE",
"204 80 OFFCURVE",
"233 127 CURVE"
);
}
);
width = 1203;
},
{
associatedMasterId = "BA50C409-052E-472C-B8EA-E9BF3018781A";
layerId = "EEB86DC2-6EB0-4444-8D86-949CB4C733E9";
name = "Oct 21 18, 22:43";
paths = (
{
closed = 1;
nodes = (
"1122 0 LINE",
"649 700 LINE",
"402 700 LINE",
"840 0 LINE"
);
},
{
closed = 1;
nodes = (
"159 0 LINE",
"513 606 LINE",
"467 660 LINE",
"65 0 LINE"
);
},
{
closed = 1;
nodes = (
"849 212 LINE",
"849 258 LINE",
"231 258 LINE",
"231 212 LINE"
);
},
{
closed = 1;
nodes = (
"300 684 LINE",
"442 644 OFFCURVE",
"563 443 OFFCURVE",
"563 443 CURVE",
"760 538 LINE",
"727 592 OFFCURVE",
"687 640 OFFCURVE",
"654 700 CURVE",
"300 700 LINE"
);
},
{
closed = 1;
nodes = (
"254 310 LINE",
"254 310 OFFCURVE",
"135 94 OFFCURVE",
"50 0 CURVE",
"183 0 LINE",
"187 38 OFFCURVE",
"209 77 OFFCURVE",
"231 124 CURVE"
);
},
{
closed = 1;
nodes = (
"1149 0 LINE",
"1068 74 OFFCURVE",
"926 292 OFFCURVE",
"926 292 CURVE",
"739 166 LINE",
"728 166 OFFCURVE",
"806 40 OFFCURVE",
"804 0 CURVE"
);
}
);
width = 1203;
},
{
associatedMasterId = "BA50C409-052E-472C-B8EA-E9BF3018781A";
layerId = "1CBA3995-2176-420D-85E6-956522B2018D";
name = "Nov 23 18, 10:35";
paths = (
{
closed = 1;
nodes = (
"1122 0 LINE",
"663 700 LINE",
"416 700 LINE",
"840 0 LINE"
);
},
{
closed = 1;
nodes = (
"159 0 LINE",
"524 606 LINE",
"478 660 LINE",
"65 0 LINE"
);
},
{
closed = 1;
nodes = (
"849 212 LINE",
"849 258 LINE",
"251 258 LINE",
"251 212 LINE"
);
},
{
closed = 1;
nodes = (
"305 695 LINE",
"451 661 OFFCURVE",
"572 443 OFFCURVE",
"572 443 CURVE",
"735 538 LINE",
"705 587 OFFCURVE",
"662 672 OFFCURVE",
"656 700 CURVE",
"305 700 LINE"
);
},
{
closed = 1;
nodes = (
"742 166 OFFCURVE",
"822 38 OFFCURVE",
"791 0 CURVE",
"1153 0 LINE",
"1090 38 OFFCURVE",
"931 292 OFFCURVE",
"931 292 CURVE",
"742 166 LINE"
);
},
{
closed = 1;
nodes = (
"261 313 LINE",
"261 313 OFFCURVE",
"133 94 OFFCURVE",
"30 0 CURVE",
"203 0 LINE",
"187 38 OFFCURVE",
"206 80 OFFCURVE",
"235 127 CURVE"
);
}
);
width = 1203;
}
);
unicode = 0041;
},
{
glyphname = Aring;
lastChange = "2019-03-22 14:45:54 +0000";
layers = (
{
layerId = "0B0DCF06-F5B0-447D-A254-17124A94DF9D";
paths = (
{
closed = 1;
nodes = (
"374 753 OFFCURVE",
"418 789 OFFCURVE",
"418 834 CURVE SMOOTH",
"418 888 OFFCURVE",
"383 915 OFFCURVE",
"338 915 CURVE SMOOTH",
"301 915 OFFCURVE",
"257 879 OFFCURVE",
"257 834 CURVE SMOOTH",
"257 780 OFFCURVE",
"292 753 OFFCURVE",
"338 753 CURVE SMOOTH"
);
},
{
closed = 1;
nodes = (
"312 779 OFFCURVE",
"286 805 OFFCURVE",
"286 842 CURVE SMOOTH",
"286 870 OFFCURVE",
"298 890 OFFCURVE",
"328 890 CURVE SMOOTH",
"363 890 OFFCURVE",
"389 863 OFFCURVE",
"389 827 CURVE SMOOTH",
"389 798 OFFCURVE",
"377 779 OFFCURVE",
"348 779 CURVE SMOOTH"
);
},
{
closed = 1;
nodes = (
"720 0 LINE",
"392 699 LINE",
"290 699 LINE",
"605 0 LINE"
);
},
{
closed = 1;
nodes = (
"96 0 LINE",
"373 633 LINE",
"349 660 LINE",
"20 0 LINE"
);
},
{
closed = 1;
nodes = (
"544 214 LINE",
"544 256 LINE",
"168 256 LINE",
"168 214 LINE"
);
},
{
closed = 1;
nodes = (
"238 698 LINE",
"291 666 OFFCURVE",
"321 630 OFFCURVE",
"339 590 CURVE",
"441 594 LINE",
"419 642 OFFCURVE",
"406 671 OFFCURVE",
"396 699 CURVE",
"238 700 LINE"
);
},
{
closed = 1;
nodes = (
"537 154 OFFCURVE",
"586 38 OFFCURVE",
"570 0 CURVE",
"746 0 LINE",
"689 57 OFFCURVE",
"633 185 OFFCURVE",
"633 185 CURVE",
"537 154 LINE"
);
},
{
closed = 1;
nodes = (
"103 164 LINE",
"103 164 OFFCURVE",
"53 68 OFFCURVE",
"10 0 CURVE",
"132 0 LINE",
"123 59 OFFCURVE",
"154 133 OFFCURVE",
"154 133 CURVE"
);
}
);
width = 782;
},
{
layerId = "BA50C409-052E-472C-B8EA-E9BF3018781A";
paths = (
{
closed = 1;
nodes = (
"203 0 LINE",
"189.955 30.981 OFFCURVE",
"200.175 64.622 OFFCURVE",
"220.112 101.463 CURVE",
"286.69 212 LINE",
"711.589 212 LINE",
"767.998 118.872 LINE",
"788.113 78.328 OFFCURVE",
"809.655 22.868 OFFCURVE",
"791 0 CURVE",
"1153 0 LINE",
"1112.473 24.445 OFFCURVE",
"1032.218 138.277 OFFCURVE",
"980.12 216.375 CURVE SMOOTH",
"947.333 266.377 LINE",
"931 292 LINE",
"663 700 LINE",
"305 700 LINE",
"305 695 LINE",
"356.369 683.037 OFFCURVE",
"404.643 648.297 OFFCURVE",
"445.641 608.288 CURVE",
"198.007 212.553 LINE SMOOTH",
"151.627 142.279 OFFCURVE",
"86.987 52.007 OFFCURVE",
"30 0 CURVE"
);
},
{
closed = 1;
nodes = (
"493.704 555.7 LINE",
"516.939 527.5 OFFCURVE",
"535.958 500.317 OFFCURVE",
"549.43 479.715 CURVE SMOOTH",
"683.726 258 LINE",
"314.396 258 LINE"
);
},
{
closed = 1;
nodes = (
"382 833 OFFCURVE",
"448 797 OFFCURVE",
"530 797 CURVE SMOOTH",
"612 797 OFFCURVE",
"678 833 OFFCURVE",
"678 884 CURVE SMOOTH",
"678 935 OFFCURVE",
"615 974 OFFCURVE",
"530 974 CURVE SMOOTH",
"447 974 OFFCURVE",
"382 935 OFFCURVE",
"382 884 CURVE SMOOTH"
);
},
{
closed = 1;
nodes = (
"452 932 OFFCURVE",
"481 954 OFFCURVE",
"517 954 CURVE SMOOTH",
"576 954 OFFCURVE",
"608 911 OFFCURVE",
"608 877 CURVE SMOOTH",
"608 839 OFFCURVE",
"579 817 OFFCURVE",
"543 817 CURVE SMOOTH",
"484 817 OFFCURVE",
"452 860 OFFCURVE",
"452 894 CURVE SMOOTH"
);
}
);
width = 1203;
},
{
associatedMasterId = "BA50C409-052E-472C-B8EA-E9BF3018781A";
layerId = "86A0FAA7-C1E5-4330-AB87-BBE20ABD2338";
name = "Nov 23 18, 10:34";
paths = (
{
closed = 1;
nodes = (
"1122 0 LINE",
"663 700 LINE",
"416 700 LINE",
"840 0 LINE"
);
},
{
closed = 1;
nodes = (
"159 0 LINE",
"524 606 LINE",
"478 660 LINE",
"65 0 LINE"
);
},
{
closed = 1;
nodes = (
"849 212 LINE",
"849 258 LINE",
"251 258 LINE",
"251 212 LINE"
);
},
{
closed = 1;
nodes = (
"305 695 LINE",
"451 661 OFFCURVE",
"572 443 OFFCURVE",
"572 443 CURVE",
"735 538 LINE",
"705 587 OFFCURVE",
"662 672 OFFCURVE",
"656 700 CURVE",
"305 700 LINE"
);
},
{
closed = 1;
nodes = (
"742 166 OFFCURVE",
"822 38 OFFCURVE",
"791 0 CURVE",
"1153 0 LINE",
"1090 38 OFFCURVE",
"931 292 OFFCURVE",
"931 292 CURVE",
"742 166 LINE"
);
},
{
closed = 1;
nodes = (
"261 313 LINE",
"261 313 OFFCURVE",
"133 94 OFFCURVE",
"30 0 CURVE",
"203 0 LINE",
"187 38 OFFCURVE",
"206 80 OFFCURVE",
"235 127 CURVE"
);
},
{
closed = 1;
nodes = (
"382 833 OFFCURVE",
"448 797 OFFCURVE",
"530 797 CURVE SMOOTH",
"612 797 OFFCURVE",
"678 833 OFFCURVE",
"678 884 CURVE SMOOTH",
"678 935 OFFCURVE",
"615 974 OFFCURVE",
"530 974 CURVE SMOOTH",
"447 974 OFFCURVE",
"382 935 OFFCURVE",
"382 884 CURVE SMOOTH"
);
},
{
closed = 1;
nodes = (
"452 932 OFFCURVE",
"481 954 OFFCURVE",
"517 954 CURVE SMOOTH",
"576 954 OFFCURVE",
"608 911 OFFCURVE",
"608 877 CURVE SMOOTH",
"608 839 OFFCURVE",
"579 817 OFFCURVE",
"543 817 CURVE SMOOTH",
"484 817 OFFCURVE",
"452 860 OFFCURVE",
"452 894 CURVE SMOOTH"
);
}
);
width = 1203;
}
);
unicode = 00C5;
},
{
glyphname = AE;
lastChange = "2019-04-07 17:45:40 +0000";
layers = (
{
layerId = "0B0DCF06-F5B0-447D-A254-17124A94DF9D";
paths = (
{
closed = 1;
nodes = (
"132 0 LINE",
"132 39.337 OFFCURVE",
"168.053 95.27 OFFCURVE",
"185.612 120.178 CURVE SMOOTH",
"255.57 214 LINE",
"530.623 214 LINE",
"530 169 LINE SMOOTH",
"530 38 OFFCURVE",
"504 0 OFFCURVE",
"504 0 CURVE",
"1076 -3 LINE",
"1100 134 LINE",
"1093 138 LINE",
"1029.061 34.987 OFFCURVE",
"793.993 40.804 OFFCURVE",
"637.109 43.397 CURVE",
"631.297 69.69 OFFCURVE",
"626 109.872 OFFCURVE",
"626 169 CURVE",
"625.114 329 LINE",
"1021 329 LINE",
"1021 371 LINE",
"624.881 371 LINE",
"624 530 LINE",
"624 590.613 OFFCURVE",
"629.482 631.406 OFFCURVE",
"635.412 657.8 CURVE",
"768.07 660.418 OFFCURVE",
"1000.65 663.453 OFFCURVE",
"1063 563 CURVE",
"1070 567 LINE",
"1046 704 LINE",
"509 700 LINE",
"453 700 LINE",
"453 698 LINE",
"489.59 681.31 OFFCURVE",
"510.521 657.615 OFFCURVE",
"522.142 632.469 CURVE",
"132.74 142.001 LINE SMOOTH",
"105.741 109.645 OFFCURVE",
"53.656 47.881 OFFCURVE",
"10 0 CURVE"
);
},
{
closed = 1;
nodes = (
"533.277 586.432 LINE",
"534.358 569.881 OFFCURVE",
"535 551.147 OFFCURVE",
"535 530 CURVE SMOOTH",
"531.205 256 LINE",
"286.888 256 LINE"
);
}
);
width = 1155;
},
{
layerId = "BA50C409-052E-472C-B8EA-E9BF3018781A";
paths = (
{
closed = 1;
nodes = (
"213 2 LINE",
"197 40 OFFCURVE",
"270 107 OFFCURVE",
"328 168 CURVE SMOOTH",
"372 214 LINE",
"747 214 LINE",
"747 169 LINE SMOOTH",
"746 32 OFFCURVE",
"723 0 OFFCURVE",
"723 0 CURVE",
"1641 -4 LINE",
"1685 253 LINE",
"1648 257 LINE",
"1507 22 OFFCURVE",
"1380 44 OFFCURVE",
"980 46 CURVE",
"975 72 OFFCURVE",
"970 111 OFFCURVE",
"970 169 CURVE SMOOTH",
"970 347 LINE",
"1565 347 LINE",
"1565 393 LINE",
"970 393 LINE",
"970 530 LINE SMOOTH",
"970 589 OFFCURVE",
"975 628 OFFCURVE",
"980 654 CURVE",
"1345 656 OFFCURVE",
"1474 661 OFFCURVE",
"1608 442 CURVE",
"1645 446 LINE",
"1601 700 LINE",
"723 700 LINE SMOOTH",
"723 700 OFFCURVE",
"730 692 OFFCURVE",
"736 669 CURVE",
"379 309 LINE",
"379 309 OFFCURVE",
"167 96 OFFCURVE",
"50 2 CURVE"
);
},
{
closed = 1;
nodes = (
"747 606 LINE",
"749 585 OFFCURVE",
"750 561 OFFCURVE",
"750 531 CURVE SMOOTH",
"748 260 LINE",
"416 260 LINE"
);
}
);
width = 1785;
}
);
unicode = 00C6;
},
{
glyphname = B;
lastChange = "2019-04-07 17:45:49 +0000";
layers = (
{
layerId = "0B0DCF06-F5B0-447D-A254-17124A94DF9D";
paths = (
{
closed = 1;
nodes = (
"188 0 LINE SMOOTH",
"268 -1 OFFCURVE",
"315 -1 OFFCURVE",
"339 0 CURVE",
"572 0 OFFCURVE",
"691 83 OFFCURVE",
"691 202 CURVE SMOOTH",
"691.873 282.286 OFFCURVE",
"632.582 353.433 OFFCURVE",
"451.986 370.914 CURVE",
"533.438 388.23 OFFCURVE",
"617 432.751 OFFCURVE",
"617 538 CURVE SMOOTH",
"617 630 OFFCURVE",
"515 700 OFFCURVE",
"298 700 CURVE SMOOTH",
"188 700 LINE",
"85 700 LINE SMOOTH",
"85 700 OFFCURVE",
"111 662 OFFCURVE",
"111 530 CURVE SMOOTH",
"106 169 LINE SMOOTH",
"106 38 OFFCURVE",
"80 0 OFFCURVE",
"80 0 CURVE"
);
},
{
closed = 1;
nodes = (
"200 586.618 OFFCURVE",
"204.783 625.942 OFFCURVE",
"210.247 652.391 CURVE",
"242.382 660.13 OFFCURVE",
"281.271 664 OFFCURVE",
"315 664 CURVE SMOOTH",
"395 664 OFFCURVE",
"521 627 OFFCURVE",
"521 513 CURVE SMOOTH",
"521 434 OFFCURVE",
"443 378 OFFCURVE",
"345 378 CURVE SMOOTH",
"302.883 378.916 OFFCURVE",
"247.353 386.538 OFFCURVE",
"200.669 409.309 CURVE",
"200 530 LINE"
);
},
{
closed = 1;
nodes = (
"362.779 357.645 OFFCURVE",
"578 330.82 OFFCURVE",
"578 176 CURVE SMOOTH",
"578 76 OFFCURVE",
"479 44 OFFCURVE",
"343 44 CURVE SMOOTH",
"313.118 44 OFFCURVE",
"244.278 52.039 OFFCURVE",
"208.449 74.925 CURVE",
"204.685 98.941 OFFCURVE",
"202 129.809 OFFCURVE",
"202 169 CURVE",
"200.983 352.486 LINE"
);
}
);
width = 756;
},
{
associatedMasterId = "0B0DCF06-F5B0-447D-A254-17124A94DF9D";
layerId = "DB8940C6-123B-4049-82DF-36C2934A52DC";
width = 600;
},
{
layerId = "BA50C409-052E-472C-B8EA-E9BF3018781A";
paths = (
{
closed = 1;
nodes = (
"100 700 OFFCURVE",
"130 668 OFFCURVE",
"130 531 CURVE",
"127 169 LINE",
"127 32 OFFCURVE",
"100 0 OFFCURVE",
"100 0 CURVE",
"377 0 LINE",
"377 0 OFFCURVE",
"350 32 OFFCURVE",
"350 169 CURVE",
"350 530 LINE",
"350 668 OFFCURVE",
"377 700 OFFCURVE",
"377 700 CURVE",
"100 700 LINE"
);
},
{
closed = 1;
nodes = (
"185 3 LINE",
"185 0 OFFCURVE",
"430 -2 OFFCURVE",
"604 0 CURVE",
"855 -2 OFFCURVE",
"1043 83 OFFCURVE",
"1043 202 CURVE",
"1044 289 OFFCURVE",
"954 369 OFFCURVE",
"645 370 CURVE",
"523 370 OFFCURVE",
"333 368 OFFCURVE",
"188 368 CURVE",
"188 330 LINE",
"191 350 OFFCURVE",
"808 397 OFFCURVE",
"808 176 CURVE SMOOTH",
"808 76 OFFCURVE",
"708 46 OFFCURVE",
"572 46 CURVE",
"356 46 OFFCURVE",
"267 137 OFFCURVE",
"267 137 CURVE"
);
},
{
closed = 1;
nodes = (
"201 458 LINE",
"206 325 LINE",
"206 332 OFFCURVE",
"233 356 OFFCURVE",
"513 356 CURVE",
"705 356 OFFCURVE",
"958 382 OFFCURVE",
"958 543 CURVE",
"958 645 OFFCURVE",
"801 700 OFFCURVE",
"565 700 CURVE SMOOTH",
"413 700 OFFCURVE",
"352 700 OFFCURVE",
"207 700 CURVE",
"227 586 LINE",
"277 630 OFFCURVE",
"368 654 OFFCURVE",
"467 654 CURVE SMOOTH",
"634 654 OFFCURVE",
"753 627 OFFCURVE",
"753 498 CURVE SMOOTH",
"753 429 OFFCURVE",
"668 372 OFFCURVE",
"542 372 CURVE",
"403 373 OFFCURVE",
"335 395 OFFCURVE",
"245 462 CURVE"
);
}
);
width = 1083;
},
{
associatedMasterId = "BA50C409-052E-472C-B8EA-E9BF3018781A";
layerId = "E858353E-0477-46A0-8E9F-AC6FC6923C4F";
name = "Oct 6 18, 14:52";
paths = (
{
closed = 1;
nodes = (
"100 700 OFFCURVE",
"130 668 OFFCURVE",
"130 531 CURVE",
"127 169 LINE",
"127 32 OFFCURVE",
"100 0 OFFCURVE",
"100 0 CURVE",
"377 0 LINE",
"377 0 OFFCURVE",
"350 32 OFFCURVE",
"350 169 CURVE",
"350 530 LINE",
"350 668 OFFCURVE",
"377 700 OFFCURVE",
"377 700 CURVE",
"100 700 LINE"
);
},
{
closed = 1;
nodes = (
"185 3 LINE",
"185 0 OFFCURVE",
"390 -2 OFFCURVE",
"633 -2 CURVE",
"775 -2 OFFCURVE",
"1023 69 OFFCURVE",
"1023 251 CURVE",
"1023 383 OFFCURVE",
"881 384 OFFCURVE",
"605 384 CURVE",
"483 384 OFFCURVE",
"333 388 OFFCURVE",
"188 388 CURVE",
"188 347 LINE",
"188 347 OFFCURVE",
"428 351 OFFCURVE",
"502 350 CURVE",
"684 350 OFFCURVE",
"808 315 OFFCURVE",
"808 166 CURVE SMOOTH",
"808 87 OFFCURVE",
"718 38 OFFCURVE",
"612 38 CURVE",
"396 40 OFFCURVE",
"267 196 OFFCURVE",
"267 306 CURVE"
);
},
{
closed = 1;
nodes = (
"201 529 LINE",
"206 345 LINE",
"206 352 OFFCURVE",
"320 350 OFFCURVE",
"563 350 CURVE",
"705 350 OFFCURVE",
"953 351 OFFCURVE",
"953 533 CURVE",
"953 645 OFFCURVE",
"811 700 OFFCURVE",
"535 700 CURVE",
"413 700 OFFCURVE",
"352 700 OFFCURVE",
"207 700 CURVE",
"227 586 LINE",
"277 630 OFFCURVE",
"358 672 OFFCURVE",
"432 671 CURVE",
"614 671 OFFCURVE",
"738 597 OFFCURVE",
"738 448 CURVE SMOOTH",
"738 369 OFFCURVE",
"648 390 OFFCURVE",
"542 390 CURVE",
"403 391 OFFCURVE",
"300 456 OFFCURVE",
"245 531 CURVE"
);
}
);
width = 1143;
},
{
associatedMasterId = "BA50C409-052E-472C-B8EA-E9BF3018781A";
layerId = "9FC651FD-2E9E-4D5A-8D84-54CDDA4A576F";
name = "Oct 6 18, 14:59";
paths = (
{
closed = 1;
nodes = (
"100 700 OFFCURVE",
"130 668 OFFCURVE",
"130 531 CURVE",
"127 169 LINE",
"127 32 OFFCURVE",
"100 0 OFFCURVE",
"100 0 CURVE",
"377 0 LINE",
"377 0 OFFCURVE",
"350 32 OFFCURVE",
"350 169 CURVE",
"350 530 LINE",
"350 668 OFFCURVE",
"377 700 OFFCURVE",
"377 700 CURVE",
"100 700 LINE"
);
},
{
closed = 1;
nodes = (
"185 3 LINE",
"185 0 OFFCURVE",
"390 -2 OFFCURVE",
"614 0 CURVE",
"845 -2 OFFCURVE",
"1023 97 OFFCURVE",
"1023 221 CURVE",
"1023 363 OFFCURVE",
"881 370 OFFCURVE",
"605 370 CURVE",
"483 370 OFFCURVE",
"333 368 OFFCURVE",
"188 368 CURVE",
"188 327 LINE",
"188 327 OFFCURVE",
"428 331 OFFCURVE",
"512 330 CURVE",
"705 330 OFFCURVE",
"788 245 OFFCURVE",
"788 156 CURVE SMOOTH",
"788 87 OFFCURVE",
"718 38 OFFCURVE",
"602 38 CURVE",
"336 38 OFFCURVE",
"267 137 OFFCURVE",
"267 137 CURVE"
);
},
{
closed = 1;
nodes = (
"201 469 LINE",
"206 325 LINE",
"206 332 OFFCURVE",
"320 330 OFFCURVE",
"563 330 CURVE",
"705 330 OFFCURVE",
"933 351 OFFCURVE",
"933 533 CURVE",
"933 645 OFFCURVE",
"811 700 OFFCURVE",
"535 700 CURVE",
"413 700 OFFCURVE",
"352 700 OFFCURVE",
"207 700 CURVE",
"227 586 LINE",
"277 630 OFFCURVE",
"358 672 OFFCURVE",
"432 671 CURVE",
"614 671 OFFCURVE",
"733 597 OFFCURVE",
"733 458 CURVE SMOOTH",
"733 369 OFFCURVE",
"648 370 OFFCURVE",
"542 370 CURVE",
"403 371 OFFCURVE",
"300 396 OFFCURVE",
"245 471 CURVE"
);
}
);
width = 1143;
},
{
associatedMasterId = "BA50C409-052E-472C-B8EA-E9BF3018781A";
layerId = "E46B89D4-5EFE-46BC-B082-C837C1AFB8F6";
name = "Oct 6 18, 15:04";
paths = (
{
closed = 1;
nodes = (
"100 700 OFFCURVE",
"130 668 OFFCURVE",
"130 531 CURVE",
"127 169 LINE",
"127 32 OFFCURVE",
"100 0 OFFCURVE",
"100 0 CURVE",
"377 0 LINE",
"377 0 OFFCURVE",
"350 32 OFFCURVE",
"350 169 CURVE",
"350 530 LINE",
"350 668 OFFCURVE",
"377 700 OFFCURVE",
"377 700 CURVE",
"100 700 LINE"
);
},
{
closed = 1;
nodes = (
"185 3 LINE",
"185 0 OFFCURVE",
"390 -2 OFFCURVE",
"614 0 CURVE",
"845 -2 OFFCURVE",
"1023 97 OFFCURVE",
"1023 221 CURVE",
"1023 363 OFFCURVE",
"881 370 OFFCURVE",
"605 370 CURVE",
"483 370 OFFCURVE",
"333 368 OFFCURVE",
"188 368 CURVE",
"188 327 LINE",
"188 327 OFFCURVE",
"428 331 OFFCURVE",
"512 330 CURVE",
"705 330 OFFCURVE",
"788 245 OFFCURVE",
"788 156 CURVE SMOOTH",
"788 87 OFFCURVE",
"718 38 OFFCURVE",
"602 38 CURVE",
"336 38 OFFCURVE",
"267 137 OFFCURVE",
"267 137 CURVE"
);
},
{
closed = 1;
nodes = (
"201 469 LINE",
"206 325 LINE",
"206 332 OFFCURVE",
"320 330 OFFCURVE",
"563 330 CURVE",
"705 330 OFFCURVE",
"933 351 OFFCURVE",
"933 533 CURVE",
"933 645 OFFCURVE",
"811 700 OFFCURVE",
"535 700 CURVE",
"413 700 OFFCURVE",
"352 700 OFFCURVE",
"207 700 CURVE",
"227 586 LINE",
"277 630 OFFCURVE",
"358 672 OFFCURVE",
"432 671 CURVE",
"614 671 OFFCURVE",
"733 597 OFFCURVE",
"733 478 CURVE SMOOTH",
"733 379 OFFCURVE",
"648 370 OFFCURVE",
"542 370 CURVE",
"403 371 OFFCURVE",
"335 404 OFFCURVE",
"245 471 CURVE"
);
}
);
width = 1143;
},
{
associatedMasterId = "BA50C409-052E-472C-B8EA-E9BF3018781A";
layerId = "720D6C67-01D2-4FBC-84A9-75C1E2DC1418";
name = "Oct 6 18, 15:04";
paths = (
{
closed = 1;
nodes = (
"100 700 OFFCURVE",
"130 668 OFFCURVE",
"130 531 CURVE",
"127 169 LINE",
"127 32 OFFCURVE",
"100 0 OFFCURVE",
"100 0 CURVE",
"377 0 LINE",
"377 0 OFFCURVE",
"350 32 OFFCURVE",
"350 169 CURVE",
"350 530 LINE",
"350 668 OFFCURVE",
"377 700 OFFCURVE",
"377 700 CURVE",
"100 700 LINE"
);
},
{
closed = 1;
nodes = (
"185 3 LINE",
"185 0 OFFCURVE",
"390 -2 OFFCURVE",
"614 0 CURVE",
"845 -2 OFFCURVE",
"1023 97 OFFCURVE",
"1023 221 CURVE",
"1023 363 OFFCURVE",
"881 370 OFFCURVE",
"605 370 CURVE",
"483 370 OFFCURVE",
"333 368 OFFCURVE",
"188 368 CURVE",
"188 327 LINE",
"188 327 OFFCURVE",
"428 331 OFFCURVE",
"512 330 CURVE",
"705 330 OFFCURVE",
"788 245 OFFCURVE",
"788 156 CURVE SMOOTH",
"788 87 OFFCURVE",
"718 38 OFFCURVE",
"602 38 CURVE",
"336 38 OFFCURVE",
"267 137 OFFCURVE",
"267 137 CURVE"
);
},
{
closed = 1;
nodes = (
"201 469 LINE",
"206 325 LINE",
"206 332 OFFCURVE",
"320 330 OFFCURVE",
"533 330 CURVE",
"705 330 OFFCURVE",
"933 351 OFFCURVE",
"933 533 CURVE",
"933 645 OFFCURVE",
"811 700 OFFCURVE",
"535 700 CURVE",
"413 700 OFFCURVE",
"352 700 OFFCURVE",
"207 700 CURVE",
"227 586 LINE",
"277 630 OFFCURVE",
"358 672 OFFCURVE",
"432 671 CURVE",
"614 671 OFFCURVE",
"733 597 OFFCURVE",
"733 478 CURVE SMOOTH",
"733 379 OFFCURVE",
"648 370 OFFCURVE",
"542 370 CURVE",
"403 371 OFFCURVE",
"335 404 OFFCURVE",
"245 471 CURVE"
);
}
);
width = 1143;
},
{
associatedMasterId = "BA50C409-052E-472C-B8EA-E9BF3018781A";
layerId = "453FD61D-611E-44DD-89A3-37AC254B356A";
name = "Oct 6 18, 15:09";
paths = (
{
closed = 1;
nodes = (
"100 700 OFFCURVE",
"130 668 OFFCURVE",
"130 531 CURVE",
"127 169 LINE",
"127 32 OFFCURVE",
"100 0 OFFCURVE",
"100 0 CURVE",
"377 0 LINE",
"377 0 OFFCURVE",
"350 32 OFFCURVE",
"350 169 CURVE",
"350 530 LINE",
"350 668 OFFCURVE",
"377 700 OFFCURVE",
"377 700 CURVE",
"100 700 LINE"
);
},
{
closed = 1;
nodes = (
"185 3 LINE",
"185 0 OFFCURVE",
"390 -2 OFFCURVE",
"614 0 CURVE",
"845 -2 OFFCURVE",
"1023 97 OFFCURVE",
"1023 221 CURVE",
"1023 363 OFFCURVE",
"881 370 OFFCURVE",
"605 370 CURVE",
"483 370 OFFCURVE",
"333 368 OFFCURVE",
"188 368 CURVE",
"188 327 LINE",
"188 327 OFFCURVE",
"428 331 OFFCURVE",
"512 330 CURVE",
"705 330 OFFCURVE",
"788 245 OFFCURVE",
"788 156 CURVE SMOOTH",
"788 87 OFFCURVE",
"718 38 OFFCURVE",
"602 38 CURVE",
"336 38 OFFCURVE",
"267 137 OFFCURVE",
"267 137 CURVE"
);
},
{
closed = 1;
nodes = (
"201 458 LINE",
"206 325 LINE",
"206 332 OFFCURVE",
"300 330 OFFCURVE",
"513 330 CURVE",
"685 330 OFFCURVE",
"933 351 OFFCURVE",
"933 533 CURVE",
"933 645 OFFCURVE",
"811 700 OFFCURVE",
"535 700 CURVE",
"413 700 OFFCURVE",
"352 700 OFFCURVE",
"207 700 CURVE",
"227 586 LINE",
"277 630 OFFCURVE",
"358 672 OFFCURVE",
"432 671 CURVE",
"614 671 OFFCURVE",
"733 597 OFFCURVE",
"733 478 CURVE SMOOTH",
"733 389 OFFCURVE",
"648 370 OFFCURVE",
"542 370 CURVE",
"403 371 OFFCURVE",
"335 393 OFFCURVE",
"245 460 CURVE"
);
}
);
width = 1073;
},
{
associatedMasterId = "BA50C409-052E-472C-B8EA-E9BF3018781A";
layerId = "19948EDC-1622-4DBE-8D9B-B335700EB8C1";
name = "Oct 6 18, 18:07";
paths = (
{
closed = 1;
nodes = (
"100 700 OFFCURVE",
"130 668 OFFCURVE",
"130 531 CURVE",
"127 169 LINE",
"127 32 OFFCURVE",
"100 0 OFFCURVE",
"100 0 CURVE",
"377 0 LINE",
"377 0 OFFCURVE",
"350 32 OFFCURVE",
"350 169 CURVE",
"350 530 LINE",
"350 668 OFFCURVE",
"377 700 OFFCURVE",
"377 700 CURVE",
"100 700 LINE"
);
},
{
closed = 1;
nodes = (
"185 3 LINE",
"185 0 OFFCURVE",
"430 -2 OFFCURVE",
"654 0 CURVE",
"885 -2 OFFCURVE",
"1063 97 OFFCURVE",
"1063 221 CURVE",
"1063 363 OFFCURVE",
"921 370 OFFCURVE",
"645 370 CURVE",
"523 373 OFFCURVE",
"333 368 OFFCURVE",
"188 368 CURVE",
"188 327 LINE",
"188 327 OFFCURVE",
"428 328 OFFCURVE",
"512 327 CURVE",
"745 327 OFFCURVE",
"808 245 OFFCURVE",
"808 156 CURVE SMOOTH",
"808 87 OFFCURVE",
"738 46 OFFCURVE",
"622 46 CURVE",
"356 46 OFFCURVE",
"267 137 OFFCURVE",
"267 137 CURVE"
);
},
{
closed = 1;
nodes = (
"201 458 LINE",
"206 325 LINE",
"206 332 OFFCURVE",
"300 357 OFFCURVE",
"513 357 CURVE",
"725 357 OFFCURVE",
"973 351 OFFCURVE",
"973 533 CURVE",
"973 645 OFFCURVE",
"851 700 OFFCURVE",
"535 700 CURVE SMOOTH",
"413 700 OFFCURVE",
"352 700 OFFCURVE",
"207 700 CURVE",
"227 586 LINE",
"277 630 OFFCURVE",
"368 655 OFFCURVE",
"467 654 CURVE SMOOTH",
"664 654 OFFCURVE",
"763 597 OFFCURVE",
"763 478 CURVE SMOOTH",
"763 389 OFFCURVE",
"688 373 OFFCURVE",
"542 373 CURVE",
"403 374 OFFCURVE",
"335 393 OFFCURVE",
"245 460 CURVE"
);
}
);
width = 1073;
},
{
associatedMasterId = "BA50C409-052E-472C-B8EA-E9BF3018781A";
layerId = "8F54DF7F-A53A-4DE1-A62B-08CC95433BE4";
name = "Oct 6 18, 18:25";
paths = (
{
closed = 1;
nodes = (
"100 700 OFFCURVE",
"130 668 OFFCURVE",
"130 531 CURVE",
"127 169 LINE",
"127 32 OFFCURVE",
"100 0 OFFCURVE",
"100 0 CURVE",
"377 0 LINE",
"377 0 OFFCURVE",
"350 32 OFFCURVE",
"350 169 CURVE",
"350 530 LINE",
"350 668 OFFCURVE",
"377 700 OFFCURVE",
"377 700 CURVE",
"100 700 LINE"
);
},
{
closed = 1;
nodes = (
"185 3 LINE",
"185 0 OFFCURVE",
"430 -2 OFFCURVE",
"614 0 CURVE",
"895 -2 OFFCURVE",
"1013 113 OFFCURVE",
"1013 201 CURVE",
"1013 310 OFFCURVE",
"953 370 OFFCURVE",
"645 370 CURVE",
"523 370 OFFCURVE",
"333 368 OFFCURVE",
"188 368 CURVE",
"188 328 LINE",
"188 328 OFFCURVE",
"428 331 OFFCURVE",
"512 330 CURVE",
"695 330 OFFCURVE",
"758 215 OFFCURVE",
"758 156 CURVE SMOOTH",
"758 96 OFFCURVE",
"708 46 OFFCURVE",
"582 46 CURVE",
"356 46 OFFCURVE",
"267 137 OFFCURVE",
"267 137 CURVE"
);
},
{
closed = 1;
nodes = (
"201 458 LINE",
"206 325 LINE",
"206 332 OFFCURVE",
"300 356 OFFCURVE",
"513 356 CURVE",
"705 356 OFFCURVE",
"953 351 OFFCURVE",
"953 533 CURVE",
"953 645 OFFCURVE",
"851 700 OFFCURVE",
"535 700 CURVE SMOOTH",
"413 700 OFFCURVE",
"352 700 OFFCURVE",
"207 700 CURVE",
"227 586 LINE",
"277 630 OFFCURVE",
"368 654 OFFCURVE",
"467 654 CURVE SMOOTH",
"644 654 OFFCURVE",
"743 597 OFFCURVE",
"743 478 CURVE SMOOTH",
"743 389 OFFCURVE",
"668 370 OFFCURVE",
"542 370 CURVE",
"403 371 OFFCURVE",
"335 393 OFFCURVE",
"245 460 CURVE"
);
}
);
width = 1073;
},
{
associatedMasterId = "BA50C409-052E-472C-B8EA-E9BF3018781A";
layerId = "0A37A7C5-9B51-4979-B9AA-9E73F62E2D64";
name = "Oct 16 18, 22:59";
paths = (
{
closed = 1;
nodes = (
"100 700 OFFCURVE",
"130 668 OFFCURVE",
"130 531 CURVE",
"127 169 LINE",
"127 32 OFFCURVE",
"100 0 OFFCURVE",
"100 0 CURVE",
"377 0 LINE",
"377 0 OFFCURVE",
"350 32 OFFCURVE",
"350 169 CURVE",
"350 530 LINE",
"350 668 OFFCURVE",
"377 700 OFFCURVE",
"377 700 CURVE",
"100 700 LINE"
);
},
{
closed = 1;
nodes = (
"185 3 LINE",
"185 0 OFFCURVE",
"430 -2 OFFCURVE",
"614 0 CURVE",
"895 -2 OFFCURVE",
"1013 113 OFFCURVE",
"1013 201 CURVE",
"1014 309 OFFCURVE",
"954 369 OFFCURVE",
"645 370 CURVE",
"523 370 OFFCURVE",
"333 368 OFFCURVE",
"188 368 CURVE",
"188 330 LINE",
"191 350 OFFCURVE",
"768 387 OFFCURVE",
"768 156 CURVE SMOOTH",
"768 96 OFFCURVE",
"708 46 OFFCURVE",
"582 46 CURVE",
"356 46 OFFCURVE",
"267 137 OFFCURVE",
"267 137 CURVE"
);
},
{
closed = 1;
nodes = (
"201 458 LINE",
"206 325 LINE",
"206 332 OFFCURVE",
"300 356 OFFCURVE",
"513 356 CURVE",
"705 356 OFFCURVE",
"948 351 OFFCURVE",
"948 533 CURVE",
"948 645 OFFCURVE",
"851 700 OFFCURVE",
"535 700 CURVE SMOOTH",
"413 700 OFFCURVE",
"352 700 OFFCURVE",
"207 700 CURVE",
"227 586 LINE",
"277 630 OFFCURVE",
"368 654 OFFCURVE",
"467 654 CURVE SMOOTH",
"644 654 OFFCURVE",
"743 597 OFFCURVE",
"743 478 CURVE SMOOTH",
"743 389 OFFCURVE",
"668 370 OFFCURVE",
"542 370 CURVE",
"403 371 OFFCURVE",
"335 393 OFFCURVE",
"245 460 CURVE"
);
}
);
width = 1073;
},
{
associatedMasterId = "BA50C409-052E-472C-B8EA-E9BF3018781A";
layerId = "12E654CA-A2BF-4E5F-B0FD-81DD7FF9E8C8";
name = "Oct 21 18, 17:17";
paths = (
{
closed = 1;
nodes = (
"100 700 OFFCURVE",
"130 668 OFFCURVE",
"130 531 CURVE",
"127 169 LINE",
"127 32 OFFCURVE",
"100 0 OFFCURVE",
"100 0 CURVE",
"377 0 LINE",
"377 0 OFFCURVE",
"350 32 OFFCURVE",
"350 169 CURVE",
"350 530 LINE",
"350 668 OFFCURVE",
"377 700 OFFCURVE",
"377 700 CURVE",
"100 700 LINE"
);
},
{
closed = 1;
nodes = (
"185 3 LINE",
"185 0 OFFCURVE",
"430 -2 OFFCURVE",
"614 0 CURVE",
"895 -2 OFFCURVE",
"1013 113 OFFCURVE",
"1013 201 CURVE",
"1014 309 OFFCURVE",
"954 369 OFFCURVE",
"645 370 CURVE",
"523 370 OFFCURVE",
"333 368 OFFCURVE",
"188 368 CURVE",
"188 330 LINE",
"191 350 OFFCURVE",
"768 387 OFFCURVE",
"768 156 CURVE SMOOTH",
"768 96 OFFCURVE",
"708 46 OFFCURVE",
"582 46 CURVE",
"356 46 OFFCURVE",
"267 137 OFFCURVE",
"267 137 CURVE"
);
},
{
closed = 1;
nodes = (
"201 458 LINE",
"206 325 LINE",
"206 332 OFFCURVE",
"300 356 OFFCURVE",
"513 356 CURVE",
"705 356 OFFCURVE",
"948 351 OFFCURVE",
"948 533 CURVE",
"948 645 OFFCURVE",
"851 700 OFFCURVE",
"535 700 CURVE SMOOTH",
"413 700 OFFCURVE",
"352 700 OFFCURVE",
"207 700 CURVE",
"227 586 LINE",
"277 630 OFFCURVE",
"368 654 OFFCURVE",
"467 654 CURVE SMOOTH",
"644 654 OFFCURVE",
"743 597 OFFCURVE",
"743 478 CURVE SMOOTH",
"743 389 OFFCURVE",
"668 370 OFFCURVE",
"542 370 CURVE",
"403 371 OFFCURVE",
"335 393 OFFCURVE",
"245 460 CURVE"
);
}
);
width = 1083;
},
{
associatedMasterId = "0B0DCF06-F5B0-447D-A254-17124A94DF9D";
layerId = "5278417B-2AA2-4FB3-BBE9-97DEA5F12B59";
name = "Feb 12 19, 18:57";
paths = (
{
closed = 1;
nodes = (
"188 636 LINE",
"223 648 OFFCURVE",
"263 654 OFFCURVE",
"305 654 CURVE SMOOTH",
"355 654 OFFCURVE",
"491 627 OFFCURVE",
"491 498 CURVE SMOOTH",
"491 429 OFFCURVE",
"374 373 OFFCURVE",
"368 373 CURVE",
"289 374 OFFCURVE",
"237 383 OFFCURVE",
"188 411 CURVE",
"188 368 LINE",
"188 347 LINE",
"188 351 LINE",
"225 354 OFFCURVE",
"275 356 OFFCURVE",
"344 356 CURVE",
"415 356 OFFCURVE",
"591 382 OFFCURVE",
"591 543 CURVE",
"591 645 OFFCURVE",
"495 700 OFFCURVE",
"388 700 CURVE SMOOTH",
"301 700 OFFCURVE",
"250 700 OFFCURVE",
"188 700 CURVE"
);
},
{
closed = 1;
nodes = (
"85 700 OFFCURVE",
"111 662 OFFCURVE",
"111 530 CURVE",
"106 169 LINE",
"106 38 OFFCURVE",
"80 0 OFFCURVE",
"80 0 CURVE",
"232 0 LINE",
"232 0 OFFCURVE",
"202 38 OFFCURVE",
"202 169 CURVE",
"200 530 LINE",
"200 662 OFFCURVE",
"226 700 OFFCURVE",
"226 700 CURVE",
"85 700 LINE"
);
},
{
closed = 1;
nodes = (
"188 411 LINE",
"188 351 LINE",
"188 347 LINE",
"341 354 OFFCURVE",
"548 330 OFFCURVE",
"548 176 CURVE SMOOTH",
"548 76 OFFCURVE",
"417 46 OFFCURVE",
"393 46 CURVE",
"295 46 OFFCURVE",
"228 73 OFFCURVE",
"188 97 CURVE",
"188 0 LINE",
"258 -1 OFFCURVE",
"346 -1 OFFCURVE",
"420 0 CURVE",
"541 -2 OFFCURVE",
"655 83 OFFCURVE",
"655 202 CURVE",
"656 289 OFFCURVE",
"584 369 OFFCURVE",
"355 370 CURVE",
"283 370 OFFCURVE",
"283 369 OFFCURVE",
"188 368 CURVE"
);
}
);
width = 730;
}
);
unicode = 0042;
},
{
glyphname = C;
lastChange = "2019-04-07 16:50:20 +0000";
layers = (
{
annotations = (
{
position = "{249, 388}";
text = RIFARE;
type = Text;
}
);
layerId = "0B0DCF06-F5B0-447D-A254-17124A94DF9D";
paths = (
{
closed = 1;
nodes = (
"636 171 LINE",
"590 85 OFFCURVE",
"506 51 OFFCURVE",
"436 51 CURVE SMOOTH",
"272 51 OFFCURVE",
"167 207 OFFCURVE",
"167 379 CURVE SMOOTH",
"167 533 OFFCURVE",
"256 648 OFFCURVE",
"390 648 CURVE SMOOTH",
"475 648 OFFCURVE",
"572 596 OFFCURVE",
"618 514 CURVE",
"652 628 LINE",
"593 682 OFFCURVE",
"516 712 OFFCURVE",
"433 712 CURVE SMOOTH",
"254 712 OFFCURVE",
"65 539 OFFCURVE",
"65 319 CURVE SMOOTH",
"65 118 OFFCURVE",
"218 -15 OFFCURVE",
"393 -15 CURVE SMOOTH",
"487 -15 OFFCURVE",
"607 23 OFFCURVE",
"670 175 CURVE"
);
},
{
closed = 1;
nodes = (
"516 387 LINE",
"516 427 LINE"
);
}
);
width = 750;
},
{
associatedMasterId = "0B0DCF06-F5B0-447D-A254-17124A94DF9D";
layerId = "DB8940C6-123B-4049-82DF-36C2934A52DC";
width = 600;
},
{
layerId = "BA50C409-052E-472C-B8EA-E9BF3018781A";
paths = (
{
closed = 1;
nodes = (
"994 257 LINE",
"927 167 OFFCURVE",
"815 113 OFFCURVE",
"647 113 CURVE SMOOTH",
"441 113 OFFCURVE",
"218 265 OFFCURVE",
"218 455 CURVE SMOOTH",
"218 576 OFFCURVE",
"322 671 OFFCURVE",
"458 671 CURVE SMOOTH",
"730 671 OFFCURVE",
"954 401 OFFCURVE",
"954 401 CURVE",
"1003 643 LINE",
"1003 643 OFFCURVE",
"864 747 OFFCURVE",
"607 747 CURVE SMOOTH",
"311 747 OFFCURVE",
"70 584 OFFCURVE",
"70 328 CURVE SMOOTH",
"70 125 OFFCURVE",
"290 -26 OFFCURVE",
"537 -26 CURVE SMOOTH",
"790 -26 OFFCURVE",
"960 135 OFFCURVE",
"1012 226 CURVE"
);
}
);
width = 1042;
},
{
associatedMasterId = "0B0DCF06-F5B0-447D-A254-17124A94DF9D";
layerId = "E6934FCE-D771-4EED-ABB8-4B02D518BBE5";
name = "Mar 16 18, 15:46";
paths = (
{
closed = 1;
nodes = (
"695 253 LINE",
"647 117 OFFCURVE",
"529 64 OFFCURVE",
"427 64 CURVE SMOOTH",
"255 64 OFFCURVE",
"160 192 OFFCURVE",
"160 383 CURVE SMOOTH",
"160 543 OFFCURVE",
"255 641 OFFCURVE",
"387 641 CURVE SMOOTH",
"523 641 OFFCURVE",
"635 589 OFFCURVE",
"707 422 CURVE",
"708 596 LINE",
"620 700 OFFCURVE",
"504 711 OFFCURVE",
"427 711 CURVE SMOOTH",
"250 711 OFFCURVE",
"50 536 OFFCURVE",
"50 319 CURVE SMOOTH",
"50 101 OFFCURVE",
"210 -6 OFFCURVE",
"387 -6 CURVE SMOOTH",
"532 -6 OFFCURVE",
"676 62 OFFCURVE",
"704 235 CURVE"
);
}
);
width = 758;
},
{
associatedMasterId = "0B0DCF06-F5B0-447D-A254-17124A94DF9D";
layerId = "E37A33F5-DD82-4341-B185-4AAF92EE0D2F";
name = "Mar 16 18, 15:53";
paths = (
{
closed = 1;
nodes = (
"720 240 LINE",
"658 106 OFFCURVE",
"546 64 OFFCURVE",
"437 64 CURVE SMOOTH",
"288 64 OFFCURVE",
"160 192 OFFCURVE",
"160 383 CURVE SMOOTH",
"160 543 OFFCURVE",
"255 641 OFFCURVE",
"397 641 CURVE SMOOTH",
"533 641 OFFCURVE",
"635 589 OFFCURVE",
"707 394 CURVE",
"708 606 LINE",
"635 682 OFFCURVE",
"549 711 OFFCURVE",
"447 711 CURVE SMOOTH",
"250 711 OFFCURVE",
"40 536 OFFCURVE",
"40 319 CURVE SMOOTH",
"40 101 OFFCURVE",
"220 -6 OFFCURVE",
"397 -6 CURVE SMOOTH",
"522 -6 OFFCURVE",
"665 41 OFFCURVE",
"734 233 CURVE"
);
},
{
closed = 1;
nodes = (
"734 236 OFFCURVE",
"734 230 OFFCURVE",
"734 235 CURVE"
);
}
);
width = 774;
},
{
associatedMasterId = "0B0DCF06-F5B0-447D-A254-17124A94DF9D";
layerId = "8A02C232-3E0D-4043-8388-EB126C3456F4";
name = "Mar 16 18, 15:54";
paths = (
{
closed = 1;
nodes = (
"720 240 LINE",
"658 106 OFFCURVE",
"546 64 OFFCURVE",
"437 64 CURVE SMOOTH",
"288 64 OFFCURVE",
"160 192 OFFCURVE",
"160 383 CURVE SMOOTH",
"160 543 OFFCURVE",
"255 641 OFFCURVE",
"397 641 CURVE SMOOTH",
"533 641 OFFCURVE",
"635 589 OFFCURVE",
"707 394 CURVE",
"708 606 LINE",
"635 682 OFFCURVE",
"549 711 OFFCURVE",
"447 711 CURVE SMOOTH",
"250 711 OFFCURVE",
"40 536 OFFCURVE",
"40 319 CURVE SMOOTH",
"40 101 OFFCURVE",
"220 -6 OFFCURVE",
"397 -6 CURVE SMOOTH",
"522 -6 OFFCURVE",
"665 41 OFFCURVE",
"734 233 CURVE"
);
},
{
closed = 1;
nodes = (
"734 236 OFFCURVE",
"734 230 OFFCURVE",
"734 235 CURVE"
);
}
);
width = 774;
},
{
associatedMasterId = "BA50C409-052E-472C-B8EA-E9BF3018781A";
layerId = "527B9DC6-9366-4E25-9DAE-11A47016E1EA";
name = "Mar 17 18, 17:23";
paths = (
{
closed = 1;
nodes = (
"982 216 LINE",
"866 120 OFFCURVE",
"796 64 OFFCURVE",
"687 64 CURVE SMOOTH",
"498 64 OFFCURVE",
"350 182 OFFCURVE",
"350 403 CURVE SMOOTH",
"350 567 OFFCURVE",
"460 677 OFFCURVE",
"606 677 CURVE SMOOTH",
"841 677 OFFCURVE",
"935 528 OFFCURVE",
"977 344 CURVE",
"978 673 LINE",
"978 673 OFFCURVE",
"864 727 OFFCURVE",
"677 727 CURVE SMOOTH",
"341 727 OFFCURVE",
"60 556 OFFCURVE",
"60 309 CURVE SMOOTH",
"60 71 OFFCURVE",
"350 -6 OFFCURVE",
"497 -6 CURVE SMOOTH",
"772 -6 OFFCURVE",
"880 74 OFFCURVE",
"995 207 CURVE"
);
}
);
width = 1024;
},
{
associatedMasterId = "BA50C409-052E-472C-B8EA-E9BF3018781A";
layerId = "3544CE91-035C-4E66-A6C0-85D428CB12A5";
name = "Mar 17 18, 17:24";
paths = (
{
closed = 1;
nodes = (
"982 216 LINE",
"899 102 OFFCURVE",
"796 64 OFFCURVE",
"687 64 CURVE SMOOTH",
"498 64 OFFCURVE",
"350 182 OFFCURVE",
"350 403 CURVE SMOOTH",
"350 567 OFFCURVE",
"460 677 OFFCURVE",
"606 677 CURVE SMOOTH",
"841 677 OFFCURVE",
"935 528 OFFCURVE",
"977 344 CURVE",
"978 673 LINE",
"978 673 OFFCURVE",
"864 727 OFFCURVE",
"677 727 CURVE SMOOTH",
"341 727 OFFCURVE",
"60 556 OFFCURVE",
"60 309 CURVE SMOOTH",
"60 71 OFFCURVE",
"350 -6 OFFCURVE",
"567 -6 CURVE SMOOTH",
"776 -6 OFFCURVE",
"915 74 OFFCURVE",
"995 207 CURVE"
);
}
);
width = 1024;
},
{
associatedMasterId = "BA50C409-052E-472C-B8EA-E9BF3018781A";
layerId = "3E25BF2F-93F2-480D-897A-C3B0A03A64F7";
name = "Mar 17 18, 17:26";
paths = (
{
closed = 1;
nodes = (
"982 216 LINE",
"899 102 OFFCURVE",
"796 64 OFFCURVE",
"687 64 CURVE SMOOTH",
"498 64 OFFCURVE",
"350 182 OFFCURVE",
"350 403 CURVE SMOOTH",
"350 567 OFFCURVE",
"460 677 OFFCURVE",
"606 677 CURVE SMOOTH",
"841 677 OFFCURVE",
"899 365 OFFCURVE",
"899 304 CURVE",
"978 673 LINE",
"978 673 OFFCURVE",
"864 727 OFFCURVE",
"677 727 CURVE SMOOTH",
"341 727 OFFCURVE",
"60 556 OFFCURVE",
"60 309 CURVE SMOOTH",
"60 71 OFFCURVE",
"350 -6 OFFCURVE",
"567 -6 CURVE SMOOTH",
"776 -6 OFFCURVE",
"915 74 OFFCURVE",
"995 207 CURVE"
);
}
);
width = 1024;
},
{
associatedMasterId = "BA50C409-052E-472C-B8EA-E9BF3018781A";
layerId = "39F54B98-AF06-41E9-8A0D-1662AF1D5202";
name = "Mar 17 18, 17:44";
paths = (
{
closed = 1;
nodes = (
"994 346 LINE",
"943 252 OFFCURVE",
"748 171 OFFCURVE",
"547 171 CURVE SMOOTH",
"385 171 OFFCURVE",
"125 182 OFFCURVE",
"125 403 CURVE SMOOTH",
"125 497 OFFCURVE",
"270 576 OFFCURVE",
"466 576 CURVE SMOOTH",
"791 576 OFFCURVE",
"958 411 OFFCURVE",
"958 411 CURVE",
"958 673 LINE",
"958 673 OFFCURVE",
"814 747 OFFCURVE",
"627 747 CURVE SMOOTH",
"291 747 OFFCURVE",
"10 556 OFFCURVE",
"10 269 CURVE SMOOTH",
"10 21 OFFCURVE",
"300 -16 OFFCURVE",
"447 -16 CURVE SMOOTH",
"696 -16 OFFCURVE",
"916 50 OFFCURVE",
"1015 159 CURVE"
);
}
);
width = 1008;
},
{
associatedMasterId = "BA50C409-052E-472C-B8EA-E9BF3018781A";
layerId = "42492DE8-93A1-44BA-85B3-73B62D4AD7EB";
name = "Mar 17 18, 19:13";
paths = (
{
closed = 1;
nodes = (
"956 299 LINE",
"849 212 OFFCURVE",
"700 171 OFFCURVE",
"547 171 CURVE SMOOTH",
"385 171 OFFCURVE",
"125 182 OFFCURVE",
"125 403 CURVE SMOOTH",
"125 497 OFFCURVE",
"270 576 OFFCURVE",
"466 576 CURVE SMOOTH",
"791 576 OFFCURVE",
"958 411 OFFCURVE",
"958 411 CURVE",
"958 673 LINE",
"958 673 OFFCURVE",
"814 747 OFFCURVE",
"627 747 CURVE SMOOTH",
"291 747 OFFCURVE",
"10 556 OFFCURVE",
"10 269 CURVE SMOOTH",
"10 21 OFFCURVE",
"300 -16 OFFCURVE",
"447 -16 CURVE SMOOTH",
"676 -16 OFFCURVE",
"774 26 OFFCURVE",
"858 84 CURVE"
);
}
);
width = 1008;
},
{
associatedMasterId = "0B0DCF06-F5B0-447D-A254-17124A94DF9D";
layerId = "A34689C4-F581-4578-8DC5-ED672B1A6BF6";
name = "Mar 17 18, 20:08";
paths = (
{
closed = 1;
nodes = (
"720 240 LINE",
"658 106 OFFCURVE",
"546 64 OFFCURVE",
"437 64 CURVE SMOOTH",
"288 64 OFFCURVE",
"160 192 OFFCURVE",
"160 383 CURVE SMOOTH",
"160 551 OFFCURVE",
"250 641 OFFCURVE",
"407 641 CURVE SMOOTH",
"533 641 OFFCURVE",
"635 589 OFFCURVE",
"707 394 CURVE",
"708 606 LINE",
"635 682 OFFCURVE",
"549 711 OFFCURVE",
"447 711 CURVE SMOOTH",
"251 711 OFFCURVE",
"40 536 OFFCURVE",
"40 319 CURVE SMOOTH",
"40 101 OFFCURVE",
"220 -6 OFFCURVE",
"397 -6 CURVE SMOOTH",
"522 -6 OFFCURVE",
"665 41 OFFCURVE",
"734 233 CURVE"
);
}
);
width = 774;
},
{
associatedMasterId = "0B0DCF06-F5B0-447D-A254-17124A94DF9D";
layerId = "10064DBB-5BF4-48F1-AF52-26FC6917464F";
name = "Mar 17 18, 20:17";
paths = (
{
closed = 1;
nodes = (
"720 240 LINE",
"658 106 OFFCURVE",
"546 64 OFFCURVE",
"437 64 CURVE SMOOTH",
"288 64 OFFCURVE",
"160 192 OFFCURVE",
"160 383 CURVE SMOOTH",
"160 551 OFFCURVE",
"250 641 OFFCURVE",
"407 641 CURVE SMOOTH",
"533 641 OFFCURVE",
"635 589 OFFCURVE",
"707 394 CURVE",
"708 606 LINE",
"635 682 OFFCURVE",
"549 711 OFFCURVE",
"467 711 CURVE SMOOTH",
"271 711 OFFCURVE",
"50 536 OFFCURVE",
"50 319 CURVE SMOOTH",
"50 101 OFFCURVE",
"240 -6 OFFCURVE",
"417 -6 CURVE SMOOTH",
"522 -6 OFFCURVE",
"673 50 OFFCURVE",
"734 233 CURVE"
);
}
);
width = 774;
},
{
associatedMasterId = "BA50C409-052E-472C-B8EA-E9BF3018781A";
layerId = "6280AB81-5CB0-4BD0-B4BD-7711FF0C5CE8";
name = "Mar 17 18, 20:20";
paths = (
{
closed = 1;
nodes = (
"996 309 LINE",
"920 247 OFFCURVE",
"726 161 OFFCURVE",
"537 161 CURVE SMOOTH",
"375 161 OFFCURVE",
"95 147 OFFCURVE",
"95 403 CURVE SMOOTH",
"95 497 OFFCURVE",
"260 576 OFFCURVE",
"456 576 CURVE SMOOTH",
"801 576 OFFCURVE",
"918 381 OFFCURVE",
"918 381 CURVE",
"918 643 LINE",
"918 643 OFFCURVE",
"784 747 OFFCURVE",
"577 747 CURVE SMOOTH",
"241 747 OFFCURVE",
"10 556 OFFCURVE",
"10 269 CURVE SMOOTH",
"10 21 OFFCURVE",
"290 -26 OFFCURVE",
"437 -26 CURVE SMOOTH",
"686 -26 OFFCURVE",
"814 26 OFFCURVE",
"898 84 CURVE"
);
}
);
width = 1008;
},
{
associatedMasterId = "BA50C409-052E-472C-B8EA-E9BF3018781A";
layerId = "C647AB7F-572B-4F79-BCF4-256FFE91C2F3";
name = "Mar 17 18, 20:28";
paths = (
{
closed = 1;
nodes = (
"932 300 LINE",
"855 174 OFFCURVE",
"680 141 OFFCURVE",
"547 141 CURVE SMOOTH",
"445 141 OFFCURVE",
"95 147 OFFCURVE",
"95 403 CURVE SMOOTH",
"95 497 OFFCURVE",
"260 576 OFFCURVE",
"456 576 CURVE SMOOTH",
"801 576 OFFCURVE",
"858 361 OFFCURVE",
"858 361 CURVE",
"918 643 LINE",
"918 643 OFFCURVE",
"784 747 OFFCURVE",
"577 747 CURVE SMOOTH",
"241 747 OFFCURVE",
"10 556 OFFCURVE",
"10 269 CURVE SMOOTH",
"10 21 OFFCURVE",
"290 -26 OFFCURVE",
"437 -26 CURVE SMOOTH",
"796 -26 OFFCURVE",
"914 178 OFFCURVE",
"953 276 CURVE"
);
}
);
width = 1008;
},
{
associatedMasterId = "BA50C409-052E-472C-B8EA-E9BF3018781A";
layerId = "050796F2-1936-456D-A312-58C8282FF848";
name = "Mar 17 18, 20:32";
paths = (
{
closed = 1;
nodes = (
"996 309 LINE",
"920 247 OFFCURVE",
"676 160 OFFCURVE",
"507 160 CURVE SMOOTH",
"365 160 OFFCURVE",
"95 147 OFFCURVE",
"95 403 CURVE SMOOTH",
"95 497 OFFCURVE",
"260 576 OFFCURVE",
"456 576 CURVE SMOOTH",
"801 576 OFFCURVE",
"885 358 OFFCURVE",
"885 358 CURVE",
"955 643 LINE",
"955 643 OFFCURVE",
"784 747 OFFCURVE",
"577 747 CURVE SMOOTH",
"241 747 OFFCURVE",
"10 556 OFFCURVE",
"10 269 CURVE SMOOTH",
"10 21 OFFCURVE",
"290 -26 OFFCURVE",
"437 -26 CURVE SMOOTH",
"686 -26 OFFCURVE",
"912 72 OFFCURVE",
"996 130 CURVE"
);
}
);
width = 1008;
},
{
associatedMasterId = "BA50C409-052E-472C-B8EA-E9BF3018781A";
layerId = "C8F874CD-FB4D-441A-90EE-A4E74480CAF1";
name = "Mar 17 18, 20:38";
paths = (
{
closed = 1;
nodes = (
"932 300 LINE",
"855 174 OFFCURVE",
"680 141 OFFCURVE",
"547 141 CURVE SMOOTH",
"445 141 OFFCURVE",
"95 147 OFFCURVE",
"95 403 CURVE SMOOTH",
"95 497 OFFCURVE",
"260 576 OFFCURVE",
"456 576 CURVE SMOOTH",
"801 576 OFFCURVE",
"858 361 OFFCURVE",
"858 361 CURVE",
"918 643 LINE",
"918 643 OFFCURVE",
"784 747 OFFCURVE",
"577 747 CURVE SMOOTH",
"241 747 OFFCURVE",
"20 556 OFFCURVE",
"20 269 CURVE SMOOTH",
"20 21 OFFCURVE",
"300 -26 OFFCURVE",
"447 -26 CURVE SMOOTH",
"806 -26 OFFCURVE",
"914 178 OFFCURVE",
"953 276 CURVE"
);
}
);
width = 1008;
},
{
associatedMasterId = "BA50C409-052E-472C-B8EA-E9BF3018781A";
layerId = "6BD620E5-BA94-456D-8D9C-4117A8EB8013";
name = "Mar 17 18, 20:56";
paths = (
{
closed = 1;
nodes = (
"932 340 LINE",
"852 224 OFFCURVE",
"671 161 OFFCURVE",
"517 161 CURVE SMOOTH",
"415 161 OFFCURVE",
"95 147 OFFCURVE",
"95 383 CURVE SMOOTH",
"95 497 OFFCURVE",
"260 566 OFFCURVE",
"466 566 CURVE SMOOTH",
"801 566 OFFCURVE",
"848 361 OFFCURVE",
"848 361 CURVE",
"909 653 LINE",
"909 653 OFFCURVE",
"784 747 OFFCURVE",
"587 747 CURVE SMOOTH",
"241 747 OFFCURVE",
"20 556 OFFCURVE",
"20 300 CURVE SMOOTH",
"20 7 OFFCURVE",
"340 -26 OFFCURVE",
"447 -26 CURVE SMOOTH",
"814 -26 OFFCURVE",
"911 213 OFFCURVE",
"953 316 CURVE"
);
}
);
width = 1008;
},
{
associatedMasterId = "BA50C409-052E-472C-B8EA-E9BF3018781A";
layerId = "E8D6E81D-633F-457E-AF8C-36B87CB7426E";
name = "Mar 17 18, 21:14";
paths = (
{
closed = 1;
nodes = (
"932 340 LINE",
"852 224 OFFCURVE",
"671 161 OFFCURVE",
"517 161 CURVE SMOOTH",
"415 161 OFFCURVE",
"95 147 OFFCURVE",
"95 383 CURVE SMOOTH",
"95 497 OFFCURVE",
"260 566 OFFCURVE",
"466 566 CURVE SMOOTH",
"801 566 OFFCURVE",
"848 361 OFFCURVE",
"848 361 CURVE",
"909 653 LINE",
"909 653 OFFCURVE",
"784 747 OFFCURVE",
"587 747 CURVE SMOOTH",
"241 747 OFFCURVE",
"20 556 OFFCURVE",
"20 300 CURVE SMOOTH",
"20 7 OFFCURVE",
"340 -26 OFFCURVE",
"447 -26 CURVE SMOOTH",
"814 -26 OFFCURVE",
"911 213 OFFCURVE",
"953 316 CURVE"
);
}
);
width = 1008;
},
{
associatedMasterId = "BA50C409-052E-472C-B8EA-E9BF3018781A";
layerId = "DFB238D1-FD7D-4742-BB6A-FA6A223837D9";
name = "Mar 17 18, 21:26";
paths = (
{
closed = 1;
nodes = (
"932 340 LINE",
"852 224 OFFCURVE",
"671 161 OFFCURVE",
"517 161 CURVE SMOOTH",
"415 161 OFFCURVE",
"148 264 OFFCURVE",
"148 500 CURVE SMOOTH",
"148 603 OFFCURVE",
"264 626 OFFCURVE",
"340 626 CURVE SMOOTH",
"552 626 OFFCURVE",
"848 361 OFFCURVE",
"848 361 CURVE",
"909 653 LINE",
"909 653 OFFCURVE",
"784 747 OFFCURVE",
"587 747 CURVE SMOOTH",
"241 747 OFFCURVE",
"20 584 OFFCURVE",
"20 328 CURVE SMOOTH",
"20 35 OFFCURVE",
"340 -26 OFFCURVE",
"447 -26 CURVE SMOOTH",
"814 -26 OFFCURVE",
"911 213 OFFCURVE",
"953 316 CURVE"
);
}
);
width = 1008;
},
{
associatedMasterId = "BA50C409-052E-472C-B8EA-E9BF3018781A";
layerId = "88215EE9-67FC-46FA-BE13-4751E2A2F1A1";
name = "Mar 17 18, 21:32";
paths = (
{
closed = 1;
nodes = (
"892 290 LINE",
"800 187 OFFCURVE",
"661 161 OFFCURVE",
"517 161 CURVE SMOOTH",
"326 161 OFFCURVE",
"148 235 OFFCURVE",
"148 435 CURVE SMOOTH",
"148 556 OFFCURVE",
"247 626 OFFCURVE",
"403 626 CURVE SMOOTH",
"655 626 OFFCURVE",
"848 361 OFFCURVE",
"848 361 CURVE",
"909 653 LINE",
"909 653 OFFCURVE",
"784 747 OFFCURVE",
"547 747 CURVE SMOOTH",
"241 747 OFFCURVE",
"20 584 OFFCURVE",
"20 328 CURVE SMOOTH",
"20 35 OFFCURVE",
"310 -26 OFFCURVE",
"427 -26 CURVE SMOOTH",
"774 -26 OFFCURVE",
"892 195 OFFCURVE",
"913 266 CURVE"
);
}
);
width = 1008;
},
{
associatedMasterId = "BA50C409-052E-472C-B8EA-E9BF3018781A";
layerId = "44B2207E-F0F8-4C57-9697-6B45880E0591";
name = "Mar 18 18, 11:02";
paths = (
{
closed = 1;
nodes = (
"892 290 LINE",
"800 187 OFFCURVE",
"701 143 OFFCURVE",
"547 143 CURVE SMOOTH",
"356 143 OFFCURVE",
"148 235 OFFCURVE",
"148 435 CURVE SMOOTH",
"148 556 OFFCURVE",
"247 626 OFFCURVE",
"403 626 CURVE SMOOTH",
"655 626 OFFCURVE",
"848 381 OFFCURVE",
"848 361 CURVE",
"901 639 LINE",
"901 639 OFFCURVE",
"784 747 OFFCURVE",
"517 747 CURVE SMOOTH",
"241 747 OFFCURVE",
"20 584 OFFCURVE",
"20 328 CURVE SMOOTH",
"20 35 OFFCURVE",
"310 -26 OFFCURVE",
"427 -26 CURVE SMOOTH",
"764 -26 OFFCURVE",
"892 195 OFFCURVE",
"913 266 CURVE"
);
}
);
width = 943;
},
{
associatedMasterId = "BA50C409-052E-472C-B8EA-E9BF3018781A";
layerId = "A823EC7D-AD26-4D98-AC4F-7572EE6AA01B";
name = "Mar 18 18, 12:47";
paths = (
{
closed = 1;
nodes = (
"892 290 LINE",
"800 187 OFFCURVE",
"701 143 OFFCURVE",
"547 143 CURVE SMOOTH",
"356 143 OFFCURVE",
"148 235 OFFCURVE",
"148 435 CURVE SMOOTH",
"148 556 OFFCURVE",
"247 626 OFFCURVE",
"383 626 CURVE SMOOTH",
"605 626 OFFCURVE",
"848 381 OFFCURVE",
"848 361 CURVE",
"901 639 LINE",
"901 639 OFFCURVE",
"784 747 OFFCURVE",
"517 747 CURVE SMOOTH",
"241 747 OFFCURVE",
"20 584 OFFCURVE",
"20 328 CURVE SMOOTH",
"20 35 OFFCURVE",
"310 -26 OFFCURVE",
"427 -26 CURVE SMOOTH",
"764 -26 OFFCURVE",
"892 195 OFFCURVE",
"913 266 CURVE"
);
}
);
width = 943;
},
{
associatedMasterId = "BA50C409-052E-472C-B8EA-E9BF3018781A";
layerId = "43B5CC79-24AA-4313-8620-B92C351DD1AC";
name = "Mar 18 18, 12:48";
paths = (
{
closed = 1;
nodes = (
"942 290 LINE",
"850 187 OFFCURVE",
"751 143 OFFCURVE",
"577 143 CURVE SMOOTH",
"366 143 OFFCURVE",
"158 235 OFFCURVE",
"158 435 CURVE SMOOTH",
"158 556 OFFCURVE",
"257 626 OFFCURVE",
"413 626 CURVE SMOOTH",
"655 626 OFFCURVE",
"898 381 OFFCURVE",
"898 361 CURVE",
"951 639 LINE",
"951 639 OFFCURVE",
"834 747 OFFCURVE",
"547 747 CURVE SMOOTH",
"251 747 OFFCURVE",
"30 584 OFFCURVE",
"30 328 CURVE SMOOTH",
"30 35 OFFCURVE",
"320 -26 OFFCURVE",
"457 -26 CURVE SMOOTH",
"814 -26 OFFCURVE",
"942 195 OFFCURVE",
"963 266 CURVE"
);
}
);
width = 993;
},
{
associatedMasterId = "0B0DCF06-F5B0-447D-A254-17124A94DF9D";
layerId = "1910DDC8-F348-42A8-8554-EB2302638200";
name = "Mar 25 18, 13:03";
paths = (
{
closed = 1;
nodes = (
"700 240 LINE",
"638 106 OFFCURVE",
"525 64 OFFCURVE",
"428 64 CURVE SMOOTH",
"297 64 OFFCURVE",
"170 192 OFFCURVE",
"170 383 CURVE SMOOTH",
"170 551 OFFCURVE",
"259 641 OFFCURVE",
"380 641 CURVE SMOOTH",
"512 641 OFFCURVE",
"605 589 OFFCURVE",
"647 394 CURVE",
"688 602 LINE",
"644 672 OFFCURVE",
"538 711 OFFCURVE",
"440 711 CURVE SMOOTH",
"280 711 OFFCURVE",
"60 536 OFFCURVE",
"60 319 CURVE SMOOTH",
"60 101 OFFCURVE",
"249 -6 OFFCURVE",
"390 -6 CURVE SMOOTH",
"501 -6 OFFCURVE",
"653 50 OFFCURVE",
"714 233 CURVE"
);
}
);
width = 784;
},
{
associatedMasterId = "BA50C409-052E-472C-B8EA-E9BF3018781A";
layerId = "AA59F9E5-C924-4D81-855E-1FC6C124ACDC";
name = "Oct 15 18, 14:33";
paths = (
{
closed = 1;
nodes = (
"1012 290 LINE",
"920 187 OFFCURVE",
"821 143 OFFCURVE",
"647 143 CURVE SMOOTH",
"441 143 OFFCURVE",
"228 235 OFFCURVE",
"228 435 CURVE SMOOTH",
"228 556 OFFCURVE",
"322 651 OFFCURVE",
"478 651 CURVE SMOOTH",
"730 651 OFFCURVE",
"968 381 OFFCURVE",
"968 361 CURVE",
"1021 639 LINE",
"1021 639 OFFCURVE",
"904 747 OFFCURVE",
"617 747 CURVE SMOOTH",
"321 747 OFFCURVE",
"100 584 OFFCURVE",
"100 328 CURVE SMOOTH",
"100 35 OFFCURVE",
"390 -26 OFFCURVE",
"527 -26 CURVE SMOOTH",
"884 -26 OFFCURVE",
"1008 201 OFFCURVE",
"1029 272 CURVE"
);
}
);
width = 1139;
},
{
associatedMasterId = "BA50C409-052E-472C-B8EA-E9BF3018781A";
layerId = "CA0C2701-4836-4AC6-84A2-223B9CB2AE3A";
name = "Oct 15 18, 18:05";
paths = (
{
closed = 1;
nodes = (
"1004 257 LINE",
"937 167 OFFCURVE",
"825 113 OFFCURVE",
"657 113 CURVE SMOOTH",
"451 113 OFFCURVE",
"228 265 OFFCURVE",
"228 455 CURVE SMOOTH",
"228 576 OFFCURVE",
"332 671 OFFCURVE",
"468 671 CURVE SMOOTH",
"740 671 OFFCURVE",
"964 401 OFFCURVE",
"964 401 CURVE",
"1013 643 LINE",
"1013 643 OFFCURVE",
"874 747 OFFCURVE",
"617 747 CURVE SMOOTH",
"321 747 OFFCURVE",
"100 584 OFFCURVE",
"100 328 CURVE SMOOTH",
"100 125 OFFCURVE",
"300 -26 OFFCURVE",
"547 -26 CURVE SMOOTH",
"800 -26 OFFCURVE",
"970 135 OFFCURVE",
"1022 226 CURVE"
);
}
);
width = 1139;
},
{
associatedMasterId = "BA50C409-052E-472C-B8EA-E9BF3018781A";
layerId = "8E3F5214-9D21-44AD-A3C5-3BA32819DFCB";
name = "Oct 21 18, 15:42";
paths = (
{
closed = 1;
nodes = (
"1004 257 LINE",
"937 167 OFFCURVE",
"825 113 OFFCURVE",
"657 113 CURVE SMOOTH",
"451 113 OFFCURVE",
"228 265 OFFCURVE",
"228 455 CURVE SMOOTH",
"228 576 OFFCURVE",
"332 671 OFFCURVE",
"468 671 CURVE SMOOTH",
"740 671 OFFCURVE",
"964 401 OFFCURVE",
"964 401 CURVE",
"1013 643 LINE",
"1013 643 OFFCURVE",
"874 747 OFFCURVE",
"617 747 CURVE SMOOTH",
"321 747 OFFCURVE",
"100 584 OFFCURVE",
"100 328 CURVE SMOOTH",
"100 125 OFFCURVE",
"300 -26 OFFCURVE",
"547 -26 CURVE SMOOTH",
"800 -26 OFFCURVE",
"970 135 OFFCURVE",
"1022 226 CURVE"
);
}
);
width = 1112;
},
{
associatedMasterId = "0B0DCF06-F5B0-447D-A254-17124A94DF9D";
layerId = "8FD8616F-E76B-4267-A7EB-BD25C6D363EC";
name = "Feb 12 19, 19:31";
paths = (
{
closed = 1;
nodes = (
"654 240 LINE",
"592 106 OFFCURVE",
"482 64 OFFCURVE",
"398 64 CURVE SMOOTH",
"266 64 OFFCURVE",
"147 192 OFFCURVE",
"147 383 CURVE SMOOTH",
"147 551 OFFCURVE",
"239 641 OFFCURVE",
"350 641 CURVE SMOOTH",
"466 641 OFFCURVE",
"565 589 OFFCURVE",
"607 394 CURVE",
"648 602 LINE",
"604 672 OFFCURVE",
"492 711 OFFCURVE",
"416 711 CURVE SMOOTH",
"260 711 OFFCURVE",
"40 536 OFFCURVE",
"40 319 CURVE SMOOTH",
"40 101 OFFCURVE",
"229 -6 OFFCURVE",
"361 -6 CURVE SMOOTH",
"487 -6 OFFCURVE",
"607 50 OFFCURVE",
"668 233 CURVE"
);
}
);
width = 718;
},
{
annotations = (
{
position = "{249, 388}";
text = RIFARE;
type = Text;
}
);
associatedMasterId = "0B0DCF06-F5B0-447D-A254-17124A94DF9D";
layerId = "5914E2E9-4B99-4B02-A217-6761E630AFAE";
name = "Feb 13 19, 21:19";
paths = (
{
closed = 1;
nodes = (
"650 611 LINE",
"579 686 OFFCURVE",
"499 711 OFFCURVE",
"406 711 CURVE SMOOTH",
"250 711 OFFCURVE",
"40 536 OFFCURVE",
"40 319 CURVE SMOOTH",
"40 101 OFFCURVE",
"229 -6 OFFCURVE",
"361 -6 CURVE SMOOTH",
"487 -6 OFFCURVE",
"607 50 OFFCURVE",
"668 233 CURVE",
"654 240 LINE",
"592 106 OFFCURVE",
"482 64 OFFCURVE",
"398 64 CURVE SMOOTH",
"266 64 OFFCURVE",
"147 192 OFFCURVE",
"147 383 CURVE SMOOTH",
"147 551 OFFCURVE",
"239 641 OFFCURVE",
"380 641 CURVE SMOOTH",
"450 641 OFFCURVE",
"540 620 OFFCURVE",
"623 488 CURVE"
);
}
);
width = 718;
},
{
annotations = (
{
position = "{249, 388}";
text = RIFARE;
type = Text;
}
);
associatedMasterId = "0B0DCF06-F5B0-447D-A254-17124A94DF9D";
layerId = "1DD2A653-5C01-47D2-B928-0F61CA8CBD03";
name = "Mar 18 19, 21:54";
paths = (
{
closed = 1;
nodes = (
"630 195 LINE",
"566 96 OFFCURVE",
"472 64 OFFCURVE",
"388 64 CURVE SMOOTH",
"266 64 OFFCURVE",
"147 192 OFFCURVE",
"147 373 CURVE SMOOTH",
"147 551 OFFCURVE",
"249 641 OFFCURVE",
"400 641 CURVE SMOOTH",
"480 641 OFFCURVE",
"574 598 OFFCURVE",
"615 518 CURVE",
"631 631 LINE",
"578 688 OFFCURVE",
"489 711 OFFCURVE",
"416 711 CURVE SMOOTH",
"230 711 OFFCURVE",
"40 536 OFFCURVE",
"40 319 CURVE SMOOTH",
"40 131 OFFCURVE",
"189 -6 OFFCURVE",
"354 -6 CURVE SMOOTH",
"478 -6 OFFCURVE",
"591 70 OFFCURVE",
"640 165 CURVE"
);
}
);
width = 718;
}
);
unicode = 0043;
},
{
glyphname = D;
lastChange = "2019-04-07 20:14:03 +0000";
layers = (
{
layerId = "0B0DCF06-F5B0-447D-A254-17124A94DF9D";
paths = (
{
closed = 1;
nodes = (
"184.034 0 LINE",
"184 -1 LINE",
"306 -1 LINE SMOOTH",
"577 -1 OFFCURVE",
"722 179 OFFCURVE",
"722 378 CURVE SMOOTH",
"722 582 OFFCURVE",
"539 700 OFFCURVE",
"325 700 CURVE SMOOTH",
"184 700 LINE",
"85 700 LINE SMOOTH",
"85 700 OFFCURVE",
"111 662 OFFCURVE",
"111 530 CURVE SMOOTH",
"106 169 LINE SMOOTH",
"106 38 OFFCURVE",
"80 0 OFFCURVE",
"80 0 CURVE"
);
},
{
closed = 1;
nodes = (
"200 571.195 OFFCURVE",
"202.532 603.234 OFFCURVE",
"206.016 627.821 CURVE",
"244.504 651.451 OFFCURVE",
"293.618 656.831 OFFCURVE",
"331 656 CURVE SMOOTH",
"458 656 OFFCURVE",
"615 559 OFFCURVE",
"615 345 CURVE SMOOTH",
"615 144 OFFCURVE",
"478 41 OFFCURVE",
"359 41 CURVE SMOOTH",
"278.172 41 OFFCURVE",
"230.28 52.339 OFFCURVE",
"206.198 91.282 CURVE",
"203.66 112.52 OFFCURVE",
"202 138.187 OFFCURVE",
"202 169 CURVE",
"200 530 LINE"
);
}
);
width = 762;
},
{
associatedMasterId = "0B0DCF06-F5B0-447D-A254-17124A94DF9D";
layerId = "DB8940C6-123B-4049-82DF-36C2934A52DC";
width = 600;
},
{
layerId = "BA50C409-052E-472C-B8EA-E9BF3018781A";
paths = (
{
closed = 1;
nodes = (
"110 700 OFFCURVE",
"140 668 OFFCURVE",
"140 531 CURVE",
"137 169 LINE",
"137 32 OFFCURVE",
"110 -1 OFFCURVE",
"110 -1 CURVE",
"387 -1 LINE",
"387 -1 OFFCURVE",
"360 32 OFFCURVE",
"360 169 CURVE",
"360 530 LINE",
"360 668 OFFCURVE",
"387 700 OFFCURVE",
"387 700 CURVE",
"110 700 LINE"
);
},
{
closed = 1;
nodes = (
"245 -1 LINE",
"245 -1 OFFCURVE",
"400 -1 OFFCURVE",
"536 -1 CURVE SMOOTH",
"894 -1 OFFCURVE",
"1088 201 OFFCURVE",
"1088 410 CURVE",
"1088 628 OFFCURVE",
"851 700 OFFCURVE",
"599 700 CURVE",
"442 700 OFFCURVE",
"363 700 OFFCURVE",
"213 700 CURVE",
"213 538 LINE",
"321 648 OFFCURVE",
"435 655 OFFCURVE",
"517 654 CURVE",
"694 654 OFFCURVE",
"858 561 OFFCURVE",
"858 337 CURVE SMOOTH",
"858 166 OFFCURVE",
"768 41 OFFCURVE",
"565 41 CURVE SMOOTH",
"404 41 OFFCURVE",
"342 100 OFFCURVE",
"275 160 CURVE"
);
}
);
width = 1148;
},
{
associatedMasterId = "BA50C409-052E-472C-B8EA-E9BF3018781A";
layerId = "CE860DF3-EA32-4ADE-B8CC-FFB2FF5539EF";
name = "Oct 6 18, 16:50";
paths = (
{
closed = 1;
nodes = (
"100 700 OFFCURVE",
"130 668 OFFCURVE",
"130 531 CURVE",
"127 169 LINE",
"127 32 OFFCURVE",
"100 -1 OFFCURVE",
"100 -1 CURVE",
"377 -1 LINE",
"377 -1 OFFCURVE",
"350 32 OFFCURVE",
"350 169 CURVE",
"350 530 LINE",
"350 668 OFFCURVE",
"377 700 OFFCURVE",
"377 700 CURVE",
"100 700 LINE"
);
},
{
closed = 1;
nodes = (
"235 -1 LINE",
"235 -1 OFFCURVE",
"390 -1 OFFCURVE",
"446 -1 CURVE",
"864 -1 OFFCURVE",
"1043 201 OFFCURVE",
"1043 395 CURVE",
"1043 542 OFFCURVE",
"881 700 OFFCURVE",
"589 700 CURVE",
"552 700 OFFCURVE",
"333 700 OFFCURVE",
"188 700 CURVE",
"177 527 LINE",
"291 648 OFFCURVE",
"428 672 OFFCURVE",
"502 671 CURVE",
"684 671 OFFCURVE",
"798 475 OFFCURVE",
"798 319 CURVE SMOOTH",
"798 209 OFFCURVE",
"718 60 OFFCURVE",
"535 60 CURVE",
"374 60 OFFCURVE",
"345 84 OFFCURVE",
"265 124 CURVE"
);
}
);
width = 1093;
},
{
associatedMasterId = "BA50C409-052E-472C-B8EA-E9BF3018781A";
layerId = "9F275865-A9B6-405C-8894-BF2B09CED8FB";
name = "Oct 6 18, 17:06";
paths = (
{
closed = 1;
nodes = (
"100 700 OFFCURVE",
"130 668 OFFCURVE",
"130 531 CURVE",
"127 169 LINE",
"127 32 OFFCURVE",
"100 -1 OFFCURVE",
"100 -1 CURVE",
"377 -1 LINE",
"377 -1 OFFCURVE",
"350 32 OFFCURVE",
"350 169 CURVE",
"350 530 LINE",
"350 668 OFFCURVE",
"377 700 OFFCURVE",
"377 700 CURVE",
"100 700 LINE"
);
},
{
closed = 1;
nodes = (
"235 -1 LINE",
"235 -1 OFFCURVE",
"390 -1 OFFCURVE",
"446 -1 CURVE",
"864 -1 OFFCURVE",
"1093 201 OFFCURVE",
"1093 400 CURVE",
"1093 628 OFFCURVE",
"841 700 OFFCURVE",
"629 700 CURVE",
"432 700 OFFCURVE",
"353 700 OFFCURVE",
"203 700 CURVE",
"203 497 LINE",
"311 618 OFFCURVE",
"428 660 OFFCURVE",
"527 659 CURVE",
"684 659 OFFCURVE",
"848 561 OFFCURVE",
"848 327 CURVE SMOOTH",
"848 166 OFFCURVE",
"718 60 OFFCURVE",
"535 60 CURVE",
"394 60 OFFCURVE",
"332 104 OFFCURVE",
"265 164 CURVE"
);
}
);
width = 1093;
},
{
associatedMasterId = "BA50C409-052E-472C-B8EA-E9BF3018781A";
layerId = "C53BBE80-A3F0-4D46-B5FA-DA5081E9E097";
name = "Oct 6 18, 20:15";
paths = (
{
closed = 1;
nodes = (
"100 700 OFFCURVE",
"130 668 OFFCURVE",
"130 531 CURVE",
"127 169 LINE",
"127 32 OFFCURVE",
"100 -1 OFFCURVE",
"100 -1 CURVE",
"377 -1 LINE",
"377 -1 OFFCURVE",
"350 32 OFFCURVE",
"350 169 CURVE",
"350 530 LINE",
"350 668 OFFCURVE",
"377 700 OFFCURVE",
"377 700 CURVE",
"100 700 LINE"
);
},
{
closed = 1;
nodes = (
"235 -1 LINE",
"235 -1 OFFCURVE",
"390 -1 OFFCURVE",
"526 -1 CURVE SMOOTH",
"864 -1 OFFCURVE",
"1093 201 OFFCURVE",
"1093 400 CURVE",
"1093 628 OFFCURVE",
"841 700 OFFCURVE",
"589 700 CURVE",
"432 700 OFFCURVE",
"353 700 OFFCURVE",
"203 700 CURVE",
"203 538 LINE",
"311 648 OFFCURVE",
"428 651 OFFCURVE",
"507 650 CURVE",
"684 650 OFFCURVE",
"848 561 OFFCURVE",
"848 327 CURVE SMOOTH",
"848 166 OFFCURVE",
"738 45 OFFCURVE",
"555 45 CURVE SMOOTH",
"394 45 OFFCURVE",
"332 104 OFFCURVE",
"265 164 CURVE"
);
}
);
width = 1093;
}
);
unicode = 0044;
},
{
glyphname = Dcroat;
lastChange = "2019-03-28 22:46:51 +0000";
layers = (
{
components = (
{
name = Eth;
}
);
layerId = "0B0DCF06-F5B0-447D-A254-17124A94DF9D";
paths = (
{
closed = 1;
nodes = (
"32 325 LINE",
"377 325 LINE",
"377 364 LINE",
"32 364 LINE"
);
},
{
closed = 1;
nodes = (
"95 700 OFFCURVE",
"121 662 OFFCURVE",
"121 530 CURVE",
"116 169 LINE",
"116 38 OFFCURVE",
"90 0 OFFCURVE",
"90 0 CURVE",
"242 0 LINE",
"242 0 OFFCURVE",
"212 38 OFFCURVE",
"212 169 CURVE",
"210 530 LINE",
"210 662 OFFCURVE",
"236 700 OFFCURVE",
"236 700 CURVE",
"95 700 LINE"
);
},
{
closed = 1;
nodes = (
"194 611 LINE",
"234 649 OFFCURVE",
"296 657 OFFCURVE",
"341 656 CURVE",
"468 656 OFFCURVE",
"625 559 OFFCURVE",
"625 345 CURVE SMOOTH",
"625 144 OFFCURVE",
"488 41 OFFCURVE",
"369 41 CURVE SMOOTH",
"259 41 OFFCURVE",
"210 62 OFFCURVE",
"199 145 CURVE",
"194 -1 LINE",
"234 -1 OFFCURVE",
"294 -1 OFFCURVE",
"316 -1 CURVE SMOOTH",
"587 -1 OFFCURVE",
"732 179 OFFCURVE",
"732 378 CURVE",
"732 582 OFFCURVE",
"549 700 OFFCURVE",
"335 700 CURVE",
"259 700 OFFCURVE",
"262 700 OFFCURVE",
"194 700 CURVE"
);
}
);
width = 600;
},
{
components = (
{
name = Eth;
}
);
layerId = "BA50C409-052E-472C-B8EA-E9BF3018781A";
width = 1088;
}
);
unicode = 0110;
},
{
glyphname = E;
lastChange = "2019-04-07 20:10:19 +0000";
layers = (
{
layerId = "0B0DCF06-F5B0-447D-A254-17124A94DF9D";
paths = (
{
closed = 1;
nodes = (
"652 -3 LINE",
"676 134 LINE",
"669 138 LINE",
"605.061 34.987 OFFCURVE",
"369.993 40.804 OFFCURVE",
"213.109 43.397 CURVE",
"207.297 69.69 OFFCURVE",
"202 109.872 OFFCURVE",
"202 169 CURVE",
"201.114 329 LINE",
"597 329 LINE",
"597 371 LINE",
"200.881 371 LINE",
"200 530 LINE",
"200 590.613 OFFCURVE",
"205.482 631.406 OFFCURVE",
"211.412 657.8 CURVE",
"344.07 660.418 OFFCURVE",
"576.65 663.453 OFFCURVE",
"639 563 CURVE",
"646 567 LINE",
"622 704 LINE",
"85 700 LINE",
"86 700 OFFCURVE",
"111 662 OFFCURVE",
"111 530 CURVE SMOOTH",
"106 169 LINE SMOOTH",
"106 38 OFFCURVE",
"80 0 OFFCURVE",
"80 0 CURVE"
);
}
);
width = 731;
},
{
associatedMasterId = "0B0DCF06-F5B0-447D-A254-17124A94DF9D";
layerId = "DB8940C6-123B-4049-82DF-36C2934A52DC";
width = 600;
},
{
layerId = "BA50C409-052E-472C-B8EA-E9BF3018781A";
paths = (
{
closed = 1;
nodes = (
"100 700 OFFCURVE",
"127 668 OFFCURVE",
"127 531 CURVE",
"124 169 LINE",
"124 32 OFFCURVE",
"100 0 OFFCURVE",
"100 0 CURVE",
"374 0 LINE",
"374 0 OFFCURVE",
"347 32 OFFCURVE",
"347 169 CURVE",
"347 530 LINE",
"347 668 OFFCURVE",
"374 700 OFFCURVE",
"374 700 CURVE",
"100 700 LINE"
);
},
{
closed = 0;
nodes = (
"942 347 LINE",
"942 393 LINE"
);
},
{
closed = 1;
nodes = (
"142 347 LINE",
"942 347 LINE",
"942 393 LINE",
"142 393 LINE"
);
},
{
closed = 1;
nodes = (
"1025 257 LINE",
"878 12 OFFCURVE",
"746 46 OFFCURVE",
"306 46 CURVE",
"346 0 LINE",
"1018 -4 LINE",
"1062 253 LINE"
);
},
{
closed = 1;
nodes = (
"978 700 LINE",
"319 700 LINE",
"273 654 LINE SMOOTH",
"703 654 OFFCURVE",
"841 677 OFFCURVE",
"985 442 CURVE",
"1022 446 LINE"
);
}
);
width = 1162;
},
{
associatedMasterId = "BA50C409-052E-472C-B8EA-E9BF3018781A";
layerId = "05B6D87E-E807-4760-AD86-583DB1AED6E8";
name = "Sep 11 18, 23:03";
paths = (
{
closed = 1;
nodes = (
"100 700 OFFCURVE",
"127 668 OFFCURVE",
"127 531 CURVE",
"124 169 LINE",
"124 32 OFFCURVE",
"100 0 OFFCURVE",
"100 0 CURVE",
"374 0 LINE",
"374 0 OFFCURVE",
"347 32 OFFCURVE",
"347 169 CURVE",
"347 530 LINE",
"347 668 OFFCURVE",
"374 700 OFFCURVE",
"374 700 CURVE",
"100 700 LINE"
);
},
{
closed = 0;
nodes = (
"932 347 LINE",
"932 393 LINE"
);
},
{
closed = 1;
nodes = (
"142 347 LINE",
"932 347 LINE",
"932 393 LINE",
"142 393 LINE"
);
},
{
closed = 1;
nodes = (
"958 703 LINE",
"316 699 LINE",
"276 666 LINE",
"706 666 OFFCURVE",
"833 708 OFFCURVE",
"985 442 CURVE",
"1002 446 LINE"
);
},
{
closed = 1;
nodes = (
"1025 257 LINE",
"873 -9 OFFCURVE",
"746 33 OFFCURVE",
"306 33 CURVE",
"346 0 LINE",
"998 -4 LINE",
"1042 253 LINE"
);
}
);
width = 1172;
}
);
unicode = 0045;
},
{
glyphname = F;
lastChange = "2019-04-07 17:46:21 +0000";
layers = (
{
layerId = "0B0DCF06-F5B0-447D-A254-17124A94DF9D";
paths = (
{
closed = 1;
nodes = (
"198 0 LINE",
"198 0 OFFCURVE",
"172 38 OFFCURVE",
"172 169 CURVE",
"171.058 339 LINE",
"567 339 LINE",
"567 381 LINE",
"170.825 381 LINE",
"170 530 LINE",
"170 590.613 OFFCURVE",
"175.482 631.406 OFFCURVE",
"181.412 657.8 CURVE",
"314.07 660.418 OFFCURVE",
"546.65 663.453 OFFCURVE",
"609 563 CURVE",
"616 567 LINE",
"592 704 LINE",
"55 700 LINE",
"56 700 OFFCURVE",
"81 662 OFFCURVE",
"81 530 CURVE SMOOTH",
"76 169 LINE SMOOTH",
"76 38 OFFCURVE",
"50 0 OFFCURVE",
"50 0 CURVE"
);
}
);
width = 600;
},
{
associatedMasterId = "0B0DCF06-F5B0-447D-A254-17124A94DF9D";
layerId = "DB8940C6-123B-4049-82DF-36C2934A52DC";
width = 600;
},
{
layerId = "BA50C409-052E-472C-B8EA-E9BF3018781A";
paths = (
{
closed = 1;
nodes = (
"100 700 OFFCURVE",
"127 668 OFFCURVE",
"127 531 CURVE",
"124 169 LINE",
"124 32 OFFCURVE",
"100 0 OFFCURVE",
"100 0 CURVE",
"374 0 LINE",
"374 0 OFFCURVE",
"347 32 OFFCURVE",
"347 169 CURVE",
"347 530 LINE",
"347 668 OFFCURVE",
"374 700 OFFCURVE",
"374 700 CURVE",
"100 700 LINE"
);
},
{
closed = 1;
nodes = (
"142 307 LINE",
"942 307 LINE",
"942 353 LINE",
"142 353 LINE"
);
},
{
closed = 1;
nodes = (
"978 700 LINE",
"319 700 LINE",
"273 654 LINE SMOOTH",
"703 654 OFFCURVE",
"841 677 OFFCURVE",
"985 442 CURVE",
"1022 446 LINE"
);
},
{
closed = 1;
nodes = (
"306 33 LINE",
"346 0 LINE"
);
}
);
width = 1082;
},
{
associatedMasterId = "BA50C409-052E-472C-B8EA-E9BF3018781A";
layerId = "AD170A98-ED54-4567-AD4D-474A63C9FBA1";
name = "Oct 5 18, 19:10";
paths = (
{
closed = 1;
nodes = (
"100 700 OFFCURVE",
"127 668 OFFCURVE",
"127 531 CURVE",
"124 169 LINE",
"124 32 OFFCURVE",
"100 0 OFFCURVE",
"100 0 CURVE",
"374 0 LINE",
"374 0 OFFCURVE",
"347 32 OFFCURVE",
"347 169 CURVE",
"347 530 LINE",
"347 668 OFFCURVE",
"374 700 OFFCURVE",
"374 700 CURVE",
"100 700 LINE"
);
},
{
closed = 0;
nodes = (
"942 307 LINE",
"942 353 LINE"
);
},
{
closed = 1;
nodes = (
"142 307 LINE",
"942 307 LINE",
"942 353 LINE",
"142 353 LINE"
);
},
{
closed = 1;
nodes = (
"978 703 LINE",
"316 699 LINE",
"276 666 LINE",
"706 666 OFFCURVE",
"833 708 OFFCURVE",
"985 442 CURVE",
"1022 446 LINE"
);
},
{
closed = 1;
nodes = (
"306 33 LINE",
"346 0 LINE"
);
}
);
width = 1162;
}
);
unicode = 0046;
},
{
glyphname = G;
lastChange = "2019-03-19 11:10:55 +0000";
layers = (
{
layerId = "0B0DCF06-F5B0-447D-A254-17124A94DF9D";
paths = (
{
closed = 1;
nodes = (
"65 118 OFFCURVE",
"248 -15 OFFCURVE",
"397 -15 CURVE SMOOTH",
"488 -15 OFFCURVE",
"593 23 OFFCURVE",
"649 133 CURVE",
"660 -3 LINE",
"703 -3 LINE",
"722 308 LINE",
"470 308 LINE",
"472 266 LINE",
"595 266 OFFCURVE",
"642 260 OFFCURVE",
"611 172 CURVE",
"565 80 OFFCURVE",
"494 51 OFFCURVE",
"416 51 CURVE SMOOTH",
"272 51 OFFCURVE",
"167 207 OFFCURVE",
"167 379 CURVE SMOOTH",
"167 533 OFFCURVE",
"256 648 OFFCURVE",
"410 648 CURVE SMOOTH",
"495 648 OFFCURVE",
"592 596 OFFCURVE",
"638 514 CURVE",
"672 628 LINE",
"613 682 OFFCURVE",
"536 712 OFFCURVE",
"433 712 CURVE SMOOTH",
"254 712 OFFCURVE",
"65 539 OFFCURVE",
"65 319 CURVE SMOOTH"
);
}
);
width = 777;
},
{
associatedMasterId = "0B0DCF06-F5B0-447D-A254-17124A94DF9D";
layerId = "DB8940C6-123B-4049-82DF-36C2934A52DC";
width = 600;
},
{
layerId = "BA50C409-052E-472C-B8EA-E9BF3018781A";
paths = (
{
closed = 1;
nodes = (
"974 257 LINE",
"907 166 OFFCURVE",
"822 113 OFFCURVE",
"587 113 CURVE SMOOTH",
"362 113 OFFCURVE",
"198 265 OFFCURVE",
"198 455 CURVE SMOOTH",
"198 576 OFFCURVE",
"302 671 OFFCURVE",
"438 671 CURVE SMOOTH",
"710 671 OFFCURVE",
"934 421 OFFCURVE",
"934 421 CURVE",
"983 643 LINE",
"983 643 OFFCURVE",
"844 747 OFFCURVE",
"587 747 CURVE SMOOTH",
"291 747 OFFCURVE",
"70 584 OFFCURVE",
"70 328 CURVE SMOOTH",
"70 125 OFFCURVE",
"270 -26 OFFCURVE",
"517 -26 CURVE SMOOTH",
"770 -26 OFFCURVE",
"940 135 OFFCURVE",
"992 226 CURVE"
);
},
{
closed = 1;
nodes = (
"1015 342 LINE",
"654 342 LINE",
"654 299 LINE",
"884 312 OFFCURVE",
"934 113 OFFCURVE",
"557 113 CURVE",
"803 75 LINE",
"930 200 LINE",
"957 -1 LINE",
"990 0 LINE"
);
}
);
width = 1095;
},
{
associatedMasterId = "BA50C409-052E-472C-B8EA-E9BF3018781A";
layerId = "D3A27B96-9480-4A03-A218-37AEEAF04376";
name = "Oct 6 18, 20:30";
paths = (
{
closed = 1;
nodes = (
"932 290 LINE",
"840 187 OFFCURVE",
"741 143 OFFCURVE",
"567 143 CURVE SMOOTH",
"361 143 OFFCURVE",
"148 235 OFFCURVE",
"148 435 CURVE SMOOTH",
"148 556 OFFCURVE",
"242 651 OFFCURVE",
"398 651 CURVE SMOOTH",
"650 651 OFFCURVE",
"888 381 OFFCURVE",
"888 361 CURVE",
"941 639 LINE",
"941 639 OFFCURVE",
"824 747 OFFCURVE",
"537 747 CURVE SMOOTH",
"241 747 OFFCURVE",
"20 584 OFFCURVE",
"20 328 CURVE SMOOTH",
"20 35 OFFCURVE",
"310 -26 OFFCURVE",
"447 -26 CURVE SMOOTH",
"804 -26 OFFCURVE",
"928 201 OFFCURVE",
"949 272 CURVE"
);
},
{
closed = 1;
nodes = (
"616 223 LINE",
"730 223 OFFCURVE",
"730 92 OFFCURVE",
"722 -7 CURVE",
"960 -7 LINE",
"922 48 OFFCURVE",
"943 199 OFFCURVE",
"964 302 CURVE",
"617 302 LINE"
);
}
);
width = 993;
},
{
associatedMasterId = "BA50C409-052E-472C-B8EA-E9BF3018781A";
layerId = "3F7FA305-7FC1-4171-A5F5-A8D401CFFBE3";
name = "Oct 7 18, 11:30";
paths = (
{
closed = 1;
nodes = (
"856 253 LINE",
"812 219 OFFCURVE",
"644 143 OFFCURVE",
"537 143 CURVE SMOOTH",
"361 143 OFFCURVE",
"148 235 OFFCURVE",
"148 435 CURVE SMOOTH",
"148 556 OFFCURVE",
"242 651 OFFCURVE",
"398 651 CURVE SMOOTH",
"650 651 OFFCURVE",
"888 381 OFFCURVE",
"888 361 CURVE",
"941 639 LINE",
"941 639 OFFCURVE",
"824 747 OFFCURVE",
"537 747 CURVE SMOOTH",
"241 747 OFFCURVE",
"20 584 OFFCURVE",
"20 328 CURVE SMOOTH",
"20 35 OFFCURVE",
"310 -26 OFFCURVE",
"447 -26 CURVE SMOOTH",
"579 -26 OFFCURVE",
"698 36 OFFCURVE",
"797 118 CURVE"
);
},
{
closed = 1;
nodes = (
"616 223 LINE",
"730 223 OFFCURVE",
"730 92 OFFCURVE",
"722 -7 CURVE",
"960 -7 LINE",
"922 48 OFFCURVE",
"943 199 OFFCURVE",
"964 302 CURVE",
"617 302 LINE"
);
}
);
width = 993;
},
{
associatedMasterId = "BA50C409-052E-472C-B8EA-E9BF3018781A";
layerId = "A8216501-9322-425B-B70E-18B2B592E52E";
name = "Oct 7 18, 12:21";
paths = (
{
closed = 1;
nodes = (
"856 253 LINE",
"812 219 OFFCURVE",
"644 143 OFFCURVE",
"537 143 CURVE SMOOTH",
"361 143 OFFCURVE",
"148 235 OFFCURVE",
"148 435 CURVE SMOOTH",
"148 556 OFFCURVE",
"242 651 OFFCURVE",
"398 651 CURVE SMOOTH",
"650 651 OFFCURVE",
"888 381 OFFCURVE",
"888 361 CURVE",
"941 639 LINE",
"941 639 OFFCURVE",
"824 747 OFFCURVE",
"537 747 CURVE SMOOTH",
"241 747 OFFCURVE",
"20 584 OFFCURVE",
"20 328 CURVE SMOOTH",
"20 35 OFFCURVE",
"310 -26 OFFCURVE",
"447 -26 CURVE SMOOTH",
"579 -26 OFFCURVE",
"698 36 OFFCURVE",
"797 118 CURVE"
);
},
{
closed = 1;
nodes = (
"536 213 LINE",
"770 213 OFFCURVE",
"730 92 OFFCURVE",
"722 -7 CURVE",
"960 -7 LINE",
"922 48 OFFCURVE",
"903 199 OFFCURVE",
"924 302 CURVE",
"617 302 LINE"
);
},
{
closed = 1;
nodes = (
"2042 290 LINE",
"1950 187 OFFCURVE",
"1851 143 OFFCURVE",
"1677 143 CURVE SMOOTH",
"1471 143 OFFCURVE",
"1258 235 OFFCURVE",
"1258 435 CURVE SMOOTH",
"1258 556 OFFCURVE",
"1352 651 OFFCURVE",
"1508 651 CURVE SMOOTH",
"1760 651 OFFCURVE",
"1998 381 OFFCURVE",
"1998 361 CURVE",
"2051 639 LINE",
"2051 639 OFFCURVE",
"1934 747 OFFCURVE",
"1647 747 CURVE SMOOTH",
"1351 747 OFFCURVE",
"1130 584 OFFCURVE",
"1130 328 CURVE SMOOTH",
"1130 35 OFFCURVE",
"1420 -26 OFFCURVE",
"1557 -26 CURVE SMOOTH",
"1914 -26 OFFCURVE",
"2031 201 OFFCURVE",
"2052 272 CURVE"
);
},
{
closed = 1;
nodes = (
"1853 19 OFFCURVE",
"1871 75 OFFCURVE",
"2035 -1 CURVE",
"2057 -1 LINE",
"2057 132 OFFCURVE",
"2050 235 OFFCURVE",
"2080 295 CURVE",
"1718 295 LINE",
"1716 272 LINE",
"1816 274 OFFCURVE",
"1824 208 OFFCURVE",
"1824 139 CURVE",
"1649 -18 LINE"
);
}
);
width = 2559;
},
{
associatedMasterId = "BA50C409-052E-472C-B8EA-E9BF3018781A";
layerId = "D9258697-FA87-4C48-869D-B987DB2A4B19";
name = "Oct 7 18, 12:25";
paths = (
{
closed = 1;
nodes = (
"1012 290 LINE",
"920 187 OFFCURVE",
"841 143 OFFCURVE",
"647 143 CURVE SMOOTH",
"441 143 OFFCURVE",
"228 235 OFFCURVE",
"228 435 CURVE SMOOTH",
"228 556 OFFCURVE",
"322 651 OFFCURVE",
"478 651 CURVE SMOOTH",
"730 651 OFFCURVE",
"968 381 OFFCURVE",
"968 361 CURVE",
"1021 639 LINE",
"1021 639 OFFCURVE",
"904 747 OFFCURVE",
"617 747 CURVE SMOOTH",
"321 747 OFFCURVE",
"100 584 OFFCURVE",
"100 328 CURVE SMOOTH",
"100 35 OFFCURVE",
"390 -26 OFFCURVE",
"527 -26 CURVE SMOOTH",
"884 -26 OFFCURVE",
"1001 201 OFFCURVE",
"1022 272 CURVE"
);
},
{
closed = 1;
nodes = (
"843 19 OFFCURVE",
"861 75 OFFCURVE",
"1025 -1 CURVE",
"1047 -1 LINE",
"1047 132 OFFCURVE",
"1040 235 OFFCURVE",
"1070 295 CURVE",
"708 295 LINE",
"706 272 LINE",
"806 274 OFFCURVE",
"814 208 OFFCURVE",
"814 139 CURVE",
"639 -18 LINE"
);
}
);
width = 1160;
},
{
associatedMasterId = "BA50C409-052E-472C-B8EA-E9BF3018781A";
layerId = "F0252A06-FD5E-4C1C-8F83-92CEA5B07EFF";
name = "Oct 7 18, 12:28";
paths = (
{
closed = 1;
nodes = (
"1012 290 LINE",
"920 187 OFFCURVE",
"841 143 OFFCURVE",
"647 143 CURVE SMOOTH",
"441 143 OFFCURVE",
"228 235 OFFCURVE",
"228 435 CURVE SMOOTH",
"228 556 OFFCURVE",
"322 651 OFFCURVE",
"478 651 CURVE SMOOTH",
"730 651 OFFCURVE",
"968 381 OFFCURVE",
"968 361 CURVE",
"1021 639 LINE",
"1021 639 OFFCURVE",
"904 747 OFFCURVE",
"617 747 CURVE SMOOTH",
"321 747 OFFCURVE",
"100 584 OFFCURVE",
"100 328 CURVE SMOOTH",
"100 35 OFFCURVE",
"390 -26 OFFCURVE",
"527 -26 CURVE SMOOTH",
"884 -26 OFFCURVE",
"1001 201 OFFCURVE",
"1022 272 CURVE"
);
},
{
closed = 1;
nodes = (
"929 89 OFFCURVE",
"929 100 OFFCURVE",
"1025 -1 CURVE",
"1047 -1 LINE",
"1047 132 OFFCURVE",
"1040 235 OFFCURVE",
"1070 295 CURVE",
"708 295 LINE",
"706 272 LINE",
"806 274 OFFCURVE",
"814 208 OFFCURVE",
"814 139 CURVE",
"841 55 LINE"
);
}
);
width = 1160;
},
{
associatedMasterId = "BA50C409-052E-472C-B8EA-E9BF3018781A";
layerId = "9DB9AAA1-A144-4C20-BDC1-146832C4A9FF";
name = "Oct 7 18, 12:32";
paths = (
{
closed = 1;
nodes = (
"986 219 LINE",
"926 188 OFFCURVE",
"758 123 OFFCURVE",
"647 123 CURVE SMOOTH",
"441 123 OFFCURVE",
"228 235 OFFCURVE",
"228 435 CURVE SMOOTH",
"228 556 OFFCURVE",
"322 651 OFFCURVE",
"478 651 CURVE SMOOTH",
"730 651 OFFCURVE",
"968 381 OFFCURVE",
"968 361 CURVE",
"1021 639 LINE",
"1021 639 OFFCURVE",
"904 747 OFFCURVE",
"617 747 CURVE SMOOTH",
"321 747 OFFCURVE",
"100 584 OFFCURVE",
"100 328 CURVE SMOOTH",
"100 35 OFFCURVE",
"390 -26 OFFCURVE",
"527 -26 CURVE SMOOTH",
"744 -26 OFFCURVE",
"881 68 OFFCURVE",
"944 139 CURVE"
);
},
{
closed = 1;
nodes = (
"929 89 OFFCURVE",
"929 100 OFFCURVE",
"1025 -1 CURVE",
"1047 -1 LINE",
"1047 132 OFFCURVE",
"1040 235 OFFCURVE",
"1070 295 CURVE",
"708 295 LINE",
"706 272 LINE",
"806 274 OFFCURVE",
"814 208 OFFCURVE",
"814 139 CURVE",
"841 55 LINE"
);
},
{
closed = 1;
nodes = (
"944 139 LINE"
);
}
);
width = 1160;
},
{
associatedMasterId = "BA50C409-052E-472C-B8EA-E9BF3018781A";
layerId = "2DD43608-9981-4849-91C6-449E3406F4F0";
name = "Oct 7 18, 12:33";
paths = (
{
closed = 1;
nodes = (
"1006 219 LINE",
"946 188 OFFCURVE",
"778 123 OFFCURVE",
"667 123 CURVE SMOOTH",
"461 123 OFFCURVE",
"228 235 OFFCURVE",
"228 435 CURVE SMOOTH",
"228 556 OFFCURVE",
"322 651 OFFCURVE",
"478 651 CURVE SMOOTH",
"750 651 OFFCURVE",
"988 381 OFFCURVE",
"988 361 CURVE",
"1041 639 LINE",
"1041 639 OFFCURVE",
"924 747 OFFCURVE",
"617 747 CURVE SMOOTH",
"321 747 OFFCURVE",
"100 584 OFFCURVE",
"100 328 CURVE SMOOTH",
"100 35 OFFCURVE",
"390 -26 OFFCURVE",
"527 -26 CURVE SMOOTH",
"764 -26 OFFCURVE",
"901 68 OFFCURVE",
"964 139 CURVE"
);
},
{
closed = 1;
nodes = (
"949 89 OFFCURVE",
"949 100 OFFCURVE",
"1045 -1 CURVE",
"1067 -1 LINE",
"1067 132 OFFCURVE",
"1060 235 OFFCURVE",
"1090 295 CURVE",
"728 295 LINE",
"726 272 LINE",
"826 274 OFFCURVE",
"834 208 OFFCURVE",
"834 139 CURVE",
"861 55 LINE"
);
},
{
closed = 1;
nodes = (
"964 139 LINE"
);
}
);
width = 1160;
},
{
associatedMasterId = "BA50C409-052E-472C-B8EA-E9BF3018781A";
layerId = "6867EB9E-C1EF-4D0E-88E4-7BB13E497F5F";
name = "Oct 7 18, 16:01";
paths = (
{
closed = 1;
nodes = (
"100 35 OFFCURVE",
"390 -26 OFFCURVE",
"527 -26 CURVE SMOOTH",
"675.274 -26 OFFCURVE",
"777 20 OFFCURVE",
"860.766 55.728 CURVE",
"948 92 OFFCURVE",
"997 49 OFFCURVE",
"1045 -1 CURVE",
"1067 -1 LINE",
"1067 132 OFFCURVE",
"1060 235 OFFCURVE",
"1090 295 CURVE",
"748 295 LINE",
"746 272 LINE",
"839 274 OFFCURVE",
"832.53 216.475 OFFCURVE",
"833.869 152.703 CURVE",
"776.628 135.776 OFFCURVE",
"716.212 123 OFFCURVE",
"667 123 CURVE SMOOTH",
"461 123 OFFCURVE",
"228 235 OFFCURVE",
"228 435 CURVE SMOOTH",
"228 556 OFFCURVE",
"322 651 OFFCURVE",
"478 651 CURVE SMOOTH",
"750 651 OFFCURVE",
"988 381 OFFCURVE",
"988 361 CURVE",
"1041 639 LINE",
"1041 639 OFFCURVE",
"924 747 OFFCURVE",
"617 747 CURVE SMOOTH",
"321 747 OFFCURVE",
"100 584 OFFCURVE",
"100 328 CURVE SMOOTH"
);
}
);
width = 1160;
},
{
associatedMasterId = "BA50C409-052E-472C-B8EA-E9BF3018781A";
layerId = "C5CA90A4-FCED-4B1A-A596-2EBC0C96DAA8";
name = "Oct 7 18, 16:32";
paths = (
{
closed = 1;
nodes = (
"1006 219 LINE",
"946 188 OFFCURVE",
"778 123 OFFCURVE",
"667 123 CURVE SMOOTH",
"461 123 OFFCURVE",
"228 235 OFFCURVE",
"228 435 CURVE SMOOTH",
"228 556 OFFCURVE",
"322 651 OFFCURVE",
"478 651 CURVE SMOOTH",
"750 651 OFFCURVE",
"988 381 OFFCURVE",
"988 361 CURVE",
"1041 639 LINE",
"1041 639 OFFCURVE",
"924 747 OFFCURVE",
"617 747 CURVE SMOOTH",
"321 747 OFFCURVE",
"100 584 OFFCURVE",
"100 328 CURVE SMOOTH",
"100 35 OFFCURVE",
"390 -26 OFFCURVE",
"527 -26 CURVE SMOOTH",
"764 -26 OFFCURVE",
"901 68 OFFCURVE",
"964 139 CURVE"
);
},
{
closed = 1;
nodes = (
"878 59 OFFCURVE",
"863 73 OFFCURVE",
"1045 -1 CURVE",
"1067 -1 LINE",
"1067 132 OFFCURVE",
"1060 235 OFFCURVE",
"1090 295 CURVE",
"728 295 LINE",
"726 272 LINE",
"826 274 OFFCURVE",
"912 223 OFFCURVE",
"826 150 CURVE",
"764 11 LINE"
);
},
{
closed = 1;
nodes = (
"964 139 LINE"
);
}
);
width = 1160;
},
{
associatedMasterId = "BA50C409-052E-472C-B8EA-E9BF3018781A";
layerId = "8E3AFFC3-9A77-4AA8-8F4B-32DC79995101";
name = "Oct 16 18, 21:38";
paths = (
{
closed = 1;
nodes = (
"1004 257 LINE",
"937 167 OFFCURVE",
"825 113 OFFCURVE",
"657 113 CURVE SMOOTH",
"451 113 OFFCURVE",
"228 265 OFFCURVE",
"228 455 CURVE SMOOTH",
"228 576 OFFCURVE",
"332 671 OFFCURVE",
"468 671 CURVE SMOOTH",
"740 671 OFFCURVE",
"964 401 OFFCURVE",
"964 401 CURVE",
"1013 643 LINE",
"1013 643 OFFCURVE",
"874 747 OFFCURVE",
"617 747 CURVE SMOOTH",
"321 747 OFFCURVE",
"100 584 OFFCURVE",
"100 328 CURVE SMOOTH",
"100 125 OFFCURVE",
"300 -26 OFFCURVE",
"547 -26 CURVE SMOOTH",
"800 -26 OFFCURVE",
"970 135 OFFCURVE",
"1022 226 CURVE"
);
},
{
closed = 1;
nodes = (
"1045 338 LINE",
"684 338 LINE",
"684 299 LINE",
"884 305 OFFCURVE",
"972 104 OFFCURVE",
"627 113 CURVE",
"884 113 LINE",
"947 184 LINE",
"977 -1 LINE",
"1012 0 LINE"
);
}
);
width = 1160;
},
{
associatedMasterId = "0B0DCF06-F5B0-447D-A254-17124A94DF9D";
layerId = "40E9B536-59D2-4B44-8B60-D217F8C15DA5";
name = "Mar 19 19, 12:02";
paths = (
{
closed = 1;
nodes = (
"650 611 LINE",
"579 686 OFFCURVE",
"499 711 OFFCURVE",
"406 711 CURVE SMOOTH",
"250 711 OFFCURVE",
"40 536 OFFCURVE",
"40 319 CURVE SMOOTH",
"40 101 OFFCURVE",
"229 -6 OFFCURVE",
"361 -6 CURVE SMOOTH",
"487 -6 OFFCURVE",
"607 50 OFFCURVE",
"668 233 CURVE",
"654 240 LINE",
"592 106 OFFCURVE",
"482 64 OFFCURVE",
"398 64 CURVE SMOOTH",
"266 64 OFFCURVE",
"147 192 OFFCURVE",
"147 383 CURVE SMOOTH",
"147 551 OFFCURVE",
"239 641 OFFCURVE",
"380 641 CURVE SMOOTH",
"450 641 OFFCURVE",
"540 620 OFFCURVE",
"623 488 CURVE"
);
},
{
closed = 1;
nodes = (
"697 286 LINE",
"467 286 LINE",
"467 251 LINE",
"644 277 OFFCURVE",
"611 73 OFFCURVE",
"398 64 CURVE",
"538 60 LINE",
"636 161 LINE",
"653 -1 LINE",
"676 0 LINE"
);
}
);
width = 747;
},
{
associatedMasterId = "0B0DCF06-F5B0-447D-A254-17124A94DF9D";
layerId = "F165AACD-9860-470A-9967-8281875EAEBA";
name = "Mar 19 19, 12:05";
paths = (
{
closed = 1;
nodes = (
"644 235 LINE",
"607 92 OFFCURVE",
"506 51 OFFCURVE",
"436 51 CURVE SMOOTH",
"272 51 OFFCURVE",
"167 207 OFFCURVE",
"167 379 CURVE SMOOTH",
"167 533 OFFCURVE",
"256 648 OFFCURVE",
"390 648 CURVE SMOOTH",
"475 648 OFFCURVE",
"572 596 OFFCURVE",
"618 514 CURVE",
"652 628 LINE",
"593 682 OFFCURVE",
"516 712 OFFCURVE",
"433 712 CURVE SMOOTH",
"254 712 OFFCURVE",
"65 539 OFFCURVE",
"65 319 CURVE SMOOTH",
"65 118 OFFCURVE",
"218 -15 OFFCURVE",
"393 -15 CURVE SMOOTH",
"487 -15 OFFCURVE",
"607 23 OFFCURVE",
"670 175 CURVE"
);
},
{
closed = 1;
nodes = (
"502 266 LINE",
"610 241 LINE",
"649 -3 LINE",
"695 -3 LINE",
"715 299 LINE",
"500 299 LINE"
);
}
);
width = 747;
}
);
unicode = 0047;
},
{
glyphname = H;
lastChange = "2019-04-07 17:46:29 +0000";
layers = (
{
layerId = "0B0DCF06-F5B0-447D-A254-17124A94DF9D";
paths = (
{
closed = 1;
nodes = (
"198 0 LINE",
"198 0 OFFCURVE",
"172 38 OFFCURVE",
"172 169 CURVE",
"171.114 329 LINE",
"608.216 329 LINE",
"606 169 LINE SMOOTH",
"606 38 OFFCURVE",
"580 0 OFFCURVE",
"580 0 CURVE",
"732 0 LINE",
"732 0 OFFCURVE",
"702 38 OFFCURVE",
"702 169 CURVE",
"700 530 LINE",
"700 662 OFFCURVE",
"726 700 OFFCURVE",
"726 700 CURVE SMOOTH",
"585 700 LINE SMOOTH",
"585 700 OFFCURVE",
"611 662 OFFCURVE",
"611 530 CURVE SMOOTH",
"608.798 371 LINE",
"170.881 371 LINE",
"170 530 LINE",
"170 662 OFFCURVE",
"196 700 OFFCURVE",
"196 700 CURVE SMOOTH",
"55 700 LINE",
"56 700 OFFCURVE",
"81 662 OFFCURVE",
"81 530 CURVE SMOOTH",
"76 169 LINE SMOOTH",
"76 38 OFFCURVE",
"50 0 OFFCURVE",
"50 0 CURVE"
);
}
);
width = 782;
},
{
associatedMasterId = "0B0DCF06-F5B0-447D-A254-17124A94DF9D";
layerId = "DB8940C6-123B-4049-82DF-36C2934A52DC";
width = 600;
},
{
layerId = "BA50C409-052E-472C-B8EA-E9BF3018781A";
paths = (
{
closed = 1;
nodes = (
"120 700 OFFCURVE",
"147 668 OFFCURVE",
"147 531 CURVE",
"144 169 LINE",
"144 32 OFFCURVE",
"120 0 OFFCURVE",
"120 0 CURVE",
"394 0 LINE",
"394 0 OFFCURVE",
"367 32 OFFCURVE",
"367 169 CURVE",
"367 530 LINE",
"367 668 OFFCURVE",
"394 700 OFFCURVE",
"394 700 CURVE",
"120 700 LINE"
);
},
{
closed = 1;
nodes = (
"162 347 LINE",
"1092 347 LINE",
"1092 393 LINE",
"162 393 LINE"
);
},
{
closed = 1;
nodes = (
"852 700 OFFCURVE",
"882 668 OFFCURVE",
"882 531 CURVE",
"879 169 LINE",
"879 32 OFFCURVE",
"852 0 OFFCURVE",
"852 0 CURVE",
"1129 0 LINE",
"1129 0 OFFCURVE",
"1102 32 OFFCURVE",
"1102 169 CURVE",
"1102 530 LINE",
"1102 668 OFFCURVE",
"1129 700 OFFCURVE",
"1129 700 CURVE",
"852 700 LINE"
);
}
);
width = 1249;
},
{
associatedMasterId = "0B0DCF06-F5B0-447D-A254-17124A94DF9D";
layerId = "9FF0D8CE-E5F7-453A-8542-845FDECD81D8";
name = "Mar 25 18, 13:10";
paths = (
{
closed = 1;
nodes = (
"74 700 OFFCURVE",
"99 662 OFFCURVE",
"99 530 CURVE",
"94 169 LINE",
"94 38 OFFCURVE",
"68 0 OFFCURVE",
"68 0 CURVE",
"222 0 LINE",
"222 0 OFFCURVE",
"196 38 OFFCURVE",
"196 169 CURVE",
"194 530 LINE",
"194 662 OFFCURVE",
"220 700 OFFCURVE",
"220 700 CURVE",
"73 700 LINE"
);
},
{
closed = 1;
nodes = (
"112 329 LINE",
"710 329 LINE",
"710 371 LINE",
"112 371 LINE"
);
},
{
closed = 1;
nodes = (
"597 700 OFFCURVE",
"623 662 OFFCURVE",
"623 530 CURVE",
"618 169 LINE",
"618 38 OFFCURVE",
"592 0 OFFCURVE",
"592 0 CURVE",
"750 0 LINE",
"750 0 OFFCURVE",
"720 38 OFFCURVE",
"720 169 CURVE",
"718 530 LINE",
"718 662 OFFCURVE",
"744 700 OFFCURVE",
"744 700 CURVE",
"597 700 LINE"
);
}
);
width = 818;
}
);
unicode = 0048;
},
{
glyphname = I;
lastChange = "2019-02-22 16:06:07 +0000";
layers = (
{
anchors = (
{
name = bottom;
position = "{156, 0}";
},
{
name = ogonek;
position = "{281, 10}";
},
{
name = top;
position = "{156, 768}";
},
{
name = topleft;
position = "{20, 700}";
}
);
layerId = "0B0DCF06-F5B0-447D-A254-17124A94DF9D";
paths = (
{
closed = 1;
nodes = (
"85 700 OFFCURVE",
"111 662 OFFCURVE",
"111 530 CURVE",
"106 169 LINE",
"106 38 OFFCURVE",
"80 0 OFFCURVE",
"80 0 CURVE",
"232 0 LINE",
"232 0 OFFCURVE",
"202 38 OFFCURVE",
"202 169 CURVE",
"200 530 LINE",
"200 662 OFFCURVE",
"226 700 OFFCURVE",
"226 700 CURVE",
"85 700 LINE"
);
}
);
width = 312;
},
{
associatedMasterId = "0B0DCF06-F5B0-447D-A254-17124A94DF9D";
layerId = "DB8940C6-123B-4049-82DF-36C2934A52DC";
width = 600;
},
{
layerId = "BA50C409-052E-472C-B8EA-E9BF3018781A";
paths = (
{
closed = 1;
nodes = (
"100 700 OFFCURVE",
"130 668 OFFCURVE",
"130 531 CURVE",
"127 169 LINE",
"127 32 OFFCURVE",
"100 0 OFFCURVE",
"100 0 CURVE",
"377 0 LINE",
"377 0 OFFCURVE",
"350 32 OFFCURVE",
"350 169 CURVE",
"350 530 LINE",
"350 668 OFFCURVE",
"377 700 OFFCURVE",
"377 700 CURVE",
"100 700 LINE"
);
}
);
width = 477;
},
{
anchors = (
{
name = bottom;
position = "{156, 0}";
},
{
name = ogonek;
position = "{281, 10}";
},
{
name = top;
position = "{156, 700}";
},
{
name = topleft;
position = "{20, 700}";
}
);
associatedMasterId = "0B0DCF06-F5B0-447D-A254-17124A94DF9D";
layerId = "58F5EE50-5CD6-46A9-A44D-CC4396390793";
name = "Feb 12 19, 18:33";
paths = (
{
closed = 1;
nodes = (
"85 700 OFFCURVE",
"111 662 OFFCURVE",
"111 530 CURVE",
"106 169 LINE",
"106 38 OFFCURVE",
"80 0 OFFCURVE",
"80 0 CURVE",
"232 0 LINE",
"232 0 OFFCURVE",
"202 38 OFFCURVE",
"202 169 CURVE",
"200 530 LINE",
"200 662 OFFCURVE",
"226 700 OFFCURVE",
"226 700 CURVE",
"85 700 LINE"
);
}
);
width = 312;
}
);
unicode = 0049;
},
{
glyphname = J;
lastChange = "2019-04-07 17:49:45 +0000";
layers = (
{
layerId = "0B0DCF06-F5B0-447D-A254-17124A94DF9D";
paths = (
{
closed = 1;
nodes = (
"111 -82 OFFCURVE",
"151 5 OFFCURVE",
"151 204 CURVE SMOOTH",
"155 530 LINE SMOOTH",
"155 662 OFFCURVE",
"129 700 OFFCURVE",
"129 700 CURVE",
"270 700 LINE",
"270 700 OFFCURVE",
"244 662 OFFCURVE",
"244 530 CURVE SMOOTH",
"245 154 LINE SMOOTH",
"245 -46 OFFCURVE",
"129 -92 OFFCURVE",
"41 -92 CURVE",
"40 -82 LINE"
);
}
);
width = 360;
},
{
associatedMasterId = "0B0DCF06-F5B0-447D-A254-17124A94DF9D";
layerId = "DB8940C6-123B-4049-82DF-36C2934A52DC";
width = 600;
},
{
layerId = "BA50C409-052E-472C-B8EA-E9BF3018781A";
paths = (
{
closed = 1;
nodes = (
"396 164 LINE",
"395 530 LINE",
"395 662 OFFCURVE",
"421 700 OFFCURVE",
"421 700 CURVE",
"149 700 LINE",
"149 700 OFFCURVE",
"175 662 OFFCURVE",
"175 530 CURVE",
"171 134 LINE"
);
},
{
closed = 1;
nodes = (
"-40 -89 LINE",
"99 -89 OFFCURVE",
"171 -6 OFFCURVE",
"171 134 CURVE",
"396 164 LINE",
"396 -66 OFFCURVE",
"119 -109 OFFCURVE",
"-39 -109 CURVE"
);
}
);
width = 521;
},
{
associatedMasterId = "BA50C409-052E-472C-B8EA-E9BF3018781A";
layerId = "53E31222-A7B0-47C7-B588-E991904D28D4";
name = "Oct 15 18, 11:57";
paths = (
{
closed = 1;
nodes = (
"396 154 LINE",
"395 530 LINE",
"395 662 OFFCURVE",
"421 700 OFFCURVE",
"421 700 CURVE",
"149 700 LINE",
"149 700 OFFCURVE",
"175 662 OFFCURVE",
"175 530 CURVE",
"171 204 LINE"
);
},
{
closed = 1;
nodes = (
"30 -72 LINE",
"147 -36 OFFCURVE",
"171 -16 OFFCURVE",
"171 204 CURVE",
"396 154 LINE",
"396 -46 OFFCURVE",
"119 -92 OFFCURVE",
"31 -92 CURVE"
);
}
);
width = 521;
}
);
unicode = 004A;
},
{
glyphname = K;
lastChange = "2019-04-07 17:49:49 +0000";
layers = (
{
layerId = "0B0DCF06-F5B0-447D-A254-17124A94DF9D";
paths = (
{
closed = 1;
nodes = (
"232 0 LINE",
"232 0 OFFCURVE",
"202 38 OFFCURVE",
"202 169 CURVE",
"201.094 332.513 LINE",
"543 0 LINE",
"690 0 LINE",
"690 6 LINE",
"632 44 OFFCURVE",
"595 82 OFFCURVE",
"557 120 CURVE SMOOTH",
"291.183 379.466 LINE",
"517 592 LINE SMOOTH",
"558 628 OFFCURVE",
"605 672 OFFCURVE",
"658 694 CURVE",
"658 701 LINE",
"547 701 LINE",
"200.86 374.795 LINE",
"200 530 LINE",
"200 662 OFFCURVE",
"226 700 OFFCURVE",
"226 700 CURVE SMOOTH",
"85 700 LINE SMOOTH",
"85 700 OFFCURVE",
"111 662 OFFCURVE",
"111 530 CURVE SMOOTH",
"106 169 LINE SMOOTH",
"106 38 OFFCURVE",
"80 0 OFFCURVE",
"80 0 CURVE"
);
}
);
width = 744;
},
{
associatedMasterId = "0B0DCF06-F5B0-447D-A254-17124A94DF9D";
layerId = "DB8940C6-123B-4049-82DF-36C2934A52DC";
width = 600;
},
{
layerId = "BA50C409-052E-472C-B8EA-E9BF3018781A";
paths = (
{
closed = 1;
nodes = (
"120 700 OFFCURVE",
"150 668 OFFCURVE",
"150 531 CURVE",
"147 169 LINE",
"147 32 OFFCURVE",
"120 0 OFFCURVE",
"120 0 CURVE",
"397 0 LINE",
"397 0 OFFCURVE",
"370 42 OFFCURVE",
"370 179 CURVE",
"370 530 LINE",
"370 668 OFFCURVE",
"397 700 OFFCURVE",
"397 700 CURVE",
"120 700 LINE"
);
},
{
closed = 1;
nodes = (
"1137 14 LINE",
"1034 20 OFFCURVE",
"711 336 OFFCURVE",
"587 456 CURVE SMOOTH",
"559 483 OFFCURVE",
"423 391 OFFCURVE",
"350 363 CURVE",
"351 340 LINE",
"459 356 OFFCURVE",
"753 32 OFFCURVE",
"753 -3 CURVE",
"1137 -2 LINE"
);
},
{
closed = 1;
nodes = (
"1075 702 LINE",
"909 700 LINE",
"909 700 OFFCURVE",
"533 456 OFFCURVE",
"350 373 CURVE",
"413 326 LINE",
"711 502 OFFCURVE",
"962 686 OFFCURVE",
"1075 686 CURVE"
);
}
);
width = 1187;
},
{
associatedMasterId = "BA50C409-052E-472C-B8EA-E9BF3018781A";
layerId = "D6CDF611-0F7C-478B-B431-F5E7A062C684";
name = "Oct 21 18, 17:56";
paths = (
{
closed = 1;
nodes = (
"100 700 OFFCURVE",
"130 668 OFFCURVE",
"130 531 CURVE",
"127 169 LINE",
"127 32 OFFCURVE",
"100 0 OFFCURVE",
"100 0 CURVE",
"377 0 LINE",
"377 0 OFFCURVE",
"350 32 OFFCURVE",
"350 169 CURVE",
"350 530 LINE",
"350 668 OFFCURVE",
"377 700 OFFCURVE",
"377 700 CURVE",
"100 700 LINE"
);
},
{
closed = 1;
nodes = (
"1203 13 LINE",
"1081 44 OFFCURVE",
"786 308 OFFCURVE",
"573 477 CURVE",
"331 370 LINE",
"541 241 OFFCURVE",
"793 32 OFFCURVE",
"793 -3 CURVE",
"1203 -2 LINE"
);
},
{
closed = 1;
nodes = (
"1120 700 LINE",
"988 700 LINE",
"988 700 OFFCURVE",
"543 466 OFFCURVE",
"360 383 CURVE",
"430 344 LINE",
"725 505 OFFCURVE",
"1004 659 OFFCURVE",
"1120 686 CURVE"
);
}
);
width = 1241;
},
{
associatedMasterId = "BA50C409-052E-472C-B8EA-E9BF3018781A";
layerId = "F08A1FD6-39BA-42DD-8D45-251A2881D4E1";
name = "Oct 21 18, 18:02";
paths = (
{
closed = 1;
nodes = (
"100 700 OFFCURVE",
"130 668 OFFCURVE",
"130 531 CURVE",
"127 169 LINE",
"127 32 OFFCURVE",
"100 0 OFFCURVE",
"100 0 CURVE",
"377 0 LINE",
"377 0 OFFCURVE",
"350 32 OFFCURVE",
"350 169 CURVE",
"350 530 LINE",
"350 668 OFFCURVE",
"377 700 OFFCURVE",
"377 700 CURVE",
"100 700 LINE"
);
},
{
closed = 1;
nodes = (
"1187 14 LINE",
"1084 20 OFFCURVE",
"756 308 OFFCURVE",
"543 477 CURVE",
"331 370 LINE",
"541 241 OFFCURVE",
"783 32 OFFCURVE",
"783 -3 CURVE",
"1187 -2 LINE"
);
},
{
closed = 1;
nodes = (
"1100 700 LINE",
"958 700 LINE",
"958 700 OFFCURVE",
"513 466 OFFCURVE",
"330 383 CURVE",
"400 344 LINE",
"624 466 OFFCURVE",
"823 581 OFFCURVE",
"973 644 CURVE SMOOTH",
"1020 664 OFFCURVE",
"1063 678 OFFCURVE",
"1100 686 CURVE"
);
}
);
width = 1241;
}
);
unicode = 004B;
},
{
glyphname = L;
lastChange = "2019-04-07 20:10:37 +0000";
layers = (
{
layerId = "0B0DCF06-F5B0-447D-A254-17124A94DF9D";
paths = (
{
closed = 1;
nodes = (
"144 0 LINE",
"543 -4 LINE",
"587 148 LINE",
"580 152 LINE",
"488.376 48.923 OFFCURVE",
"301.72 39.54 OFFCURVE",
"176.613 39.543 CURVE",
"174.247 65.704 OFFCURVE",
"172 106.904 OFFCURVE",
"172 169 CURVE",
"170 530 LINE",
"170 662 OFFCURVE",
"196 700 OFFCURVE",
"196 700 CURVE SMOOTH",
"55 700 LINE SMOOTH",
"55 700 OFFCURVE",
"81 662 OFFCURVE",
"81 530 CURVE SMOOTH",
"76 169 LINE SMOOTH",
"76 38 OFFCURVE",
"50 0 OFFCURVE",
"50 0 CURVE"
);
}
);
width = 613;
},
{
associatedMasterId = "0B0DCF06-F5B0-447D-A254-17124A94DF9D";
layerId = "DB8940C6-123B-4049-82DF-36C2934A52DC";
width = 600;
},
{
layerId = "BA50C409-052E-472C-B8EA-E9BF3018781A";
paths = (
{
closed = 1;
nodes = (
"100 700 OFFCURVE",
"130 668 OFFCURVE",
"130 531 CURVE",
"127 169 LINE",
"127 32 OFFCURVE",
"100 0 OFFCURVE",
"100 0 CURVE",
"377 0 LINE",
"377 0 OFFCURVE",
"350 32 OFFCURVE",
"350 169 CURVE",
"350 530 LINE",
"350 668 OFFCURVE",
"377 700 OFFCURVE",
"377 700 CURVE",
"100 700 LINE"
);
},
{
closed = 1;
nodes = (
"898 244 LINE",
"786 81 OFFCURVE",
"506 46 OFFCURVE",
"284 46 CURVE",
"324 0 LINE",
"873 -4 LINE",
"917 228 LINE"
);
}
);
width = 952;
}
);
unicode = 004C;
},
{
glyphname = M;
lastChange = "2019-04-07 17:50:03 +0000";
layers = (
{
layerId = "0B0DCF06-F5B0-447D-A254-17124A94DF9D";
paths = (
{
closed = 1;
nodes = (
"172 0 LINE",
"163.505 38.614 OFFCURVE",
"168.131 114.207 OFFCURVE",
"170.678 146.632 CURVE SMOOTH",
"216.413 548.717 LINE",
"446 1 LINE",
"475 1 LINE",
"677.142 532.192 LINE",
"685.46 488.55 LINE",
"729.209 194.51 LINE",
"728 194 LINE",
"736 150 OFFCURVE",
"745 46 OFFCURVE",
"735 0 CURVE",
"874 0 LINE",
"841.927 96.219 OFFCURVE",
"829.691 174.491 OFFCURVE",
"818.93 227.47 CURVE",
"796.446 369.257 LINE",
"797 369 LINE",
"792.115 396.571 LINE",
"769.768 537.497 LINE SMOOTH",
"763.144 589.747 OFFCURVE",
"759.51 639.777 OFFCURVE",
"759 701 CURVE",
"621 700 LINE",
"636.326 679.067 OFFCURVE",
"649.137 644.719 OFFCURVE",
"659.851 605.889 CURVE",
"480.852 152.424 LINE",
"346.322 474.314 LINE SMOOTH",
"315 549 OFFCURVE",
"284 622 OFFCURVE",
"263 700 CURVE",
"124 700 LINE",
"151.135 668.989 OFFCURVE",
"171.217 638.59 OFFCURVE",
"188.321 607.447 CURVE",
"111.63 143.082 LINE",
"101.836 97.003 OFFCURVE",
"84.335 20.559 OFFCURVE",
"72 0 CURVE"
);
}
);
width = 944;
},
{
associatedMasterId = "0B0DCF06-F5B0-447D-A254-17124A94DF9D";
layerId = "DB8940C6-123B-4049-82DF-36C2934A52DC";
width = 600;
},
{
layerId = "BA50C409-052E-472C-B8EA-E9BF3018781A";
paths = (
{
closed = 1;
nodes = (
"1318 0 LINE",
"1055 700 LINE",
"833 700 LINE",
"1076 0 LINE"
);
},
{
closed = 1;
nodes = (
"164 0 LINE",
"330 558 LINE",
"282 644 LINE",
"75 0 LINE"
);
},
{
closed = 1;
nodes = (
"720 241 LINE",
"468 700 LINE",
"246 700 LINE",
"632 1 LINE"
);
},
{
closed = 1;
nodes = (
"888 561 LINE",
"863 639 LINE",
"595 67 LINE",
"632 1 LINE",
"661 1 LINE"
);
},
{
closed = 1;
nodes = (
"126 158 OFFCURVE",
"89 46 OFFCURVE",
"62 -1 CURVE",
"188 0 LINE",
"181 46 OFFCURVE",
"199 110 OFFCURVE",
"212 165 CURVE",
"137 190 LINE"
);
},
{
closed = 1;
nodes = (
"1029 142 OFFCURVE",
"1058 54 OFFCURVE",
"1057 0 CURVE",
"1347 0 LINE",
"1283 85 OFFCURVE",
"1237 217 OFFCURVE",
"1201 311 CURVE",
"999 226 LINE"
);
},
{
closed = 1;
nodes = (
"300 594 OFFCURVE",
"344 517 OFFCURVE",
"409 406 CURVE",
"554 543 LINE",
"527 596 OFFCURVE",
"505 641 OFFCURVE",
"480 700 CURVE",
"205 700 LINE"
);
},
{
closed = 1;
nodes = (
"1151 443 LINE",
"1116 538 OFFCURVE",
"1095 591 OFFCURVE",
"1072 700 CURVE",
"796 700 LINE",
"834 645 OFFCURVE",
"889 538 OFFCURVE",
"946 376 CURVE"
);
}
);
width = 1367;
},
{
associatedMasterId = "BA50C409-052E-472C-B8EA-E9BF3018781A";
layerId = "12F34A8A-37B9-4EF0-9309-2AD139E84A01";
name = "Oct 11 18, 22:36";
paths = (
{
closed = 1;
nodes = (
"1220 0 LINE",
"1004 700 LINE",
"764 700 LINE",
"978 1 LINE",
"978 0 LINE"
);
},
{
closed = 1;
nodes = (
"970 1033 OFFCURVE",
"993 881 OFFCURVE",
"1006 804 CURVE",
"1255 758 LINE",
"1231 893 OFFCURVE",
"1218 970 OFFCURVE",
"1217 1090 CURVE",
"929 1089 LINE"
);
},
{
closed = 1;
nodes = (
"1100 -413 LINE",
"1108 -457 OFFCURVE",
"1117 -561 OFFCURVE",
"1107 -607 CURVE",
"1401 -607 LINE",
"1363 -508 OFFCURVE",
"1351 -428 OFFCURVE",
"1340 -375 CURVE"
);
},
{
closed = 1;
nodes = (
"124 0 LINE",
"266 633 LINE",
"237 660 LINE",
"58 0 LINE"
);
},
{
closed = 1;
nodes = (
"664 237 LINE",
"431 700 LINE",
"193 700 LINE",
"556 1 LINE"
);
},
{
closed = 1;
nodes = (
"861 700 LINE",
"817 700 LINE",
"552 54 LINE",
"556 1 LINE",
"585 1 LINE"
);
},
{
closed = 1;
nodes = (
"-344 644 OFFCURVE",
"-280 560 OFFCURVE",
"-253 500 CURVE",
"-18 500 LINE",
"-63 590 OFFCURVE",
"-94 635 OFFCURVE",
"-94 700 CURVE SMOOTH",
"-94 700 OFFCURVE",
"-164 700 OFFCURVE",
"-393 700 CURVE"
);
},
{
closed = 1;
nodes = (
"-148 179 LINE",
"-148 179 OFFCURVE",
"-177 30 OFFCURVE",
"-207 0 CURVE",
"-95 0 LINE",
"-106 50 OFFCURVE",
"-95 162 OFFCURVE",
"-95 162 CURVE"
);
}
);
width = 1219;
},
{
associatedMasterId = "BA50C409-052E-472C-B8EA-E9BF3018781A";
layerId = "9DAB25FA-784E-418B-B865-8BE6CACF1DD1";
name = "Oct 11 18, 22:49";
paths = (
{
closed = 1;
nodes = (
"1220 0 LINE",
"1004 700 LINE",
"764 700 LINE",
"978 1 LINE",
"978 0 LINE"
);
},
{
closed = 1;
nodes = (
"773 635 OFFCURVE",
"804 570 OFFCURVE",
"870 354 CURVE",
"1105 372 LINE",
"1069 487 OFFCURVE",
"1026 612 OFFCURVE",
"1026 700 CURVE",
"714 700 LINE"
);
},
{
closed = 1;
nodes = (
"887 300 LINE",
"926 181 OFFCURVE",
"950 54 OFFCURVE",
"945 0 CURVE",
"1244 0 LINE",
"1206 59 OFFCURVE",
"1152 214 OFFCURVE",
"1135 278 CURVE"
);
},
{
closed = 1;
nodes = (
"124 0 LINE",
"266 633 LINE",
"237 660 LINE",
"58 0 LINE"
);
},
{
closed = 1;
nodes = (
"664 237 LINE",
"431 700 LINE",
"193 700 LINE",
"556 1 LINE"
);
},
{
closed = 1;
nodes = (
"861 700 LINE",
"817 700 LINE",
"552 54 LINE",
"556 1 LINE",
"585 1 LINE"
);
},
{
closed = 1;
nodes = (
"197 661 OFFCURVE",
"282 530 OFFCURVE",
"364 370 CURVE",
"597 370 LINE",
"526 513 OFFCURVE",
"478 586 OFFCURVE",
"453 700 CURVE SMOOTH",
"453 700 OFFCURVE",
"377 700 OFFCURVE",
"148 700 CURVE"
);
},
{
closed = 1;
nodes = (
"107 179 LINE",
"107 179 OFFCURVE",
"66 30 OFFCURVE",
"36 0 CURVE",
"148 0 LINE",
"137 50 OFFCURVE",
"160 162 OFFCURVE",
"160 162 CURVE"
);
}
);
width = 1219;
},
{
associatedMasterId = "BA50C409-052E-472C-B8EA-E9BF3018781A";
layerId = "BE916DE9-424B-4A0F-ABBF-F183CB3A62DA";
name = "Oct 11 18, 22:55";
paths = (
{
closed = 1;
nodes = (
"1219 0 LINE",
"1004 700 LINE",
"764 700 LINE",
"977 1 LINE",
"977 0 LINE"
);
},
{
closed = 1;
nodes = (
"773 635 OFFCURVE",
"808 570 OFFCURVE",
"873 354 CURVE",
"1102 372 LINE",
"1053 530 OFFCURVE",
"1041 586 OFFCURVE",
"1024 700 CURVE",
"714 700 LINE"
);
},
{
closed = 1;
nodes = (
"887 302 LINE",
"928 179 OFFCURVE",
"958 74 OFFCURVE",
"960 0 CURVE",
"1235 0 LINE",
"1211 59 OFFCURVE",
"1150 216 OFFCURVE",
"1133 280 CURVE"
);
},
{
closed = 1;
nodes = (
"109 0 LINE",
"266 633 LINE",
"237 660 LINE",
"43 0 LINE"
);
},
{
closed = 1;
nodes = (
"654 237 LINE",
"431 700 LINE",
"193 700 LINE",
"546 1 LINE"
);
},
{
closed = 1;
nodes = (
"861 700 LINE",
"817 700 LINE",
"542 54 LINE",
"546 1 LINE",
"575 1 LINE"
);
},
{
closed = 1;
nodes = (
"197 661 OFFCURVE",
"282 530 OFFCURVE",
"364 370 CURVE",
"589 370 LINE",
"523 513 OFFCURVE",
"470 609 OFFCURVE",
"453 700 CURVE SMOOTH",
"453 700 OFFCURVE",
"377 700 OFFCURVE",
"148 700 CURVE"
);
},
{
closed = 1;
nodes = (
"96 179 LINE",
"96 179 OFFCURVE",
"51 30 OFFCURVE",
"21 0 CURVE",
"133 0 LINE",
"122 50 OFFCURVE",
"149 162 OFFCURVE",
"149 162 CURVE"
);
}
);
width = 1219;
},
{
associatedMasterId = "BA50C409-052E-472C-B8EA-E9BF3018781A";
layerId = "0BF991C6-C023-43DC-8517-4F454B67D508";
name = "Oct 15 18, 11:22";
paths = (
{
closed = 1;
nodes = (
"1275 0 LINE",
"1033 700 LINE",
"793 700 LINE",
"1033 1 LINE",
"1033 0 LINE"
);
},
{
closed = 1;
nodes = (
"802 635 OFFCURVE",
"843 570 OFFCURVE",
"912 354 CURVE",
"1146 372 LINE",
"1097 530 OFFCURVE",
"1070 586 OFFCURVE",
"1053 700 CURVE",
"743 700 LINE"
);
},
{
closed = 1;
nodes = (
"931 302 LINE",
"972 170 OFFCURVE",
"1014 74 OFFCURVE",
"1016 0 CURVE",
"1291 0 LINE",
"1261 61 OFFCURVE",
"1199 216 OFFCURVE",
"1178 280 CURVE"
);
},
{
closed = 1;
nodes = (
"118 0 LINE",
"275 633 LINE",
"246 660 LINE",
"52 0 LINE"
);
},
{
closed = 1;
nodes = (
"687 237 LINE",
"440 700 LINE",
"202 700 LINE",
"583 1 LINE"
);
},
{
closed = 1;
nodes = (
"890 700 LINE",
"846 700 LINE",
"575 54 LINE",
"583 1 LINE",
"612 1 LINE"
);
},
{
closed = 1;
nodes = (
"206 661 OFFCURVE",
"300 530 OFFCURVE",
"382 370 CURVE",
"616 370 LINE",
"523 538 OFFCURVE",
"493 599 OFFCURVE",
"462 700 CURVE SMOOTH",
"462 700 OFFCURVE",
"386 700 OFFCURVE",
"157 700 CURVE"
);
},
{
closed = 1;
nodes = (
"105 179 LINE",
"105 179 OFFCURVE",
"60 30 OFFCURVE",
"30 0 CURVE",
"142 0 LINE",
"131 50 OFFCURVE",
"158 162 OFFCURVE",
"158 162 CURVE"
);
}
);
width = 1248;
},
{
associatedMasterId = "BA50C409-052E-472C-B8EA-E9BF3018781A";
layerId = "A3619175-7727-4ECF-B055-DF460A370FB1";
name = "Oct 21 18, 14:37";
paths = (
{
closed = 1;
nodes = (
"1275 0 LINE",
"1033 700 LINE",
"793 700 LINE",
"1033 1 LINE",
"1033 0 LINE"
);
},
{
closed = 1;
nodes = (
"802 635 OFFCURVE",
"843 570 OFFCURVE",
"912 354 CURVE",
"1146 372 LINE",
"1097 530 OFFCURVE",
"1070 586 OFFCURVE",
"1053 700 CURVE",
"743 700 LINE"
);
},
{
closed = 1;
nodes = (
"931 302 LINE",
"972 170 OFFCURVE",
"1014 74 OFFCURVE",
"1016 0 CURVE",
"1297 0 LINE",
"1247 61 OFFCURVE",
"1199 216 OFFCURVE",
"1178 280 CURVE"
);
},
{
closed = 1;
nodes = (
"138 0 LINE",
"281 633 LINE",
"233 668 LINE",
"52 0 LINE"
);
},
{
closed = 1;
nodes = (
"687 237 LINE",
"440 700 LINE",
"202 700 LINE",
"593 1 LINE"
);
},
{
closed = 1;
nodes = (
"887 700 LINE",
"832 700 LINE",
"564 72 LINE",
"593 1 LINE",
"622 1 LINE"
);
},
{
closed = 1;
nodes = (
"206 661 OFFCURVE",
"305 530 OFFCURVE",
"387 370 CURVE",
"616 370 LINE",
"523 538 OFFCURVE",
"493 599 OFFCURVE",
"462 700 CURVE SMOOTH",
"462 700 OFFCURVE",
"386 700 OFFCURVE",
"157 700 CURVE"
);
},
{
closed = 1;
nodes = (
"101 179 LINE",
"101 179 OFFCURVE",
"60 30 OFFCURVE",
"30 0 CURVE",
"162 0 LINE",
"151 50 OFFCURVE",
"174 162 OFFCURVE",
"174 162 CURVE"
);
}
);
width = 1321;
},
{
associatedMasterId = "BA50C409-052E-472C-B8EA-E9BF3018781A";
layerId = "E3127AD2-CF42-478E-9F64-75BF4ACECD34";
name = "Oct 21 18, 21:51";
paths = (
{
closed = 1;
nodes = (
"1275 0 LINE",
"1033 700 LINE",
"793 700 LINE",
"1033 1 LINE",
"1033 0 LINE"
);
},
{
closed = 1;
nodes = (
"802 635 OFFCURVE",
"843 570 OFFCURVE",
"912 354 CURVE",
"1146 372 LINE",
"1097 530 OFFCURVE",
"1070 586 OFFCURVE",
"1053 700 CURVE",
"743 700 LINE"
);
},
{
closed = 1;
nodes = (
"931 302 LINE",
"972 170 OFFCURVE",
"1014 74 OFFCURVE",
"1016 0 CURVE",
"1297 0 LINE",
"1247 61 OFFCURVE",
"1199 216 OFFCURVE",
"1178 280 CURVE"
);
},
{
closed = 1;
nodes = (
"138 0 LINE",
"289 633 LINE",
"241 668 LINE",
"52 0 LINE"
);
},
{
closed = 1;
nodes = (
"676 237 LINE",
"440 700 LINE",
"202 700 LINE",
"582 1 LINE"
);
},
{
closed = 1;
nodes = (
"887 700 LINE",
"832 700 LINE",
"553 72 LINE",
"582 1 LINE",
"611 1 LINE"
);
},
{
closed = 1;
nodes = (
"206 661 OFFCURVE",
"297 530 OFFCURVE",
"379 370 CURVE SMOOTH",
"608 370 LINE SMOOTH",
"515 538 OFFCURVE",
"493 599 OFFCURVE",
"462 700 CURVE SMOOTH",
"462 700 OFFCURVE",
"386 700 OFFCURVE",
"157 700 CURVE"
);
},
{
closed = 1;
nodes = (
"103 179 LINE",
"103 179 OFFCURVE",
"60 30 OFFCURVE",
"30 0 CURVE",
"162 0 LINE",
"151 50 OFFCURVE",
"176 162 OFFCURVE",
"176 162 CURVE"
);
}
);
width = 1367;
},
{
associatedMasterId = "BA50C409-052E-472C-B8EA-E9BF3018781A";
layerId = "1167B56F-EE80-4563-A28B-6CBC48DBABDF";
name = "Oct 21 18, 22:43";
paths = (
{
closed = 1;
nodes = (
"1318 0 LINE",
"1055 700 LINE",
"833 700 LINE",
"1076 0 LINE"
);
},
{
closed = 1;
nodes = (
"164 0 LINE",
"330 558 LINE",
"282 644 LINE",
"75 0 LINE"
);
},
{
closed = 1;
nodes = (
"720 241 LINE",
"468 700 LINE",
"246 700 LINE",
"632 1 LINE"
);
},
{
closed = 1;
nodes = (
"888 561 LINE",
"863 639 LINE",
"595 67 LINE",
"632 1 LINE",
"661 1 LINE"
);
},
{
closed = 1;
nodes = (
"126 158 OFFCURVE",
"89 46 OFFCURVE",
"62 -1 CURVE",
"188 0 LINE",
"181 46 OFFCURVE",
"199 110 OFFCURVE",
"212 165 CURVE",
"137 190 LINE"
);
},
{
closed = 1;
nodes = (
"1029 142 OFFCURVE",
"1058 54 OFFCURVE",
"1057 0 CURVE",
"1347 0 LINE",
"1283 85 OFFCURVE",
"1237 217 OFFCURVE",
"1201 311 CURVE",
"999 226 LINE"
);
},
{
closed = 1;
nodes = (
"300 594 OFFCURVE",
"344 517 OFFCURVE",
"409 406 CURVE",
"554 543 LINE",
"527 596 OFFCURVE",
"505 641 OFFCURVE",
"480 700 CURVE",
"205 700 LINE"
);
},
{
closed = 1;
nodes = (
"1151 443 LINE",
"1116 538 OFFCURVE",
"1095 591 OFFCURVE",
"1072 700 CURVE",
"796 700 LINE",
"834 645 OFFCURVE",
"889 538 OFFCURVE",
"946 376 CURVE"
);
}
);
width = 1367;
},
{
associatedMasterId = "0B0DCF06-F5B0-447D-A254-17124A94DF9D";
layerId = "AE8DE9BE-87CC-4BFC-92DC-DEAAE94AC330";
name = "Feb 12 19, 18:18";
paths = (
{
closed = 1;
nodes = (
"154 0 LINE",
"226 633 LINE",
"197 660 LINE",
"88 0 LINE"
);
},
{
closed = 1;
nodes = (
"499 109 LINE",
"252 700 LINE",
"153 700 LINE",
"446 1 LINE"
);
},
{
closed = 1;
nodes = (
"741 700 LINE",
"697 700 LINE",
"442 54 LINE",
"446 1 LINE",
"475 1 LINE"
);
},
{
closed = 1;
nodes = (
"855 0 LINE",
"744 700 LINE",
"654 700 LINE",
"758 1 LINE",
"758 0 LINE"
);
},
{
closed = 1;
nodes = (
"173 644 OFFCURVE",
"199 590 OFFCURVE",
"226 530 CURVE",
"347 474 LINE",
"315 549 OFFCURVE",
"284 622 OFFCURVE",
"263 700 CURVE",
"124 700 LINE"
);
},
{
closed = 1;
nodes = (
"662 644 OFFCURVE",
"685 492 OFFCURVE",
"698 415 CURVE",
"797 369 LINE",
"773 504 OFFCURVE",
"760 581 OFFCURVE",
"759 701 CURVE",
"621 700 LINE"
);
},
{
closed = 1;
nodes = (
"728 194 LINE",
"736 150 OFFCURVE",
"745 46 OFFCURVE",
"735 0 CURVE",
"879 0 LINE",
"841 99 OFFCURVE",
"829 179 OFFCURVE",
"818 232 CURVE"
);
},
{
closed = 1;
nodes = (
"119 179 LINE",
"119 179 OFFCURVE",
"90 30 OFFCURVE",
"60 0 CURVE",
"172 0 LINE",
"161 50 OFFCURVE",
"172 162 OFFCURVE",
"172 162 CURVE"
);
}
);
width = 944;
}
);
unicode = 004D;
},
{
glyphname = N;
lastChange = "2019-04-07 17:50:06 +0000";
layers = (
{
layerId = "0B0DCF06-F5B0-447D-A254-17124A94DF9D";
paths = (
{
closed = 1;
nodes = (
"111.102 659.533 LINE",
"116.713 633.204 OFFCURVE",
"122 591.956 OFFCURVE",
"122 530 CURVE SMOOTH",
"118 169 LINE SMOOTH",
"118 38 OFFCURVE",
"94 0 OFFCURVE",
"94 0 CURVE",
"205 0 LINE",
"205 0 OFFCURVE",
"178 38 OFFCURVE",
"178 169 CURVE",
"176 530 LINE",
"176 546.011 OFFCURVE",
"176.309 560.639 OFFCURVE",
"176.852 573.984 CURVE",
"618 0 LINE",
"735 0 LINE",
"713.589 27.859 LINE",
"706.22 52.752 OFFCURVE",
"698 96.72 OFFCURVE",
"698 169 CURVE",
"696 530 LINE",
"696 662 OFFCURVE",
"721 700 OFFCURVE",
"721 700 CURVE SMOOTH",
"618 700 LINE SMOOTH",
"618 700 OFFCURVE",
"642 662 OFFCURVE",
"642 530 CURVE SMOOTH",
"638 169 LINE",
"637.259 127.173 LINE",
"197 700 LINE",
"80 700 LINE"
);
}
);
width = 805;
},
{
associatedMasterId = "0B0DCF06-F5B0-447D-A254-17124A94DF9D";
layerId = "DB8940C6-123B-4049-82DF-36C2934A52DC";
width = 600;
},
{
layerId = "BA50C409-052E-472C-B8EA-E9BF3018781A";
paths = (
{
closed = 1;
nodes = (
"380 700 LINE",
"1111 0 LINE",
"1111 0 OFFCURVE",
"789 0 OFFCURVE",
"789 0 CURVE",
"549 233 OFFCURVE",
"200 593 OFFCURVE",
"70 700 CURVE"
);
},
{
closed = 1;
nodes = (
"244 700 LINE",
"244 700 OFFCURVE",
"217 668 OFFCURVE",
"217 530 CURVE",
"217 169 LINE",
"217 32 OFFCURVE",
"247 0 OFFCURVE",
"247 0 CURVE",
"114 0 LINE",
"114 0 OFFCURVE",
"144 32 OFFCURVE",
"144 169 CURVE",
"147 531 LINE",
"147 668 OFFCURVE",
"117 700 OFFCURVE",
"117 700 CURVE"
);
},
{
closed = 1;
nodes = (
"1077 700 LINE",
"1077 700 OFFCURVE",
"1047 668 OFFCURVE",
"1047 530 CURVE",
"1047 169 LINE",
"1047 32 OFFCURVE",
"1077 0 OFFCURVE",
"1077 0 CURVE",
"944 0 LINE",
"944 0 OFFCURVE",
"974 32 OFFCURVE",
"974 169 CURVE",
"977 531 LINE",
"977 668 OFFCURVE",
"947 700 OFFCURVE",
"947 700 CURVE"
);
}
);
width = 1181;
},
{
associatedMasterId = "BA50C409-052E-472C-B8EA-E9BF3018781A";
layerId = "9E11F406-B286-4AE7-8F6E-865EBFD63E8A";
name = "Oct 15 18, 15:03";
paths = (
{
closed = 1;
nodes = (
"380 700 LINE",
"1111 0 LINE",
"1111 0 OFFCURVE",
"789 0 OFFCURVE",
"789 0 CURVE",
"549 233 OFFCURVE",
"190 593 OFFCURVE",
"70 700 CURVE"
);
},
{
closed = 1;
nodes = (
"234 700 LINE",
"234 700 OFFCURVE",
"207 668 OFFCURVE",
"207 530 CURVE",
"207 169 LINE",
"207 32 OFFCURVE",
"237 0 OFFCURVE",
"237 0 CURVE",
"114 0 LINE",
"114 0 OFFCURVE",
"144 32 OFFCURVE",
"144 169 CURVE",
"147 531 LINE",
"147 668 OFFCURVE",
"117 700 OFFCURVE",
"117 700 CURVE"
);
},
{
closed = 1;
nodes = (
"1077 700 LINE",
"1077 700 OFFCURVE",
"1047 668 OFFCURVE",
"1047 530 CURVE",
"1047 169 LINE",
"1047 32 OFFCURVE",
"1077 0 OFFCURVE",
"1077 0 CURVE",
"954 0 LINE",
"954 0 OFFCURVE",
"984 32 OFFCURVE",
"984 169 CURVE",
"987 531 LINE",
"987 668 OFFCURVE",
"957 700 OFFCURVE",
"957 700 CURVE"
);
}
);
width = 1181;
}
);
unicode = 004E;
},
{
glyphname = O;
lastChange = "2019-03-20 16:21:45 +0000";
layers = (
{
anchors = (
{
name = bottom;
position = "{413, -15}";
},
{
name = center;
position = "{413, 350}";
},
{
name = ogonek;
position = "{742, 10}";
},
{
name = top;
position = "{413, 712}";
},
{
name = topleft;
position = "{20, 700}";
},
{
name = topright;
position = "{805, 700}";
}
);
layerId = "0B0DCF06-F5B0-447D-A254-17124A94DF9D";
paths = (
{
closed = 1;
nodes = (
"572 -15 OFFCURVE",
"760 138 OFFCURVE",
"760 359 CURVE SMOOTH",
"760 579 OFFCURVE",
"608 712 OFFCURVE",
"433 712 CURVE SMOOTH",
"254 712 OFFCURVE",
"65 539 OFFCURVE",
"65 319 CURVE SMOOTH",
"65 118 OFFCURVE",
"218 -15 OFFCURVE",
"393 -15 CURVE SMOOTH"
);
},
{
closed = 1;
nodes = (
"272 51 OFFCURVE",
"167 207 OFFCURVE",
"167 379 CURVE SMOOTH",
"167 533 OFFCURVE",
"256 648 OFFCURVE",
"390 648 CURVE SMOOTH",
"553 648 OFFCURVE",
"658 491 OFFCURVE",
"658 308 CURVE SMOOTH",
"658 155 OFFCURVE",
"570 51 OFFCURVE",
"436 51 CURVE SMOOTH"
);
}
);
width = 825;
},
{
associatedMasterId = "0B0DCF06-F5B0-447D-A254-17124A94DF9D";
layerId = "DB8940C6-123B-4049-82DF-36C2934A52DC";
width = 600;
},
{
layerId = "BA50C409-052E-472C-B8EA-E9BF3018781A";
paths = (
{
closed = 1;
nodes = (
"912 -27 OFFCURVE",
"1190 140 OFFCURVE",
"1190 396 CURVE SMOOTH",
"1190 609 OFFCURVE",
"971 746 OFFCURVE",
"668 746 CURVE SMOOTH",
"374 746 OFFCURVE",
"80 595 OFFCURVE",
"80 339 CURVE SMOOTH",
"80 126 OFFCURVE",
"315 -27 OFFCURVE",
"618 -27 CURVE SMOOTH"
);
},
{
closed = 1;
nodes = (
"414 58 OFFCURVE",
"301 304 OFFCURVE",
"301 438 CURVE SMOOTH",
"301 566 OFFCURVE",
"366 677 OFFCURVE",
"550 677 CURVE SMOOTH",
"748 677 OFFCURVE",
"979 527 OFFCURVE",
"979 297 CURVE",
"979 178 OFFCURVE",
"907 58 OFFCURVE",
"730 58 CURVE SMOOTH"
);
}
);
width = 1280;
},
{
associatedMasterId = "0B0DCF06-F5B0-447D-A254-17124A94DF9D";
layerId = "2E2EE00E-56C6-4948-9886-9732EBD4AFFD";
name = "Mar 17 18, 21:45";
paths = (
{
closed = 1;
nodes = (
"583 -6 OFFCURVE",
"783 155 OFFCURVE",
"783 363 CURVE SMOOTH",
"783 580 OFFCURVE",
"633 711 OFFCURVE",
"437 711 CURVE SMOOTH",
"250 711 OFFCURVE",
"50 540 OFFCURVE",
"50 323 CURVE SMOOTH",
"50 115 OFFCURVE",
"200 -6 OFFCURVE",
"397 -6 CURVE SMOOTH"
);
},
{
closed = 1;
nodes = (
"245 64 OFFCURVE",
"160 232 OFFCURVE",
"160 383 CURVE SMOOTH",
"160 543 OFFCURVE",
"255 641 OFFCURVE",
"397 641 CURVE SMOOTH",
"578 641 OFFCURVE",
"673 483 OFFCURVE",
"673 313 CURVE SMOOTH",
"673 162 OFFCURVE",
"568 64 OFFCURVE",
"437 64 CURVE SMOOTH"
);
}
);
width = 833;
},
{
associatedMasterId = "BA50C409-052E-472C-B8EA-E9BF3018781A";
layerId = "6CAE625D-2F36-4AF5-8964-DBD302EAC4F7";
name = "Mar 17 18, 21:58";
paths = (
{
closed = 1;
nodes = (
"1597 -27 OFFCURVE",
"1159 420 OFFCURVE",
"1159 638 CURVE SMOOTH",
"1159 638 OFFCURVE",
"971 746 OFFCURVE",
"775 746 CURVE SMOOTH",
"499 746 OFFCURVE",
"282 583 OFFCURVE",
"282 327 CURVE SMOOTH",
"282 34 OFFCURVE",
"572 -27 OFFCURVE",
"689 -27 CURVE SMOOTH"
);
},
{
closed = 1;
nodes = (
"618 142 OFFCURVE",
"410 234 OFFCURVE",
"410 434 CURVE SMOOTH",
"410 573 OFFCURVE",
"505 625 OFFCURVE",
"661 625 CURVE SMOOTH",
"842 625 OFFCURVE",
"1106 504 OFFCURVE",
"1106 360 CURVE SMOOTH",
"1106 209 OFFCURVE",
"1411 142 OFFCURVE",
"809 142 CURVE SMOOTH"
);
}
);
width = 1333;
},
{
associatedMasterId = "BA50C409-052E-472C-B8EA-E9BF3018781A";
layerId = "E9CFD758-A302-43DE-8794-419C788964D3";
name = "Mar 17 18, 22:07";
paths = (
{
closed = 1;
nodes = (
"1169 -27 OFFCURVE",
"1386 183 OFFCURVE",
"1386 439 CURVE",
"1388 730 OFFCURVE",
"1116 746 OFFCURVE",
"775 746 CURVE SMOOTH",
"499 746 OFFCURVE",
"282 583 OFFCURVE",
"282 327 CURVE SMOOTH",
"282 34 OFFCURVE",
"553 -27 OFFCURVE",
"893 -27 CURVE SMOOTH"
);
},
{
closed = 1;
nodes = (
"708 142 OFFCURVE",
"500 234 OFFCURVE",
"500 434 CURVE SMOOTH",
"500 572 OFFCURVE",
"595 625 OFFCURVE",
"751 625 CURVE SMOOTH",
"932 625 OFFCURVE",
"1150 532 OFFCURVE",
"1150 332 CURVE SMOOTH",
"1150 193 OFFCURVE",
"1055 142 OFFCURVE",
"899 142 CURVE SMOOTH"
);
}
);
width = 1333;
},
{
associatedMasterId = "BA50C409-052E-472C-B8EA-E9BF3018781A";
layerId = "5150660E-58B3-4D9F-B92C-A06AA1F00402";
name = "Mar 17 18, 22:17";
paths = (
{
closed = 1;
nodes = (
"827 -27 OFFCURVE",
"1106 140 OFFCURVE",
"1106 396 CURVE",
"1106 624 OFFCURVE",
"906 746 OFFCURVE",
"613 746 CURVE SMOOTH",
"319 746 OFFCURVE",
"20 583 OFFCURVE",
"20 327 CURVE SMOOTH",
"20 114 OFFCURVE",
"210 -27 OFFCURVE",
"533 -27 CURVE SMOOTH"
);
},
{
closed = 1;
nodes = (
"431 90 OFFCURVE",
"215 194 OFFCURVE",
"215 421 CURVE SMOOTH",
"215 577 OFFCURVE",
"323 637 OFFCURVE",
"499 637 CURVE SMOOTH",
"704 637 OFFCURVE",
"895 532 OFFCURVE",
"895 306 CURVE SMOOTH",
"895 150 OFFCURVE",
"823 90 OFFCURVE",
"647 90 CURVE SMOOTH"
);
}
);
width = 1136;
},
{
associatedMasterId = "BA50C409-052E-472C-B8EA-E9BF3018781A";
layerId = "B81BD029-6E88-4F12-B7E9-EE0E3C8963C7";
name = "Mar 17 18, 22:25";
paths = (
{
closed = 1;
nodes = (
"827 -27 OFFCURVE",
"1095 140 OFFCURVE",
"1095 396 CURVE",
"1095 624 OFFCURVE",
"906 746 OFFCURVE",
"613 746 CURVE SMOOTH",
"319 746 OFFCURVE",
"15 595 OFFCURVE",
"15 339 CURVE SMOOTH",
"15 126 OFFCURVE",
"210 -27 OFFCURVE",
"533 -27 CURVE SMOOTH"
);
},
{
closed = 1;
nodes = (
"395 90 OFFCURVE",
"244 246 OFFCURVE",
"244 446 CURVE SMOOTH",
"244 567 OFFCURVE",
"343 637 OFFCURVE",
"499 637 CURVE SMOOTH",
"704 637 OFFCURVE",
"866 481 OFFCURVE",
"866 281 CURVE SMOOTH",
"866 160 OFFCURVE",
"767 90 OFFCURVE",
"611 90 CURVE SMOOTH"
);
}
);
width = 1136;
},
{
associatedMasterId = "BA50C409-052E-472C-B8EA-E9BF3018781A";
layerId = "D49BFA1C-AA57-44C0-A843-FEFBEEBAF759";
name = "Mar 17 18, 22:30";
paths = (
{
closed = 1;
nodes = (
"827 -27 OFFCURVE",
"1095 131 OFFCURVE",
"1095 387 CURVE",
"1095 600 OFFCURVE",
"916 746 OFFCURVE",
"613 746 CURVE SMOOTH",
"319 746 OFFCURVE",
"15 595 OFFCURVE",
"15 339 CURVE SMOOTH",
"15 126 OFFCURVE",
"210 -27 OFFCURVE",
"533 -27 CURVE SMOOTH"
);
},
{
closed = 1;
nodes = (
"366 70 OFFCURVE",
"224 196 OFFCURVE",
"224 416 CURVE SMOOTH",
"224 567 OFFCURVE",
"343 657 OFFCURVE",
"499 657 CURVE SMOOTH",
"744 657 OFFCURVE",
"886 531 OFFCURVE",
"886 311 CURVE SMOOTH",
"886 160 OFFCURVE",
"767 70 OFFCURVE",
"611 70 CURVE SMOOTH"
);
}
);
width = 1136;
},
{
associatedMasterId = "BA50C409-052E-472C-B8EA-E9BF3018781A";
layerId = "4868F459-59CA-4504-8346-1D25240429D1";
name = "Mar 17 18, 22:34";
paths = (
{
closed = 1;
nodes = (
"827 -27 OFFCURVE",
"1095 131 OFFCURVE",
"1095 387 CURVE",
"1095 600 OFFCURVE",
"916 746 OFFCURVE",
"613 746 CURVE SMOOTH",
"319 746 OFFCURVE",
"15 595 OFFCURVE",
"15 339 CURVE SMOOTH",
"15 126 OFFCURVE",
"210 -27 OFFCURVE",
"533 -27 CURVE SMOOTH"
);
},
{
closed = 1;
nodes = (
"366 70 OFFCURVE",
"224 196 OFFCURVE",
"224 416 CURVE SMOOTH",
"224 567 OFFCURVE",
"343 657 OFFCURVE",
"499 657 CURVE SMOOTH",
"744 657 OFFCURVE",
"886 531 OFFCURVE",
"886 311 CURVE SMOOTH",
"886 160 OFFCURVE",
"767 70 OFFCURVE",
"611 70 CURVE SMOOTH"
);
}
);
width = 1136;
},
{
associatedMasterId = "BA50C409-052E-472C-B8EA-E9BF3018781A";
layerId = "B5F8D004-C6ED-43F9-BFAE-4940746B20BC";
name = "Mar 17 18, 22:42";
paths = (
{
closed = 1;
nodes = (
"827 -27 OFFCURVE",
"1095 140 OFFCURVE",
"1095 396 CURVE SMOOTH",
"1095 609 OFFCURVE",
"886 746 OFFCURVE",
"583 746 CURVE SMOOTH",
"289 746 OFFCURVE",
"15 595 OFFCURVE",
"15 339 CURVE SMOOTH",
"15 126 OFFCURVE",
"230 -27 OFFCURVE",
"533 -27 CURVE SMOOTH"
);
},
{
closed = 1;
nodes = (
"329 78 OFFCURVE",
"206 304 OFFCURVE",
"206 438 CURVE SMOOTH",
"206 566 OFFCURVE",
"281 657 OFFCURVE",
"465 657 CURVE SMOOTH",
"663 657 OFFCURVE",
"904 527 OFFCURVE",
"904 297 CURVE",
"904 178 OFFCURVE",
"822 78 OFFCURVE",
"645 78 CURVE SMOOTH"
);
}
);
width = 1136;
},
{
associatedMasterId = "BA50C409-052E-472C-B8EA-E9BF3018781A";
layerId = "CAEE5886-E860-4598-9BFD-4A065383C583";
name = "Mar 17 18, 22:46";
paths = (
{
closed = 1;
nodes = (
"827 -27 OFFCURVE",
"1095 140 OFFCURVE",
"1095 386 CURVE SMOOTH",
"1095 629 OFFCURVE",
"876 746 OFFCURVE",
"553 746 CURVE SMOOTH",
"279 746 OFFCURVE",
"15 595 OFFCURVE",
"15 349 CURVE SMOOTH",
"15 116 OFFCURVE",
"240 -27 OFFCURVE",
"553 -27 CURVE SMOOTH"
);
},
{
closed = 1;
nodes = (
"447 78 OFFCURVE",
"206 228 OFFCURVE",
"206 438 CURVE SMOOTH",
"206 566 OFFCURVE",
"281 657 OFFCURVE",
"445 657 CURVE SMOOTH",
"663 657 OFFCURVE",
"904 507 OFFCURVE",
"904 297 CURVE",
"904 178 OFFCURVE",
"822 78 OFFCURVE",
"665 78 CURVE SMOOTH"
);
}
);
width = 1136;
},
{
associatedMasterId = "BA50C409-052E-472C-B8EA-E9BF3018781A";
layerId = "BCC37211-8695-4720-A39A-5F3397FFA33F";
name = "Mar 17 18, 23:12";
paths = (
{
closed = 1;
nodes = (
"852 -27 OFFCURVE",
"1130 140 OFFCURVE",
"1130 396 CURVE SMOOTH",
"1130 609 OFFCURVE",
"911 746 OFFCURVE",
"608 746 CURVE SMOOTH",
"314 746 OFFCURVE",
"30 595 OFFCURVE",
"30 339 CURVE SMOOTH",
"30 126 OFFCURVE",
"255 -27 OFFCURVE",
"558 -27 CURVE SMOOTH"
);
},
{
closed = 1;
nodes = (
"354 78 OFFCURVE",
"241 304 OFFCURVE",
"241 438 CURVE SMOOTH",
"241 566 OFFCURVE",
"306 657 OFFCURVE",
"490 657 CURVE SMOOTH",
"688 657 OFFCURVE",
"919 527 OFFCURVE",
"919 297 CURVE",
"919 178 OFFCURVE",
"847 78 OFFCURVE",
"670 78 CURVE SMOOTH"
);
}
);
width = 1160;
},
{
associatedMasterId = "BA50C409-052E-472C-B8EA-E9BF3018781A";
layerId = "536E4CCB-BA38-422B-B80D-B1682691554A";
name = "Mar 18 18, 00:10";
paths = (
{
closed = 1;
nodes = (
"862 -27 OFFCURVE",
"1150 140 OFFCURVE",
"1150 396 CURVE SMOOTH",
"1150 609 OFFCURVE",
"921 746 OFFCURVE",
"618 746 CURVE SMOOTH",
"324 746 OFFCURVE",
"30 595 OFFCURVE",
"30 339 CURVE SMOOTH",
"30 126 OFFCURVE",
"265 -27 OFFCURVE",
"568 -27 CURVE SMOOTH"
);
},
{
closed = 1;
nodes = (
"364 78 OFFCURVE",
"251 304 OFFCURVE",
"251 438 CURVE SMOOTH",
"251 566 OFFCURVE",
"316 657 OFFCURVE",
"500 657 CURVE SMOOTH",
"698 657 OFFCURVE",
"929 527 OFFCURVE",
"929 297 CURVE",
"929 178 OFFCURVE",
"857 78 OFFCURVE",
"680 78 CURVE SMOOTH"
);
}
);
width = 1180;
},
{
associatedMasterId = "BA50C409-052E-472C-B8EA-E9BF3018781A";
layerId = "FBC0D317-D953-4194-896F-C075CBD02C09";
name = "Sep 11 18, 23:04";
paths = (
{
closed = 1;
nodes = (
"932 -27 OFFCURVE",
"1220 140 OFFCURVE",
"1220 396 CURVE SMOOTH",
"1220 609 OFFCURVE",
"991 746 OFFCURVE",
"688 746 CURVE SMOOTH",
"394 746 OFFCURVE",
"100 595 OFFCURVE",
"100 339 CURVE SMOOTH",
"100 126 OFFCURVE",
"335 -27 OFFCURVE",
"638 -27 CURVE SMOOTH"
);
},
{
closed = 1;
nodes = (
"434 78 OFFCURVE",
"321 304 OFFCURVE",
"321 438 CURVE SMOOTH",
"321 566 OFFCURVE",
"386 657 OFFCURVE",
"570 657 CURVE SMOOTH",
"768 657 OFFCURVE",
"999 527 OFFCURVE",
"999 297 CURVE",
"999 178 OFFCURVE",
"927 78 OFFCURVE",
"750 78 CURVE SMOOTH"
);
}
);
width = 1320;
},
{
associatedMasterId = "BA50C409-052E-472C-B8EA-E9BF3018781A";
layerId = "4A80F43E-FB8D-41C1-A439-C79892D1363C";
name = "Oct 16 18, 22:03";
paths = (
{
closed = 1;
nodes = (
"932 -27 OFFCURVE",
"1210 140 OFFCURVE",
"1210 396 CURVE SMOOTH",
"1210 609 OFFCURVE",
"991 746 OFFCURVE",
"688 746 CURVE SMOOTH",
"394 746 OFFCURVE",
"100 595 OFFCURVE",
"100 339 CURVE SMOOTH",
"100 126 OFFCURVE",
"335 -27 OFFCURVE",
"638 -27 CURVE SMOOTH"
);
},
{
closed = 1;
nodes = (
"434 58 OFFCURVE",
"321 304 OFFCURVE",
"321 438 CURVE SMOOTH",
"321 566 OFFCURVE",
"386 677 OFFCURVE",
"570 677 CURVE SMOOTH",
"768 677 OFFCURVE",
"999 527 OFFCURVE",
"999 297 CURVE",
"999 178 OFFCURVE",
"927 58 OFFCURVE",
"750 58 CURVE SMOOTH"
);
}
);
width = 1310;
}
);
unicode = 004F;
},
{
glyphname = Oslash;
lastChange = "2019-03-21 21:31:40 +0000";
layers = (
{
layerId = "0B0DCF06-F5B0-447D-A254-17124A94DF9D";
paths = (
{
closed = 1;
nodes = (
"572 -15 OFFCURVE",
"760 138 OFFCURVE",
"760 359 CURVE SMOOTH",
"760 579 OFFCURVE",
"608 712 OFFCURVE",
"433 712 CURVE SMOOTH",
"254 712 OFFCURVE",
"65 539 OFFCURVE",
"65 319 CURVE SMOOTH",
"65 118 OFFCURVE",
"218 -15 OFFCURVE",
"393 -15 CURVE SMOOTH"
);
},
{
closed = 1;
nodes = (
"272 51 OFFCURVE",
"167 207 OFFCURVE",
"167 379 CURVE SMOOTH",
"167 533 OFFCURVE",
"256 648 OFFCURVE",
"390 648 CURVE SMOOTH",
"553 648 OFFCURVE",
"658 491 OFFCURVE",
"658 308 CURVE SMOOTH",
"658 155 OFFCURVE",
"570 51 OFFCURVE",
"436 51 CURVE SMOOTH"
);
},
{
closed = 1;
nodes = (
"160 0 LINE",
"198 0 LINE",
"671 700 LINE",
"633 700 LINE"
);
}
);
width = 825;
},
{
layerId = "BA50C409-052E-472C-B8EA-E9BF3018781A";
paths = (
{
closed = 1;
nodes = (
"912 -27 OFFCURVE",
"1190 140 OFFCURVE",
"1190 396 CURVE SMOOTH",
"1190 609 OFFCURVE",
"971 746 OFFCURVE",
"668 746 CURVE SMOOTH",
"374 746 OFFCURVE",
"80 595 OFFCURVE",
"80 339 CURVE SMOOTH",
"80 126 OFFCURVE",
"315 -27 OFFCURVE",
"618 -27 CURVE SMOOTH"
);
},
{
closed = 1;
nodes = (
"414 58 OFFCURVE",
"301 304 OFFCURVE",
"301 438 CURVE SMOOTH",
"301 566 OFFCURVE",
"366 677 OFFCURVE",
"550 677 CURVE SMOOTH",
"748 677 OFFCURVE",
"979 527 OFFCURVE",
"979 297 CURVE",
"979 178 OFFCURVE",
"907 58 OFFCURVE",
"730 58 CURVE SMOOTH"
);
},
{
closed = 1;
nodes = (
"191 -27 LINE",
"250 -27 LINE",
"1095 746 LINE",
"1036 746 LINE"
);
}
);
width = 1280;
}
);
unicode = 00D8;
},
{
glyphname = OE;
lastChange = "2019-04-07 17:50:20 +0000";
layers = (
{
layerId = "0B0DCF06-F5B0-447D-A254-17124A94DF9D";
paths = (
{
closed = 1;
nodes = (
"65 118 OFFCURVE",
"218 -15 OFFCURVE",
"393 -15 CURVE SMOOTH",
"491.069 -15 OFFCURVE",
"591.839 30.925 OFFCURVE",
"662.914 108.797 CURVE",
"656.742 25.931 OFFCURVE",
"639 0 OFFCURVE",
"639 0 CURVE",
"1211 -3 LINE",
"1235 134 LINE",
"1228 138 LINE",
"1164.061 34.987 OFFCURVE",
"928.993 40.804 OFFCURVE",
"772.109 43.397 CURVE",
"766.297 69.69 OFFCURVE",
"761 109.872 OFFCURVE",
"761 169 CURVE",
"760.114 329 LINE",
"1156 329 LINE",
"1156 371 LINE",
"759.881 371 LINE",
"759 530 LINE",
"759 590.613 OFFCURVE",
"764.482 631.406 OFFCURVE",
"770.412 657.8 CURVE",
"903.07 660.418 OFFCURVE",
"1135.65 663.453 OFFCURVE",
"1198 563 CURVE",
"1205 567 LINE",
"1181 704 LINE",
"644 700 LINE",
"644.743 700 OFFCURVE",
"658.73 679.029 OFFCURVE",
"665.874 614.13 CURVE",
"605.687 677.336 OFFCURVE",
"522.341 712 OFFCURVE",
"433 712 CURVE SMOOTH",
"254 712 OFFCURVE",
"65 539 OFFCURVE",
"65 319 CURVE SMOOTH"
);
},
{
closed = 1;
nodes = (
"167 533 OFFCURVE",
"256 648 OFFCURVE",
"390 648 CURVE SMOOTH",
"553 648 OFFCURVE",
"658 491 OFFCURVE",
"658 308 CURVE SMOOTH",
"658 155 OFFCURVE",
"570 51 OFFCURVE",
"436 51 CURVE SMOOTH",
"272 51 OFFCURVE",
"167 207 OFFCURVE",
"167 379 CURVE SMOOTH"
);
}
);
width = 1290;
},
{
layerId = "BA50C409-052E-472C-B8EA-E9BF3018781A";
paths = (
{
closed = 1;
nodes = (
"831 -27 OFFCURVE",
"1035 60 OFFCURVE",
"1132 206 CURVE",
"1139 559 LINE",
"1058 676 OFFCURVE",
"884 746 OFFCURVE",
"668 746 CURVE SMOOTH",
"374 746 OFFCURVE",
"80 595 OFFCURVE",
"80 339 CURVE SMOOTH",
"80 126 OFFCURVE",
"315 -27 OFFCURVE",
"618 -27 CURVE SMOOTH"
);
},
{
closed = 1;
nodes = (
"414 58 OFFCURVE",
"301 304 OFFCURVE",
"301 438 CURVE SMOOTH",
"301 566 OFFCURVE",
"366 677 OFFCURVE",
"550 677 CURVE SMOOTH",
"748 677 OFFCURVE",
"979 537 OFFCURVE",
"979 307 CURVE",
"979 188 OFFCURVE",
"907 58 OFFCURVE",
"730 58 CURVE SMOOTH"
);
},
{
closed = 1;
nodes = (
"932 750 OFFCURVE",
"959 718 OFFCURVE",
"959 581 CURVE",
"956 169 LINE",
"956 32 OFFCURVE",
"932 0 OFFCURVE",
"932 0 CURVE",
"1206 0 LINE",
"1206 0 OFFCURVE",
"1179 32 OFFCURVE",
"1179 169 CURVE",
"1179 580 LINE",
"1179 718 OFFCURVE",
"1206 750 OFFCURVE",
"1206 750 CURVE",
"932 750 LINE"
);
},
{
closed = 0;
nodes = (
"1774 367 LINE",
"1774 413 LINE"
);
},
{
closed = 1;
nodes = (
"974 367 LINE",
"1774 367 LINE",
"1774 413 LINE",
"1061 413 LINE"
);
},
{
closed = 1;
nodes = (
"1857 257 LINE",
"1710 12 OFFCURVE",
"1578 46 OFFCURVE",
"1138 46 CURVE",
"1178 0 LINE",
"1850 -4 LINE",
"1894 253 LINE"
);
},
{
closed = 1;
nodes = (
"1810 750 LINE",
"1151 750 LINE",
"1155 704 LINE",
"1546 705 OFFCURVE",
"1679 718 OFFCURVE",
"1817 492 CURVE",
"1854 496 LINE"
);
}
);
width = 1994;
}
);
unicode = 0152;
},
{
glyphname = OE.001;
lastChange = "2019-04-07 17:50:33 +0000";
layers = (
{
layerId = "0B0DCF06-F5B0-447D-A254-17124A94DF9D";
paths = (
{
closed = 1;
nodes = (
"65 118 OFFCURVE",
"218 -15 OFFCURVE",
"393 -15 CURVE SMOOTH",
"491.069 -15 OFFCURVE",
"591.839 30.925 OFFCURVE",
"662.914 108.797 CURVE",
"656.742 25.931 OFFCURVE",
"639 0 OFFCURVE",
"639 0 CURVE",
"1211 -3 LINE",
"1235 134 LINE",
"1228 138 LINE",
"1164.061 34.987 OFFCURVE",
"928.993 40.804 OFFCURVE",
"772.109 43.397 CURVE",
"766.297 69.69 OFFCURVE",
"761 109.872 OFFCURVE",
"761 169 CURVE",
"760.114 329 LINE",
"1156 329 LINE",
"1156 371 LINE",
"759.881 371 LINE",
"759 530 LINE",
"759 590.613 OFFCURVE",
"764.482 631.406 OFFCURVE",
"770.412 657.8 CURVE",
"903.07 660.418 OFFCURVE",
"1135.65 663.453 OFFCURVE",
"1198 563 CURVE",
"1205 567 LINE",
"1181 704 LINE",
"644 700 LINE",
"644.743 700 OFFCURVE",
"658.73 679.029 OFFCURVE",
"665.874 614.13 CURVE",
"605.687 677.336 OFFCURVE",
"522.341 712 OFFCURVE",
"433 712 CURVE SMOOTH",
"254 712 OFFCURVE",
"65 539 OFFCURVE",
"65 319 CURVE SMOOTH"
);
},
{
closed = 1;
nodes = (
"167 533 OFFCURVE",
"256 648 OFFCURVE",
"390 648 CURVE SMOOTH",
"553 648 OFFCURVE",
"658 491 OFFCURVE",
"658 308 CURVE SMOOTH",
"658 155 OFFCURVE",
"570 51 OFFCURVE",
"436 51 CURVE SMOOTH",
"272 51 OFFCURVE",
"167 207 OFFCURVE",
"167 379 CURVE SMOOTH"
);
}
);
width = 1290;
},
{
layerId = "BA50C409-052E-472C-B8EA-E9BF3018781A";
paths = (
{
closed = 1;
nodes = (
"831 -27 OFFCURVE",
"1035 60 OFFCURVE",
"1132 206 CURVE",
"1139 559 LINE",
"1058 676 OFFCURVE",
"884 746 OFFCURVE",
"668 746 CURVE SMOOTH",
"374 746 OFFCURVE",
"80 595 OFFCURVE",
"80 339 CURVE SMOOTH",
"80 126 OFFCURVE",
"315 -27 OFFCURVE",
"618 -27 CURVE SMOOTH"
);
},
{
closed = 1;
nodes = (
"414 58 OFFCURVE",
"301 304 OFFCURVE",
"301 438 CURVE SMOOTH",
"301 566 OFFCURVE",
"366 677 OFFCURVE",
"550 677 CURVE SMOOTH",
"748 677 OFFCURVE",
"979 537 OFFCURVE",
"979 307 CURVE",
"979 188 OFFCURVE",
"907 58 OFFCURVE",
"730 58 CURVE SMOOTH"
);
},
{
closed = 1;
nodes = (
"932 750 OFFCURVE",
"959 718 OFFCURVE",
"959 581 CURVE",
"956 169 LINE",
"956 32 OFFCURVE",
"932 0 OFFCURVE",
"932 0 CURVE",
"1206 0 LINE",
"1206 0 OFFCURVE",
"1179 32 OFFCURVE",
"1179 169 CURVE",
"1179 580 LINE",
"1179 718 OFFCURVE",
"1206 750 OFFCURVE",
"1206 750 CURVE",
"932 750 LINE"
);
},
{
closed = 0;
nodes = (
"1774 367 LINE",
"1774 413 LINE"
);
},
{
closed = 1;
nodes = (
"974 367 LINE",
"1774 367 LINE",
"1774 413 LINE",
"1061 413 LINE"
);
},
{
closed = 1;
nodes = (
"1857 257 LINE",
"1710 12 OFFCURVE",
"1578 46 OFFCURVE",
"1138 46 CURVE",
"1178 0 LINE",
"1850 -4 LINE",
"1894 253 LINE"
);
},
{
closed = 1;
nodes = (
"1810 750 LINE",
"1151 750 LINE",
"1155 704 LINE",
"1546 705 OFFCURVE",
"1679 718 OFFCURVE",
"1817 492 CURVE",
"1854 496 LINE"
);
}
);
width = 1994;
}
);
},
{
glyphname = P;
lastChange = "2019-04-07 17:50:36 +0000";
layers = (
{
layerId = "0B0DCF06-F5B0-447D-A254-17124A94DF9D";
paths = (
{
closed = 1;
nodes = (
"232 0 LINE",
"232 0 OFFCURVE",
"202 38 OFFCURVE",
"202 169 CURVE",
"201.124 327.189 LINE",
"234.2 322.783 OFFCURVE",
"294.1 316 OFFCURVE",
"354 316 CURVE SMOOTH",
"445 316 OFFCURVE",
"617 367 OFFCURVE",
"617 518 CURVE SMOOTH",
"617 650 OFFCURVE",
"515 700 OFFCURVE",
"298 700 CURVE SMOOTH",
"188 700 LINE",
"85 700 LINE SMOOTH",
"85 700 OFFCURVE",
"111 662 OFFCURVE",
"111 530 CURVE SMOOTH",
"106 169 LINE SMOOTH",
"106 38 OFFCURVE",
"80 0 OFFCURVE",
"80 0 CURVE"
);
},
{
closed = 1;
nodes = (
"200 586.618 OFFCURVE",
"204.783 625.942 OFFCURVE",
"210.247 652.391 CURVE",
"242.382 660.13 OFFCURVE",
"281.271 664 OFFCURVE",
"315 664 CURVE SMOOTH",
"395 664 OFFCURVE",
"521 627 OFFCURVE",
"521 493 CURVE SMOOTH",
"521 414 OFFCURVE",
"443 358 OFFCURVE",
"345 358 CURVE SMOOTH",
"302.924 358.915 OFFCURVE",
"247.462 362.339 OFFCURVE",
"200.807 384.345 CURVE",
"200 530 LINE"
);
}
);
width = 647;
},
{
associatedMasterId = "0B0DCF06-F5B0-447D-A254-17124A94DF9D";
layerId = "DB8940C6-123B-4049-82DF-36C2934A52DC";
width = 600;
},
{
layerId = "BA50C409-052E-472C-B8EA-E9BF3018781A";
paths = (
{
closed = 1;
nodes = (
"100 700 OFFCURVE",
"130 668 OFFCURVE",
"130 531 CURVE",
"127 169 LINE",
"127 32 OFFCURVE",
"100 0 OFFCURVE",
"100 0 CURVE",
"377 0 LINE",
"377 0 OFFCURVE",
"350 32 OFFCURVE",
"350 169 CURVE",
"350 530 LINE",
"350 668 OFFCURVE",
"377 700 OFFCURVE",
"377 700 CURVE",
"100 700 LINE"
);
},
{
closed = 1;
nodes = (
"237 333 LINE",
"221 307 OFFCURVE",
"390 224 OFFCURVE",
"633 224 CURVE",
"795 224 OFFCURVE",
"1043 291 OFFCURVE",
"1043 485 CURVE",
"1043 632 OFFCURVE",
"881 700 OFFCURVE",
"649 700 CURVE",
"552 700 OFFCURVE",
"333 700 OFFCURVE",
"188 700 CURVE",
"177 527 LINE",
"291 648 OFFCURVE",
"428 655 OFFCURVE",
"512 654 CURVE",
"684 654 OFFCURVE",
"818 565 OFFCURVE",
"818 429 CURVE SMOOTH",
"818 299 OFFCURVE",
"718 270 OFFCURVE",
"612 270 CURVE",
"396 272 OFFCURVE",
"267 348 OFFCURVE",
"267 458 CURVE"
);
}
);
width = 1093;
},
{
associatedMasterId = "BA50C409-052E-472C-B8EA-E9BF3018781A";
layerId = "FE6348BD-FAA8-48C7-846E-476102CCD6A4";
name = "Oct 6 18, 14:10";
paths = (
{
closed = 1;
nodes = (
"100 700 OFFCURVE",
"130 668 OFFCURVE",
"130 531 CURVE",
"127 169 LINE",
"127 32 OFFCURVE",
"100 0 OFFCURVE",
"100 0 CURVE",
"377 0 LINE",
"377 0 OFFCURVE",
"350 32 OFFCURVE",
"350 169 CURVE",
"350 530 LINE",
"350 668 OFFCURVE",
"377 700 OFFCURVE",
"377 700 CURVE",
"100 700 LINE"
);
},
{
closed = 1;
nodes = (
"237 393 LINE",
"221 367 OFFCURVE",
"390 204 OFFCURVE",
"633 204 CURVE",
"775 204 OFFCURVE",
"1043 291 OFFCURVE",
"1043 485 CURVE",
"1043 632 OFFCURVE",
"881 700 OFFCURVE",
"649 700 CURVE",
"552 700 OFFCURVE",
"333 700 OFFCURVE",
"188 700 CURVE",
"177 527 LINE",
"291 648 OFFCURVE",
"428 672 OFFCURVE",
"502 671 CURVE",
"684 671 OFFCURVE",
"818 565 OFFCURVE",
"818 409 CURVE SMOOTH",
"818 299 OFFCURVE",
"718 270 OFFCURVE",
"612 270 CURVE",
"396 272 OFFCURVE",
"267 408 OFFCURVE",
"267 518 CURVE"
);
}
);
width = 1093;
},
{
associatedMasterId = "BA50C409-052E-472C-B8EA-E9BF3018781A";
layerId = "263B66DA-29B5-4223-BC0A-99012FD35827";
name = "Oct 6 18, 17:29";
paths = (
{
closed = 1;
nodes = (
"100 700 OFFCURVE",
"130 668 OFFCURVE",
"130 531 CURVE",
"127 169 LINE",
"127 32 OFFCURVE",
"100 0 OFFCURVE",
"100 0 CURVE",
"377 0 LINE",
"377 0 OFFCURVE",
"350 32 OFFCURVE",
"350 169 CURVE",
"350 530 LINE",
"350 668 OFFCURVE",
"377 700 OFFCURVE",
"377 700 CURVE",
"100 700 LINE"
);
},
{
closed = 1;
nodes = (
"237 393 LINE",
"221 367 OFFCURVE",
"390 204 OFFCURVE",
"633 204 CURVE",
"775 204 OFFCURVE",
"1043 291 OFFCURVE",
"1043 485 CURVE",
"1043 632 OFFCURVE",
"881 700 OFFCURVE",
"649 700 CURVE",
"552 700 OFFCURVE",
"333 700 OFFCURVE",
"188 700 CURVE",
"177 527 LINE",
"291 648 OFFCURVE",
"428 672 OFFCURVE",
"502 671 CURVE",
"684 671 OFFCURVE",
"818 565 OFFCURVE",
"818 409 CURVE SMOOTH",
"818 299 OFFCURVE",
"718 270 OFFCURVE",
"612 270 CURVE",
"396 272 OFFCURVE",
"267 408 OFFCURVE",
"267 518 CURVE"
);
}
);
width = 1093;
},
{
associatedMasterId = "BA50C409-052E-472C-B8EA-E9BF3018781A";
layerId = "C4BC93AE-A19C-41D3-8D1E-5EAA5D126C9B";
name = "Oct 16 18, 22:16";
paths = (
{
closed = 1;
nodes = (
"100 700 OFFCURVE",
"130 668 OFFCURVE",
"130 531 CURVE",
"127 169 LINE",
"127 32 OFFCURVE",
"100 0 OFFCURVE",
"100 0 CURVE",
"377 0 LINE",
"377 0 OFFCURVE",
"350 32 OFFCURVE",
"350 169 CURVE",
"350 530 LINE",
"350 668 OFFCURVE",
"377 700 OFFCURVE",
"377 700 CURVE",
"100 700 LINE"
);
},
{
closed = 1;
nodes = (
"237 343 LINE",
"221 317 OFFCURVE",
"390 224 OFFCURVE",
"633 224 CURVE",
"775 224 OFFCURVE",
"1043 291 OFFCURVE",
"1043 485 CURVE",
"1043 632 OFFCURVE",
"881 700 OFFCURVE",
"649 700 CURVE",
"552 700 OFFCURVE",
"333 700 OFFCURVE",
"188 700 CURVE",
"177 527 LINE",
"291 648 OFFCURVE",
"428 655 OFFCURVE",
"502 654 CURVE",
"684 654 OFFCURVE",
"818 565 OFFCURVE",
"818 409 CURVE SMOOTH",
"818 299 OFFCURVE",
"718 270 OFFCURVE",
"612 270 CURVE",
"396 272 OFFCURVE",
"267 358 OFFCURVE",
"267 468 CURVE"
);
}
);
width = 1093;
},
{
associatedMasterId = "BA50C409-052E-472C-B8EA-E9BF3018781A";
layerId = "073CAEB3-7F31-4BCF-A688-658F6A74C4E0";
name = "Oct 21 18, 17:32";
paths = (
{
closed = 1;
nodes = (
"100 700 OFFCURVE",
"130 668 OFFCURVE",
"130 531 CURVE",
"127 169 LINE",
"127 32 OFFCURVE",
"100 0 OFFCURVE",
"100 0 CURVE",
"377 0 LINE",
"377 0 OFFCURVE",
"350 32 OFFCURVE",
"350 169 CURVE",
"350 530 LINE",
"350 668 OFFCURVE",
"377 700 OFFCURVE",
"377 700 CURVE",
"100 700 LINE"
);
},
{
closed = 1;
nodes = (
"237 333 LINE",
"221 307 OFFCURVE",
"390 224 OFFCURVE",
"633 224 CURVE",
"795 224 OFFCURVE",
"1043 291 OFFCURVE",
"1043 485 CURVE",
"1043 632 OFFCURVE",
"881 700 OFFCURVE",
"649 700 CURVE",
"552 700 OFFCURVE",
"333 700 OFFCURVE",
"188 700 CURVE",
"177 527 LINE",
"291 648 OFFCURVE",
"428 655 OFFCURVE",
"502 654 CURVE",
"684 654 OFFCURVE",
"818 565 OFFCURVE",
"818 429 CURVE SMOOTH",
"818 299 OFFCURVE",
"718 270 OFFCURVE",
"612 270 CURVE",
"396 272 OFFCURVE",
"267 348 OFFCURVE",
"267 458 CURVE"
);
}
);
width = 1093;
}
);
unicode = 0050;
},
{
glyphname = Thorn;
lastChange = "2019-04-07 17:50:39 +0000";
layers = (
{
layerId = "0B0DCF06-F5B0-447D-A254-17124A94DF9D";
paths = (
{
closed = 1;
nodes = (
"232 0 LINE",
"232 0 OFFCURVE",
"202 38 OFFCURVE",
"202 169 CURVE",
"201.867 193.09 LINE",
"235.092 188.682 OFFCURVE",
"294.546 182 OFFCURVE",
"354 182 CURVE SMOOTH",
"445 182 OFFCURVE",
"617 233 OFFCURVE",
"617 384 CURVE SMOOTH",
"617 516 OFFCURVE",
"515 566 OFFCURVE",
"318 566 CURVE SMOOTH",
"287.649 566 OFFCURVE",
"246.303 559.233 OFFCURVE",
"200.183 548.811 CURVE",
"202.496 665.648 OFFCURVE",
"226 700 OFFCURVE",
"226 700 CURVE SMOOTH",
"85 700 LINE SMOOTH",
"85 700 OFFCURVE",
"111 662 OFFCURVE",
"111 530 CURVE SMOOTH",
"106 169 LINE SMOOTH",
"106 38 OFFCURVE",
"80 0 OFFCURVE",
"80 0 CURVE"
);
},
{
closed = 1;
nodes = (
"233.916 525.249 OFFCURVE",
"277.626 530 OFFCURVE",
"315 530 CURVE SMOOTH",
"395 530 OFFCURVE",
"521 493 OFFCURVE",
"521 359 CURVE SMOOTH",
"521 280 OFFCURVE",
"443 224 OFFCURVE",
"345 224 CURVE SMOOTH",
"303.148 224.91 OFFCURVE",
"248.051 228.303 OFFCURVE",
"201.551 249.996 CURVE",
"200.079 515.746 LINE"
);
}
);
width = 600;
},
{
layerId = "BA50C409-052E-472C-B8EA-E9BF3018781A";
paths = (
{
closed = 1;
nodes = (
"377 0 LINE",
"377 0 OFFCURVE",
"350 32 OFFCURVE",
"350 169 CURVE SMOOTH",
"350 178.413 LINE",
"408.923 156.733 OFFCURVE",
"491.634 138 OFFCURVE",
"581 138 CURVE SMOOTH",
"731 138 OFFCURVE",
"992 199 OFFCURVE",
"992 375 CURVE SMOOTH",
"992 518 OFFCURVE",
"775 570 OFFCURVE",
"580 570 CURVE SMOOTH",
"530.664 570 OFFCURVE",
"442.504 570 OFFCURVE",
"350.093 543.759 CURVE",
"351.811 670.146 OFFCURVE",
"377 700 OFFCURVE",
"377 700 CURVE SMOOTH",
"100 700 LINE SMOOTH",
"100 700 OFFCURVE",
"130 668 OFFCURVE",
"130 531 CURVE SMOOTH",
"127 169 LINE SMOOTH",
"127 32 OFFCURVE",
"100 0 OFFCURVE",
"100 0 CURVE"
);
},
{
closed = 1;
nodes = (
"350 492.411 LINE",
"420.797 526.419 OFFCURVE",
"492.194 528.587 OFFCURVE",
"545 528 CURVE SMOOTH",
"667 528 OFFCURVE",
"788 457 OFFCURVE",
"788 340 CURVE SMOOTH",
"788 236 OFFCURVE",
"698 180 OFFCURVE",
"562 180 CURVE SMOOTH",
"474.457 181.122 OFFCURVE",
"399.195 203.344 OFFCURVE",
"350 240.127 CURVE"
);
}
);
width = 1042;
}
);
unicode = 00DE;
},
{
glyphname = Q;
lastChange = "2019-04-07 17:50:41 +0000";
layers = (
{
layerId = "0B0DCF06-F5B0-447D-A254-17124A94DF9D";
paths = (
{
closed = 1;
nodes = (
"65 135.554 OFFCURVE",
"192.443 8.75 OFFCURVE",
"347.74 -12 CURVE",
"340 -12 LINE",
"213 -89 LINE",
"216 -95 LINE",
"323 -66 OFFCURVE",
"498 -123 OFFCURVE",
"569 -123 CURVE SMOOTH",
"598 -123 OFFCURVE",
"644 -108 OFFCURVE",
"697 -29 CURVE",
"691 -24 LINE",
"588 -101 OFFCURVE",
"446 -8 OFFCURVE",
"332 -32 CURVE",
"367.06 -14.02 LINE",
"375.642 -14.671 OFFCURVE",
"384.294 -15 OFFCURVE",
"393 -15 CURVE SMOOTH",
"572 -15 OFFCURVE",
"760 138 OFFCURVE",
"760 359 CURVE SMOOTH",
"760 579 OFFCURVE",
"608 712 OFFCURVE",
"433 712 CURVE SMOOTH",
"254 712 OFFCURVE",
"65 539 OFFCURVE",
"65 319 CURVE SMOOTH"
);
},
{
closed = 1;
nodes = (
"167 533 OFFCURVE",
"256 648 OFFCURVE",
"390 648 CURVE SMOOTH",
"553 648 OFFCURVE",
"658 491 OFFCURVE",
"658 308 CURVE SMOOTH",
"658 155 OFFCURVE",
"570 51 OFFCURVE",
"436 51 CURVE SMOOTH",
"272 51 OFFCURVE",
"167 207 OFFCURVE",
"167 379 CURVE SMOOTH"
);
}
);
width = 833;
},
{
associatedMasterId = "0B0DCF06-F5B0-447D-A254-17124A94DF9D";
layerId = "DB8940C6-123B-4049-82DF-36C2934A52DC";
width = 600;
},
{
layerId = "BA50C409-052E-472C-B8EA-E9BF3018781A";
paths = (
{
closed = 1;
nodes = (
"930 -7 OFFCURVE",
"1210 141 OFFCURVE",
"1210 396 CURVE SMOOTH",
"1210 609 OFFCURVE",
"991 736 OFFCURVE",
"688 736 CURVE SMOOTH",
"394 736 OFFCURVE",
"100 595 OFFCURVE",
"100 339 CURVE SMOOTH",
"100 126 OFFCURVE",
"335 -27 OFFCURVE",
"638 -17 CURVE SMOOTH"
);
},
{
closed = 1;
nodes = (
"434 58 OFFCURVE",
"321 304 OFFCURVE",
"321 438 CURVE SMOOTH",
"321 566 OFFCURVE",
"386 677 OFFCURVE",
"570 677 CURVE SMOOTH",
"768 677 OFFCURVE",
"999 527 OFFCURVE",
"999 297 CURVE",
"999 178 OFFCURVE",
"927 58 OFFCURVE",
"750 58 CURVE SMOOTH"
);
},
{
closed = 1;
nodes = (
"320 -151 LINE",
"509 -101 OFFCURVE",
"818 -201 OFFCURVE",
"944 -201 CURVE",
"995 -201 OFFCURVE",
"1076 -174 OFFCURVE",
"1170 -35 CURVE",
"1160 -26 LINE",
"978 -163 OFFCURVE",
"727 2 OFFCURVE",
"525 -41 CURVE",
"595 -5 LINE",
"540 -5 LINE",
"315 -141 LINE"
);
}
);
width = 1280;
}
);
unicode = 0051;
},
{
glyphname = R;
lastChange = "2019-04-07 17:50:44 +0000";
layers = (
{
layerId = "0B0DCF06-F5B0-447D-A254-17124A94DF9D";
paths = (
{
closed = 1;
nodes = (
"232 0 LINE",
"232 0 OFFCURVE",
"202 38 OFFCURVE",
"202 169 CURVE",
"201.096 332.192 LINE",
"221.168 329.518 OFFCURVE",
"251.128 325.967 OFFCURVE",
"284.977 323.589 CURVE",
"473 105 LINE",
"499 71 OFFCURVE",
"537 36 OFFCURVE",
"560 2 CURVE",
"712 2 LINE",
"712 9 LINE",
"655 42 OFFCURVE",
"614 75 OFFCURVE",
"587 108 CURVE",
"395.084 322.983 LINE",
"502.886 333.199 OFFCURVE",
"637 384.663 OFFCURVE",
"637 518 CURVE SMOOTH",
"637 647 OFFCURVE",
"535 700 OFFCURVE",
"298 700 CURVE SMOOTH",
"188 700 LINE",
"85 700 LINE SMOOTH",
"85 700 OFFCURVE",
"111 662 OFFCURVE",
"111 530 CURVE SMOOTH",
"106 169 LINE SMOOTH",
"106 38 OFFCURVE",
"80 0 OFFCURVE",
"80 0 CURVE"
);
},
{
closed = 1;
nodes = (
"200 586.618 OFFCURVE",
"204.783 625.942 OFFCURVE",
"210.247 652.391 CURVE",
"242.382 660.13 OFFCURVE",
"281.271 664 OFFCURVE",
"315 664 CURVE SMOOTH",
"415 664 OFFCURVE",
"541 623 OFFCURVE",
"541 513 CURVE SMOOTH",
"541 414 OFFCURVE",
"463 358 OFFCURVE",
"345 358 CURVE SMOOTH",
"302.916 358.915 OFFCURVE",
"247.441 366.526 OFFCURVE",
"200.78 389.255 CURVE",
"200 530 LINE"
);
}
);
width = 742;
},
{
associatedMasterId = "0B0DCF06-F5B0-447D-A254-17124A94DF9D";
layerId = "DB8940C6-123B-4049-82DF-36C2934A52DC";
width = 600;
},
{
layerId = "BA50C409-052E-472C-B8EA-E9BF3018781A";
paths = (
{
closed = 1;
nodes = (
"384 0 LINE",
"384 0 OFFCURVE",
"357 32 OFFCURVE",
"357 169 CURVE SMOOTH",
"357 329 LINE",
"697 205 OFFCURVE",
"1035 332 OFFCURVE",
"1035 514 CURVE SMOOTH",
"1035 636 OFFCURVE",
"949 710 OFFCURVE",
"553 710 CURVE SMOOTH",
"214 710 LINE",
"100 710 LINE SMOOTH",
"100 710 OFFCURVE",
"138 688 OFFCURVE",
"137 531 CURVE SMOOTH",
"134 169 LINE SMOOTH",
"133 32 OFFCURVE",
"107 0 OFFCURVE",
"107 0 CURVE"
);
},
{
closed = 1;
nodes = (
"357 520 LINE SMOOTH",
"357 581 OFFCURVE",
"361 618 OFFCURVE",
"365 654 CURVE",
"399 660 OFFCURVE",
"435 664 OFFCURVE",
"503 664 CURVE SMOOTH",
"670 664 OFFCURVE",
"810 607 OFFCURVE",
"810 468 CURVE SMOOTH",
"810 370 OFFCURVE",
"697 320 OFFCURVE",
"589 320 CURVE SMOOTH",
"476 320 OFFCURVE",
"409 349 OFFCURVE",
"357 379 CURVE"
);
},
{
closed = 1;
nodes = (
"1148 16 LINE",
"1051 22 OFFCURVE",
"872 191 OFFCURVE",
"729 310 CURVE SMOOTH",
"729 310 OFFCURVE",
"482 325 OFFCURVE",
"348 332 CURVE",
"357 319 LINE",
"402 317 OFFCURVE",
"454 297 OFFCURVE",
"522 258 CURVE SMOOTH",
"561 235 OFFCURVE",
"638 177 OFFCURVE",
"765 32 CURVE SMOOTH",
"772 24 OFFCURVE",
"783 7 OFFCURVE",
"783 0 CURVE",
"1148 0 LINE"
);
}
);
width = 1208;
},
{
associatedMasterId = "BA50C409-052E-472C-B8EA-E9BF3018781A";
layerId = "1D15C473-0C45-46FD-9E30-1FEEBFD2BD5A";
name = "Oct 7 18, 15:48";
paths = (
{
closed = 1;
nodes = (
"377 0 LINE",
"377 0 OFFCURVE",
"350 32 OFFCURVE",
"350 169 CURVE SMOOTH",
"350 338.979 LINE",
"408.255 337.282 OFFCURVE",
"474.915 331.495 OFFCURVE",
"537 319 CURVE",
"676 339 LINE",
"789 355 OFFCURVE",
"953 423.325 OFFCURVE",
"953 533 CURVE SMOOTH",
"953 645 OFFCURVE",
"851 700 OFFCURVE",
"535 700 CURVE SMOOTH",
"207 700 LINE",
"100 700 LINE SMOOTH",
"100 700 OFFCURVE",
"130 668 OFFCURVE",
"130 531 CURVE SMOOTH",
"127 169 LINE SMOOTH",
"127 32 OFFCURVE",
"100 0 OFFCURVE",
"100 0 CURVE"
);
},
{
closed = 1;
nodes = (
"350 530 LINE SMOOTH",
"350 581.207 OFFCURVE",
"353.718 617.819 OFFCURVE",
"358.394 643.617 CURVE",
"392.173 650.463 OFFCURVE",
"428.997 654 OFFCURVE",
"467 654 CURVE SMOOTH",
"644 654 OFFCURVE",
"743 597 OFFCURVE",
"743 478 CURVE SMOOTH",
"743 389 OFFCURVE",
"668 370 OFFCURVE",
"542 370 CURVE SMOOTH",
"459.453 370.594 OFFCURVE",
"401.945 378.594 OFFCURVE",
"350 399.027 CURVE"
);
},
{
closed = 1;
nodes = (
"1034 0 LINE",
"660 362 LINE",
"390 353 LINE",
"734 0 LINE"
);
},
{
closed = 1;
nodes = (
"1251 429 LINE",
"1235 403 OFFCURVE",
"1404 310 OFFCURVE",
"1647 310 CURVE",
"1789 310 OFFCURVE",
"2057 367 OFFCURVE",
"2057 535 CURVE",
"2057 643 OFFCURVE",
"1915 700 OFFCURVE",
"1663 700 CURVE",
"1566 700 OFFCURVE",
"1347 700 OFFCURVE",
"1202 700 CURVE",
"1191 527 LINE",
"1305 648 OFFCURVE",
"1442 655 OFFCURVE",
"1516 654 CURVE",
"1698 654 OFFCURVE",
"1832 596 OFFCURVE",
"1832 469 CURVE SMOOTH",
"1832 375 OFFCURVE",
"1732 356 OFFCURVE",
"1626 356 CURVE",
"1410 358 OFFCURVE",
"1281 444 OFFCURVE",
"1281 554 CURVE"
);
},
{
closed = 1;
nodes = (
"1157 700 OFFCURVE",
"1187 668 OFFCURVE",
"1187 531 CURVE",
"1184 169 LINE",
"1184 32 OFFCURVE",
"1157 0 OFFCURVE",
"1157 0 CURVE",
"1434 0 LINE",
"1434 0 OFFCURVE",
"1407 32 OFFCURVE",
"1407 169 CURVE",
"1407 540 LINE",
"1407 678 OFFCURVE",
"1434 700 OFFCURVE",
"1434 700 CURVE",
"1157 700 LINE"
);
},
{
closed = 1;
nodes = (
"2114 0 LINE",
"1757 352 LINE",
"1483 348 LINE",
"1814 0 LINE"
);
}
);
width = 2257;
},
{
associatedMasterId = "BA50C409-052E-472C-B8EA-E9BF3018781A";
layerId = "AD62EAC3-158C-4801-9CB3-BA72D4F6E95A";
name = "Oct 7 18, 15:52";
paths = (
{
closed = 1;
nodes = (
"377 0 LINE",
"377 0 OFFCURVE",
"350 32 OFFCURVE",
"350 169 CURVE SMOOTH",
"350 338.979 LINE",
"409 337 OFFCURVE",
"474.915 331.495 OFFCURVE",
"537 319 CURVE",
"676 339 LINE",
"789 355 OFFCURVE",
"953 423.325 OFFCURVE",
"953 533 CURVE SMOOTH",
"953 645 OFFCURVE",
"851 700 OFFCURVE",
"535 700 CURVE SMOOTH",
"207 700 LINE",
"100 700 LINE SMOOTH",
"100 700 OFFCURVE",
"130 668 OFFCURVE",
"130 531 CURVE SMOOTH",
"127 169 LINE SMOOTH",
"127 32 OFFCURVE",
"100 0 OFFCURVE",
"100 0 CURVE"
);
},
{
closed = 1;
nodes = (
"350 530 LINE SMOOTH",
"350 581.207 OFFCURVE",
"353.718 617.819 OFFCURVE",
"358.394 643.617 CURVE",
"392.173 650.463 OFFCURVE",
"428.997 654 OFFCURVE",
"467 654 CURVE SMOOTH",
"644 654 OFFCURVE",
"743 597 OFFCURVE",
"743 478 CURVE SMOOTH",
"743 389 OFFCURVE",
"668 370 OFFCURVE",
"542 370 CURVE SMOOTH",
"459.453 370.594 OFFCURVE",
"401.945 378.594 OFFCURVE",
"350 399.027 CURVE"
);
},
{
closed = 1;
nodes = (
"1048 10 LINE",
"927 87 OFFCURVE",
"790 246 OFFCURVE",
"680 362 CURVE",
"391 353 LINE",
"506 235 OFFCURVE",
"620 118 OFFCURVE",
"714 0 CURVE",
"1048 0 LINE"
);
}
);
width = 1134;
},
{
associatedMasterId = "BA50C409-052E-472C-B8EA-E9BF3018781A";
layerId = "6A360B0B-08D3-42D2-8527-6FFD848C5DD9";
name = "Oct 7 18, 15:56";
paths = (
{
closed = 1;
nodes = (
"377 0 LINE",
"377 0 OFFCURVE",
"350 32 OFFCURVE",
"350 169 CURVE SMOOTH",
"350 319 LINE",
"409 317 OFFCURVE",
"475 311 OFFCURVE",
"537 299 CURVE",
"676 319 LINE",
"789 335 OFFCURVE",
"953 413 OFFCURVE",
"953 523 CURVE SMOOTH",
"953 635 OFFCURVE",
"851 700 OFFCURVE",
"535 700 CURVE SMOOTH",
"207 700 LINE",
"100 700 LINE SMOOTH",
"100 700 OFFCURVE",
"131 658 OFFCURVE",
"130 521 CURVE SMOOTH",
"127 169 LINE SMOOTH",
"126 32 OFFCURVE",
"100 0 OFFCURVE",
"100 0 CURVE"
);
},
{
closed = 1;
nodes = (
"350 510 LINE SMOOTH",
"350 561 OFFCURVE",
"354 608 OFFCURVE",
"358 644 CURVE",
"392 650 OFFCURVE",
"428.997 654 OFFCURVE",
"467 654 CURVE SMOOTH",
"644 654 OFFCURVE",
"743 587 OFFCURVE",
"743 468 CURVE SMOOTH",
"743 379 OFFCURVE",
"668 350 OFFCURVE",
"542 350 CURVE SMOOTH",
"459 350 OFFCURVE",
"402 359 OFFCURVE",
"350 379 CURVE"
);
},
{
closed = 1;
nodes = (
"1059 10 LINE",
"938 87 OFFCURVE",
"775 226 OFFCURVE",
"665 342 CURVE",
"350 319 LINE",
"387 317 OFFCURVE",
"409 304 OFFCURVE",
"440 273 CURVE SMOOTH",
"537 176 OFFCURVE",
"636 98 OFFCURVE",
"714 0 CURVE",
"1059 0 LINE"
);
}
);
width = 1109;
},
{
associatedMasterId = "BA50C409-052E-472C-B8EA-E9BF3018781A";
layerId = "FB63EEB9-F6C1-4C4F-94ED-8D9DE132570E";
name = "Oct 7 18, 18:48";
paths = (
{
closed = 1;
nodes = (
"377 0 LINE",
"377 0 OFFCURVE",
"350 32 OFFCURVE",
"350 169 CURVE SMOOTH",
"350 319 LINE",
"409 317 OFFCURVE",
"475 311 OFFCURVE",
"537 299 CURVE",
"686 319 LINE",
"809 335 OFFCURVE",
"973 413 OFFCURVE",
"973 523 CURVE SMOOTH",
"973 635 OFFCURVE",
"871 700 OFFCURVE",
"535 700 CURVE SMOOTH",
"207 700 LINE",
"100 700 LINE SMOOTH",
"100 700 OFFCURVE",
"131 658 OFFCURVE",
"130 521 CURVE SMOOTH",
"127 169 LINE SMOOTH",
"126 32 OFFCURVE",
"100 0 OFFCURVE",
"100 0 CURVE"
);
},
{
closed = 1;
nodes = (
"350 510 LINE SMOOTH",
"350 561 OFFCURVE",
"354 608 OFFCURVE",
"358 644 CURVE",
"392 650 OFFCURVE",
"428.997 654 OFFCURVE",
"467 654 CURVE SMOOTH",
"654 654 OFFCURVE",
"763 587 OFFCURVE",
"763 468 CURVE SMOOTH",
"763 379 OFFCURVE",
"678 350 OFFCURVE",
"542 350 CURVE SMOOTH",
"459 350 OFFCURVE",
"402 359 OFFCURVE",
"350 379 CURVE"
);
},
{
closed = 1;
nodes = (
"1049 10 LINE",
"953 62 OFFCURVE",
"870 151 OFFCURVE",
"664 342 CURVE",
"350 319 LINE",
"387 317 OFFCURVE",
"409 304 OFFCURVE",
"440 273 CURVE SMOOTH",
"537 176 OFFCURVE",
"646 98 OFFCURVE",
"724 0 CURVE",
"1049 0 LINE"
);
}
);
width = 1129;
},
{
associatedMasterId = "BA50C409-052E-472C-B8EA-E9BF3018781A";
layerId = "F9A6CD55-318C-4A99-91B2-D68C6CE68363";
name = "Oct 15 18, 11:30";
paths = (
{
closed = 1;
nodes = (
"377 0 LINE",
"377 0 OFFCURVE",
"350 32 OFFCURVE",
"350 169 CURVE SMOOTH",
"350 299 LINE",
"409 297 OFFCURVE",
"474 274 OFFCURVE",
"537 281 CURVE SMOOTH",
"706 301 LINE",
"829 317 OFFCURVE",
"993 403 OFFCURVE",
"993 523 CURVE SMOOTH",
"993 635 OFFCURVE",
"891 700 OFFCURVE",
"535 700 CURVE SMOOTH",
"207 700 LINE",
"100 700 LINE SMOOTH",
"100 700 OFFCURVE",
"131 658 OFFCURVE",
"130 521 CURVE SMOOTH",
"127 169 LINE SMOOTH",
"126 32 OFFCURVE",
"100 0 OFFCURVE",
"100 0 CURVE"
);
},
{
closed = 1;
nodes = (
"350 510 LINE SMOOTH",
"350 561 OFFCURVE",
"354 608 OFFCURVE",
"358 644 CURVE",
"392 650 OFFCURVE",
"428.997 654 OFFCURVE",
"467 654 CURVE SMOOTH",
"674 654 OFFCURVE",
"783 587 OFFCURVE",
"783 478 CURVE SMOOTH",
"783 399 OFFCURVE",
"698 330 OFFCURVE",
"542 330 CURVE SMOOTH",
"459 330 OFFCURVE",
"402 339 OFFCURVE",
"350 359 CURVE"
);
},
{
closed = 1;
nodes = (
"1089 10 LINE",
"993 62 OFFCURVE",
"890 151 OFFCURVE",
"674 342 CURVE",
"350 299 LINE",
"387 297 OFFCURVE",
"407 301 OFFCURVE",
"440 273 CURVE SMOOTH",
"553 176 OFFCURVE",
"638 98 OFFCURVE",
"734 0 CURVE",
"1089 0 LINE"
);
}
);
width = 1129;
},
{
associatedMasterId = "BA50C409-052E-472C-B8EA-E9BF3018781A";
layerId = "A0DF93B4-D0FD-458E-9634-AEC037C9B30F";
name = "Oct 21 18, 15:52";
paths = (
{
closed = 1;
nodes = (
"377 0 LINE",
"377 0 OFFCURVE",
"350 32 OFFCURVE",
"350 169 CURVE SMOOTH",
"350 309 LINE",
"591 301 OFFCURVE",
"463 309 OFFCURVE",
"647 309 CURVE",
"820 309 OFFCURVE",
"1003 413 OFFCURVE",
"1003 533 CURVE SMOOTH",
"1003 645 OFFCURVE",
"931 710 OFFCURVE",
"525 710 CURVE SMOOTH",
"207 710 LINE",
"93 710 LINE SMOOTH",
"93 710 OFFCURVE",
"131 688 OFFCURVE",
"130 531 CURVE SMOOTH",
"127 169 LINE SMOOTH",
"126 32 OFFCURVE",
"100 0 OFFCURVE",
"100 0 CURVE"
);
},
{
closed = 1;
nodes = (
"350 520 LINE SMOOTH",
"350 581 OFFCURVE",
"354 618 OFFCURVE",
"358 654 CURVE",
"392 660 OFFCURVE",
"429 664 OFFCURVE",
"467 664 CURVE SMOOTH",
"664 664 OFFCURVE",
"783 617 OFFCURVE",
"783 498 CURVE SMOOTH",
"783 409 OFFCURVE",
"708 340 OFFCURVE",
"552 340 CURVE SMOOTH",
"469 340 OFFCURVE",
"402 349 OFFCURVE",
"350 379 CURVE"
);
},
{
closed = 1;
nodes = (
"1139 10 LINE",
"1043 42 OFFCURVE",
"920 158 OFFCURVE",
"684 339 CURVE",
"350 309 LINE",
"387 307 OFFCURVE",
"437 309 OFFCURVE",
"515 258 CURVE SMOOTH",
"618 191 OFFCURVE",
"700 98 OFFCURVE",
"786 0 CURVE",
"1139 0 LINE"
);
}
);
width = 1189;
},
{
associatedMasterId = "BA50C409-052E-472C-B8EA-E9BF3018781A";
layerId = "D963C526-EA37-4E28-9FE5-978DBCDE7CDC";
name = "Oct 21 18, 16:02";
paths = (
{
closed = 1;
nodes = (
"377 0 LINE",
"377 0 OFFCURVE",
"350 32 OFFCURVE",
"350 169 CURVE SMOOTH",
"350 319 LINE",
"591 311 OFFCURVE",
"463 299 OFFCURVE",
"647 299 CURVE",
"820 299 OFFCURVE",
"1028 394 OFFCURVE",
"1028 524 CURVE SMOOTH",
"1028 646 OFFCURVE",
"931 710 OFFCURVE",
"525 710 CURVE SMOOTH",
"207 710 LINE",
"93 710 LINE SMOOTH",
"93 710 OFFCURVE",
"131 688 OFFCURVE",
"130 531 CURVE SMOOTH",
"127 169 LINE SMOOTH",
"126 32 OFFCURVE",
"100 0 OFFCURVE",
"100 0 CURVE"
);
},
{
closed = 1;
nodes = (
"350 520 LINE SMOOTH",
"350 581 OFFCURVE",
"354 618 OFFCURVE",
"358 654 CURVE",
"392 660 OFFCURVE",
"429 664 OFFCURVE",
"497 664 CURVE SMOOTH",
"664 664 OFFCURVE",
"803 607 OFFCURVE",
"803 468 CURVE SMOOTH",
"803 370 OFFCURVE",
"690 320 OFFCURVE",
"582 320 CURVE SMOOTH",
"469 320 OFFCURVE",
"402 349 OFFCURVE",
"350 379 CURVE"
);
},
{
closed = 1;
nodes = (
"1149 20 LINE",
"1052 42 OFFCURVE",
"925 150 OFFCURVE",
"722 310 CURVE SMOOTH",
"708 321 OFFCURVE",
"559 311 OFFCURVE",
"350 319 CURVE",
"387 317 OFFCURVE",
"437 309 OFFCURVE",
"515 258 CURVE SMOOTH",
"618 191 OFFCURVE",
"700 98 OFFCURVE",
"806 0 CURVE",
"1149 0 LINE"
);
}
);
width = 1189;
},
{
associatedMasterId = "BA50C409-052E-472C-B8EA-E9BF3018781A";
layerId = "9AA9514F-8176-4D3E-AEAC-59C4507F9344";
name = "Oct 21 18, 16:42";
paths = (
{
closed = 1;
nodes = (
"377 0 LINE",
"377 0 OFFCURVE",
"350 32 OFFCURVE",
"350 169 CURVE SMOOTH",
"350 329 LINE",
"690 205 OFFCURVE",
"1028 332 OFFCURVE",
"1028 514 CURVE SMOOTH",
"1028 636 OFFCURVE",
"942 710 OFFCURVE",
"546 710 CURVE SMOOTH",
"207 710 LINE",
"93 710 LINE SMOOTH",
"93 710 OFFCURVE",
"131 688 OFFCURVE",
"130 531 CURVE SMOOTH",
"127 169 LINE SMOOTH",
"126 32 OFFCURVE",
"100 0 OFFCURVE",
"100 0 CURVE"
);
},
{
closed = 1;
nodes = (
"350 520 LINE SMOOTH",
"350 581 OFFCURVE",
"354 618 OFFCURVE",
"358 654 CURVE",
"392 660 OFFCURVE",
"428 664 OFFCURVE",
"496 664 CURVE SMOOTH",
"663 664 OFFCURVE",
"803 607 OFFCURVE",
"803 468 CURVE SMOOTH",
"803 370 OFFCURVE",
"690 320 OFFCURVE",
"582 320 CURVE SMOOTH",
"469 320 OFFCURVE",
"402 349 OFFCURVE",
"350 379 CURVE"
);
},
{
closed = 1;
nodes = (
"1131 16 LINE",
"1024 23 OFFCURVE",
"914 168 OFFCURVE",
"742 310 CURVE",
"341 332 LINE",
"350 319 LINE",
"395 317 OFFCURVE",
"447 297 OFFCURVE",
"515 258 CURVE SMOOTH",
"554 235 OFFCURVE",
"631 177 OFFCURVE",
"758 32 CURVE SMOOTH",
"765 24 OFFCURVE",
"776 7 OFFCURVE",
"776 0 CURVE",
"1131 0 LINE"
);
}
);
width = 1189;
},
{
associatedMasterId = "0B0DCF06-F5B0-447D-A254-17124A94DF9D";
layerId = "C1621E66-F1B7-4C43-8986-4FA75DE8918B";
name = "Mar 19 19, 12:00";
paths = (
{
closed = 1;
nodes = (
"85 700 OFFCURVE",
"111 662 OFFCURVE",
"111 530 CURVE SMOOTH",
"106 169 LINE SMOOTH",
"106 38 OFFCURVE",
"80 0 OFFCURVE",
"80 0 CURVE SMOOTH",
"232 0 LINE SMOOTH",
"232 0 OFFCURVE",
"202 38 OFFCURVE",
"202 169 CURVE SMOOTH",
"200 530 LINE SMOOTH",
"200 662 OFFCURVE",
"226 700 OFFCURVE",
"226 700 CURVE SMOOTH",
"85 700 LINE SMOOTH"
);
},
{
closed = 1;
nodes = (
"216 330 OFFCURVE",
"285 321 OFFCURVE",
"354 321 CURVE",
"445 321 OFFCURVE",
"617 367 OFFCURVE",
"617 518 CURVE",
"617 630 OFFCURVE",
"515 700 OFFCURVE",
"298 700 CURVE SMOOTH",
"285 700 OFFCURVE",
"260 700 OFFCURVE",
"188 700 CURVE",
"188 646 LINE",
"223 658 OFFCURVE",
"273 664 OFFCURVE",
"315 664 CURVE SMOOTH",
"395 664 OFFCURVE",
"521 627 OFFCURVE",
"521 493 CURVE SMOOTH",
"521 414 OFFCURVE",
"443 358 OFFCURVE",
"345 358 CURVE",
"299 359 OFFCURVE",
"237 368 OFFCURVE",
"188 396 CURVE",
"188 334 LINE"
);
},
{
closed = 1;
nodes = (
"446 105 LINE",
"472 71 OFFCURVE",
"497 36 OFFCURVE",
"520 2 CURVE",
"672 2 LINE",
"672 9 LINE",
"615 42 OFFCURVE",
"587 75 OFFCURVE",
"560 108 CURVE",
"379 341 LINE",
"270 341 LINE"
);
}
);
width = 712;
}
);
unicode = 0052;
},
{
glyphname = S;
lastChange = "2019-03-31 20:15:34 +0000";
layers = (
{
layerId = "0B0DCF06-F5B0-447D-A254-17124A94DF9D";
paths = (
{
closed = 1;
nodes = (
"82 430 OFFCURVE",
"161 368 OFFCURVE",
"306 327 CURVE SMOOTH",
"474 279 OFFCURVE",
"517 229 OFFCURVE",
"517 167 CURVE",
"517 96 OFFCURVE",
"458 45 OFFCURVE",
"369 45 CURVE",
"261 45 OFFCURVE",
"131 118 OFFCURVE",
"75 246 CURVE",
"50 112 LINE",
"131 35 OFFCURVE",
"240 -7 OFFCURVE",
"341 -7 CURVE",
"478 -7 OFFCURVE",
"615 83 OFFCURVE",
"615 199 CURVE",
"615 324 OFFCURVE",
"509 364 OFFCURVE",
"329 419 CURVE SMOOTH",
"225 451 OFFCURVE",
"163 490 OFFCURVE",
"163 545 CURVE",
"163 599 OFFCURVE",
"201 656 OFFCURVE",
"290 656 CURVE",
"341 656 OFFCURVE",
"462 629 OFFCURVE",
"545 495 CURVE",
"568 618 LINE",
"474 684 OFFCURVE",
"411 706 OFFCURVE",
"310 706 CURVE",
"149 706 OFFCURVE",
"82 587 OFFCURVE",
"82 511 CURVE"
);
}
);
width = 665;
},
{
associatedMasterId = "0B0DCF06-F5B0-447D-A254-17124A94DF9D";
layerId = "DB8940C6-123B-4049-82DF-36C2934A52DC";
width = 600;
},
{
layerId = "BA50C409-052E-472C-B8EA-E9BF3018781A";
paths = (
{
closed = 1;
nodes = (
"147 366 OFFCURVE",
"305 324 OFFCURVE",
"577 263 CURVE",
"790 218 OFFCURVE",
"882 195 OFFCURVE",
"882 123 CURVE",
"882 72 OFFCURVE",
"805 28 OFFCURVE",
"682 28 CURVE",
"488 28 OFFCURVE",
"260 123 OFFCURVE",
"164 308 CURVE",
"100 103 LINE",
"248 16 OFFCURVE",
"440 -27 OFFCURVE",
"628 -27 CURVE",
"840 -27 OFFCURVE",
"1090 55 OFFCURVE",
"1090 208 CURVE",
"1090 366 OFFCURVE",
"862 396 OFFCURVE",
"628 448 CURVE",
"470 481 OFFCURVE",
"339 509 OFFCURVE",
"339 589 CURVE",
"339 629 OFFCURVE",
"375 686 OFFCURVE",
"524 692 CURVE",
"609 692 OFFCURVE",
"829 662 OFFCURVE",
"994 446 CURVE",
"1050 642 LINE",
"894 708 OFFCURVE",
"742 740 OFFCURVE",
"558 740 CURVE",
"286 740 OFFCURVE",
"147 620 OFFCURVE",
"147 513 CURVE"
);
}
);
width = 1190;
},
{
associatedMasterId = "BA50C409-052E-472C-B8EA-E9BF3018781A";
layerId = "9DA5C2CC-72B9-4C0F-83FF-5C36134BAC4A";
name = "Oct 15 18, 13:05";
paths = (
{
closed = 1;
nodes = (
"127 636 OFFCURVE",
"276 720 OFFCURVE",
"566 720 CURVE",
"780 720 OFFCURVE",
"935 685 OFFCURVE",
"1068 619 CURVE",
"981 416 LINE",
"819 652 OFFCURVE",
"541 676 OFFCURVE",
"480 676 CURVE",
"365 676 OFFCURVE",
"319 645 OFFCURVE",
"319 595 CURVE",
"319 525 OFFCURVE",
"462 478 OFFCURVE",
"630 445 CURVE",
"864 393 OFFCURVE",
"1086 352 OFFCURVE",
"1086 227 CURVE",
"1086 55 OFFCURVE",
"840 -20 OFFCURVE",
"596 -20 CURVE",
"430 -20 OFFCURVE",
"236 11 OFFCURVE",
"80 108 CURVE",
"164 318 LINE",
"236 185 OFFCURVE",
"430 35 OFFCURVE",
"656 35 CURVE",
"755 35 OFFCURVE",
"872 72 OFFCURVE",
"872 128 CURVE",
"872 185 OFFCURVE",
"790 223 OFFCURVE",
"577 268 CURVE",
"269 335 OFFCURVE",
"127 379 OFFCURVE",
"127 473 CURVE"
);
}
);
width = 1166;
},
{
associatedMasterId = "BA50C409-052E-472C-B8EA-E9BF3018781A";
layerId = "41384AFE-5BAF-4239-9C5B-0B40BA081FE4";
name = "Oct 15 18, 13:11";
paths = (
{
closed = 1;
nodes = (
"127 636 OFFCURVE",
"276 746 OFFCURVE",
"546 746 CURVE",
"780 746 OFFCURVE",
"950 696 OFFCURVE",
"1083 630 CURVE",
"991 436 LINE",
"829 672 OFFCURVE",
"561 702 OFFCURVE",
"490 702 CURVE",
"365 702 OFFCURVE",
"319 655 OFFCURVE",
"319 605 CURVE",
"319 535 OFFCURVE",
"462 502 OFFCURVE",
"630 469 CURVE",
"864 417 OFFCURVE",
"1084 358 OFFCURVE",
"1084 217 CURVE",
"1084 55 OFFCURVE",
"870 -27 OFFCURVE",
"626 -27 CURVE",
"460 -27 OFFCURVE",
"236 11 OFFCURVE",
"80 108 CURVE",
"164 318 LINE",
"216 181 OFFCURVE",
"392 28 OFFCURVE",
"692 28 CURVE",
"815 28 OFFCURVE",
"872 62 OFFCURVE",
"872 118 CURVE",
"872 185 OFFCURVE",
"790 231 OFFCURVE",
"577 276 CURVE",
"269 343 OFFCURVE",
"127 389 OFFCURVE",
"127 523 CURVE"
);
}
);
width = 1166;
},
{
associatedMasterId = "BA50C409-052E-472C-B8EA-E9BF3018781A";
layerId = "5588D0F7-7C62-4180-A76E-B2CB20D8C139";
name = "Oct 15 18, 13:11";
paths = (
{
closed = 1;
nodes = (
"127 636 OFFCURVE",
"276 746 OFFCURVE",
"546 746 CURVE",
"780 746 OFFCURVE",
"930 696 OFFCURVE",
"1063 630 CURVE",
"971 436 LINE",
"809 672 OFFCURVE",
"561 702 OFFCURVE",
"490 702 CURVE",
"365 702 OFFCURVE",
"319 655 OFFCURVE",
"319 605 CURVE",
"319 535 OFFCURVE",
"462 502 OFFCURVE",
"630 469 CURVE",
"864 417 OFFCURVE",
"1084 358 OFFCURVE",
"1084 217 CURVE",
"1084 55 OFFCURVE",
"870 -27 OFFCURVE",
"626 -27 CURVE",
"460 -27 OFFCURVE",
"236 11 OFFCURVE",
"80 108 CURVE",
"164 318 LINE",
"216 181 OFFCURVE",
"392 28 OFFCURVE",
"692 28 CURVE",
"815 28 OFFCURVE",
"872 62 OFFCURVE",
"872 118 CURVE",
"872 185 OFFCURVE",
"790 231 OFFCURVE",
"577 276 CURVE",
"269 343 OFFCURVE",
"127 389 OFFCURVE",
"127 523 CURVE"
);
}
);
width = 1166;
},
{
associatedMasterId = "BA50C409-052E-472C-B8EA-E9BF3018781A";
layerId = "100F628A-7906-428E-916F-F54E4F938E95";
name = "Oct 15 18, 13:14";
paths = (
{
closed = 1;
nodes = (
"127 646 OFFCURVE",
"276 746 OFFCURVE",
"546 746 CURVE",
"780 746 OFFCURVE",
"930 696 OFFCURVE",
"1063 630 CURVE",
"971 436 LINE",
"809 672 OFFCURVE",
"561 702 OFFCURVE",
"490 702 CURVE",
"365 702 OFFCURVE",
"319 655 OFFCURVE",
"319 605 CURVE",
"319 535 OFFCURVE",
"462 507 OFFCURVE",
"630 474 CURVE",
"864 422 OFFCURVE",
"1080 368 OFFCURVE",
"1080 217 CURVE",
"1080 45 OFFCURVE",
"860 -27 OFFCURVE",
"616 -27 CURVE",
"460 -27 OFFCURVE",
"236 11 OFFCURVE",
"80 108 CURVE",
"164 318 LINE",
"216 181 OFFCURVE",
"392 28 OFFCURVE",
"682 28 CURVE",
"805 28 OFFCURVE",
"882 62 OFFCURVE",
"882 118 CURVE",
"882 185 OFFCURVE",
"790 221 OFFCURVE",
"577 266 CURVE",
"295 327 OFFCURVE",
"127 379 OFFCURVE",
"127 523 CURVE"
);
}
);
width = 1166;
},
{
associatedMasterId = "BA50C409-052E-472C-B8EA-E9BF3018781A";
layerId = "93EA59B0-89E8-4A4F-8EF7-A0714159B369";
name = "Oct 15 18, 14:33";
paths = (
{
closed = 1;
nodes = (
"127 646 OFFCURVE",
"276 746 OFFCURVE",
"546 746 CURVE",
"780 746 OFFCURVE",
"920 696 OFFCURVE",
"1053 630 CURVE",
"990 436 LINE",
"833 659 OFFCURVE",
"561 702 OFFCURVE",
"490 702 CURVE",
"365 702 OFFCURVE",
"319 655 OFFCURVE",
"319 605 CURVE",
"319 535 OFFCURVE",
"460 497 OFFCURVE",
"628 464 CURVE",
"862 412 OFFCURVE",
"1090 368 OFFCURVE",
"1090 217 CURVE",
"1090 45 OFFCURVE",
"860 -27 OFFCURVE",
"616 -27 CURVE",
"460 -27 OFFCURVE",
"236 11 OFFCURVE",
"80 108 CURVE",
"164 318 LINE",
"216 181 OFFCURVE",
"428 28 OFFCURVE",
"682 28 CURVE",
"805 28 OFFCURVE",
"882 62 OFFCURVE",
"882 118 CURVE",
"882 185 OFFCURVE",
"790 228 OFFCURVE",
"577 273 CURVE",
"295 334 OFFCURVE",
"127 379 OFFCURVE",
"127 523 CURVE"
);
}
);
width = 1166;
},
{
associatedMasterId = "BA50C409-052E-472C-B8EA-E9BF3018781A";
layerId = "33B4F47E-D9C9-4F05-A1EA-C71C09EAC8E8";
name = "Oct 16 18, 21:45";
paths = (
{
closed = 1;
nodes = (
"127 646 OFFCURVE",
"276 746 OFFCURVE",
"546 746 CURVE",
"750 746 OFFCURVE",
"900 702 OFFCURVE",
"1053 630 CURVE",
"990 436 LINE",
"833 659 OFFCURVE",
"561 702 OFFCURVE",
"490 702 CURVE",
"365 702 OFFCURVE",
"319 655 OFFCURVE",
"319 605 CURVE",
"319 535 OFFCURVE",
"460 497 OFFCURVE",
"628 464 CURVE",
"862 412 OFFCURVE",
"1090 368 OFFCURVE",
"1090 217 CURVE",
"1090 45 OFFCURVE",
"860 -27 OFFCURVE",
"616 -27 CURVE",
"460 -27 OFFCURVE",
"236 11 OFFCURVE",
"80 108 CURVE",
"164 318 LINE",
"216 181 OFFCURVE",
"428 28 OFFCURVE",
"682 28 CURVE",
"805 28 OFFCURVE",
"882 62 OFFCURVE",
"882 118 CURVE",
"882 185 OFFCURVE",
"790 228 OFFCURVE",
"577 273 CURVE",
"295 334 OFFCURVE",
"127 379 OFFCURVE",
"127 523 CURVE"
);
}
);
width = 1166;
},
{
associatedMasterId = "BA50C409-052E-472C-B8EA-E9BF3018781A";
layerId = "F97B3404-4015-491C-AB73-D01DDE98DDD2";
name = "Oct 19 18, 15:35";
paths = (
{
closed = 1;
nodes = (
"127 636 OFFCURVE",
"276 746 OFFCURVE",
"538 754 CURVE",
"742 762 OFFCURVE",
"894 724 OFFCURVE",
"1050 658 CURVE",
"994 462 LINE",
"829 678 OFFCURVE",
"589 708 OFFCURVE",
"504 708 CURVE",
"365 702 OFFCURVE",
"319 645 OFFCURVE",
"319 595 CURVE",
"319 525 OFFCURVE",
"460 497 OFFCURVE",
"628 464 CURVE",
"862 412 OFFCURVE",
"1090 378 OFFCURVE",
"1090 227 CURVE",
"1090 55 OFFCURVE",
"860 -27 OFFCURVE",
"616 -27 CURVE",
"460 -27 OFFCURVE",
"236 11 OFFCURVE",
"80 108 CURVE",
"164 318 LINE",
"216 181 OFFCURVE",
"428 28 OFFCURVE",
"682 28 CURVE",
"805 28 OFFCURVE",
"882 72 OFFCURVE",
"882 128 CURVE",
"882 195 OFFCURVE",
"790 228 OFFCURVE",
"577 273 CURVE",
"295 334 OFFCURVE",
"127 369 OFFCURVE",
"127 513 CURVE"
);
}
);
width = 1166;
}
);
unicode = 0053;
},
{
glyphname = T;
lastChange = "2019-04-07 17:50:59 +0000";
layers = (
{
layerId = "0B0DCF06-F5B0-447D-A254-17124A94DF9D";
paths = (
{
closed = 1;
nodes = (
"39 562 LINE",
"82.625 632.285 OFFCURVE",
"189.395 655.578 OFFCURVE",
"302.365 663.022 CURVE",
"308.741 636.9 OFFCURVE",
"315 594.764 OFFCURVE",
"315 530 CURVE SMOOTH",
"310 169 LINE SMOOTH",
"310 38 OFFCURVE",
"284 0 OFFCURVE",
"284 0 CURVE",
"436 0 LINE",
"436 0 OFFCURVE",
"406 38 OFFCURVE",
"406 169 CURVE",
"404 530 LINE",
"404 593.774 OFFCURVE",
"410.069 635.606 OFFCURVE",
"416.466 661.78 CURVE",
"527.579 653.127 OFFCURVE",
"642.56 628.765 OFFCURVE",
"684 562 CURVE",
"691 566 LINE",
"667 703 LINE",
"361.5 700.084 LINE",
"56 703 LINE",
"32 566 LINE"
);
}
);
width = 721;
},
{
associatedMasterId = "0B0DCF06-F5B0-447D-A254-17124A94DF9D";
layerId = "DB8940C6-123B-4049-82DF-36C2934A52DC";
width = 600;
},
{
layerId = "BA50C409-052E-472C-B8EA-E9BF3018781A";
paths = (
{
closed = 1;
nodes = (
"97 442 LINE",
"201 611 OFFCURVE",
"293 647 OFFCURVE",
"480 654 CURVE SMOOTH",
"520 654 OFFCURVE",
"557 654 OFFCURVE",
"591 655 CURVE SMOOTH",
"701 654 LINE SMOOTH",
"888 647 OFFCURVE",
"981 611 OFFCURVE",
"1085 442 CURVE",
"1102 446 LINE",
"1058 703 LINE",
"591 700 LINE",
"124 703 LINE",
"80 446 LINE"
);
},
{
closed = 1;
nodes = (
"454 700 OFFCURVE",
"481 668 OFFCURVE",
"481 531 CURVE",
"478 169 LINE",
"478 32 OFFCURVE",
"454 0 OFFCURVE",
"454 0 CURVE",
"728 0 LINE",
"728 0 OFFCURVE",
"701 32 OFFCURVE",
"701 169 CURVE",
"701 530 LINE",
"701 668 OFFCURVE",
"728 700 OFFCURVE",
"728 700 CURVE",
"454 700 LINE"
);
}
);
width = 1142;
},
{
associatedMasterId = "BA50C409-052E-472C-B8EA-E9BF3018781A";
layerId = "4FE764AC-17BF-4F5D-A588-3023DD08465B";
name = "Oct 21 18, 14:54";
paths = (
{
closed = 1;
nodes = (
"427 700 OFFCURVE",
"453 662 OFFCURVE",
"451 530 CURVE",
"451 169 LINE",
"448 38 OFFCURVE",
"422 0 OFFCURVE",
"422 0 CURVE",
"697 0 LINE",
"697 0 OFFCURVE",
"667 38 OFFCURVE",
"667 169 CURVE",
"667 530 LINE",
"667 662 OFFCURVE",
"691 700 OFFCURVE",
"691 700 CURVE",
"427 700 LINE"
);
},
{
closed = 1;
nodes = (
"1028 703 LINE",
"386 699 LINE",
"346 653 LINE",
"776 653 OFFCURVE",
"903 688 OFFCURVE",
"1055 442 CURVE",
"1072 446 LINE"
);
},
{
closed = 1;
nodes = (
"67 442 LINE",
"219 688 OFFCURVE",
"345 653 OFFCURVE",
"776 653 CURVE",
"736 699 LINE",
"94 703 LINE",
"50 446 LINE"
);
}
);
width = 1122;
}
);
unicode = 0054;
},
{
glyphname = U;
lastChange = "2019-02-12 16:20:18 +0000";
layers = (
{
anchors = (
{
name = bottom;
position = "{393, -15}";
},
{
name = ogonek;
position = "{707, 10}";
},
{
name = top;
position = "{393, 700}";
},
{
name = topright;
position = "{766, 700}";
}
);
layerId = "0B0DCF06-F5B0-447D-A254-17124A94DF9D";
paths = (
{
closed = 1;
nodes = (
"56 700 OFFCURVE",
"84 662 OFFCURVE",
"81 530 CURVE SMOOTH",
"77 327 LINE SMOOTH",
"73 118 OFFCURVE",
"181 -15 OFFCURVE",
"383 -15 CURVE SMOOTH",
"650 -15 OFFCURVE",
"706 189 OFFCURVE",
"706 386 CURVE",
"705 530 LINE",
"705 662 OFFCURVE",
"730 700 OFFCURVE",
"731 700 CURVE",
"620 700 LINE SMOOTH",
"620 700 OFFCURVE",
"647 662 OFFCURVE",
"646 530 CURVE SMOOTH",
"645 398 LINE SMOOTH",
"643 198 OFFCURVE",
"587 51 OFFCURVE",
"413 51 CURVE SMOOTH",
"215 51 OFFCURVE",
"181 205 OFFCURVE",
"181 317 CURVE",
"180 530 LINE",
"180 662 OFFCURVE",
"206 700 OFFCURVE",
"206 700 CURVE SMOOTH",
"55 700 LINE"
);
}
);
width = 786;
},
{
associatedMasterId = "0B0DCF06-F5B0-447D-A254-17124A94DF9D";
layerId = "DB8940C6-123B-4049-82DF-36C2934A52DC";
width = 600;
},
{
layerId = "BA50C409-052E-472C-B8EA-E9BF3018781A";
paths = (
{
closed = 1;
nodes = (
"101 700 OFFCURVE",
"129 662 OFFCURVE",
"126 530 CURVE SMOOTH",
"122 357 LINE SMOOTH",
"116 118 OFFCURVE",
"256 -15 OFFCURVE",
"576 -15 CURVE SMOOTH",
"903 -15 OFFCURVE",
"993 199 OFFCURVE",
"993 396 CURVE",
"992 530 LINE",
"992 662 OFFCURVE",
"999 700 OFFCURVE",
"1000 700 CURVE",
"914 700 LINE SMOOTH",
"914 700 OFFCURVE",
"923 662 OFFCURVE",
"922 530 CURVE SMOOTH",
"921 408 LINE SMOOTH",
"919 208 OFFCURVE",
"840 51 OFFCURVE",
"606 51 CURVE SMOOTH",
"398 51 OFFCURVE",
"357 195 OFFCURVE",
"357 327 CURVE",
"356 530 LINE",
"356 662 OFFCURVE",
"382 700 OFFCURVE",
"382 700 CURVE SMOOTH",
"100 700 LINE"
);
},
{
closed = 1;
nodes = (
"991 450 LINE",
"991 531 LINE",
"991 668 OFFCURVE",
"1018 700 OFFCURVE",
"1018 700 CURVE",
"894 700 LINE",
"894 700 OFFCURVE",
"922 668 OFFCURVE",
"922 531 CURVE",
"921 449 LINE"
);
}
);
width = 1078;
},
{
associatedMasterId = "0B0DCF06-F5B0-447D-A254-17124A94DF9D";
layerId = "36E51425-73A6-488B-84B0-904F8DFC9090";
name = "Apr 4 18, 22:23";
paths = (
{
closed = 1;
nodes = (
"78 340 LINE",
"171 320 LINE"
);
},
{
closed = 1;
nodes = (
"171 320 LINE",
"170 530 LINE",
"170 662 OFFCURVE",
"196 700 OFFCURVE",
"196 700 CURVE",
"55 700 LINE",
"56 700 OFFCURVE",
"81 662 OFFCURVE",
"81 530 CURVE",
"78 340 LINE"
);
},
{
closed = 1;
nodes = (
"393 76 LINE",
"226 76 OFFCURVE",
"171 221 OFFCURVE",
"171 320 CURVE",
"78 340 LINE",
"78 111 OFFCURVE",
"203 -2 OFFCURVE",
"393 -2 CURVE"
);
},
{
closed = 1;
nodes = (
"708 340 LINE",
"615 320 LINE"
);
},
{
closed = 1;
nodes = (
"705 530 LINE",
"705 662 OFFCURVE",
"730 700 OFFCURVE",
"731 700 CURVE",
"590 700 LINE",
"590 700 OFFCURVE",
"616 662 OFFCURVE",
"616 530 CURVE",
"615 320 LINE",
"708 340 LINE"
);
},
{
closed = 1;
nodes = (
"583 -2 OFFCURVE",
"708 111 OFFCURVE",
"708 340 CURVE",
"615 320 LINE",
"615 221 OFFCURVE",
"560 76 OFFCURVE",
"393 76 CURVE",
"393 -2 LINE"
);
}
);
width = 866;
}
);
unicode = 0055;
},
{
glyphname = V;
lastChange = "2019-04-07 17:51:21 +0000";
layers = (
{
layerId = "0B0DCF06-F5B0-447D-A254-17124A94DF9D";
paths = (
{
closed = 1;
nodes = (
"71.128 646.268 OFFCURVE",
"120.177 556.453 OFFCURVE",
"148.54 502.071 CURVE SMOOTH",
"349.459 98.5 LINE SMOOTH",
"369.685 54.918 OFFCURVE",
"384.532 27.511 OFFCURVE",
"394 1 CURVE",
"421 1 LINE",
"696.901 587.185 LINE SMOOTH",
"714.038 620.634 OFFCURVE",
"737.432 664.311 OFFCURVE",
"760 700 CURVE",
"638 700 LINE",
"645.506 650.794 OFFCURVE",
"627.972 590.46 OFFCURVE",
"621.944 571.784 CURVE",
"441.509 127.366 LINE",
"235.586 553.82 LINE",
"224.434 579.84 OFFCURVE",
"190.122 663.893 OFFCURVE",
"196 700 CURVE",
"30 700 LINE"
);
}
);
width = 770;
},
{
associatedMasterId = "0B0DCF06-F5B0-447D-A254-17124A94DF9D";
layerId = "DB8940C6-123B-4049-82DF-36C2934A52DC";
width = 600;
},
{
layerId = "BA50C409-052E-472C-B8EA-E9BF3018781A";
paths = (
{
closed = 1;
nodes = (
"21 700 LINE",
"470 0 LINE",
"652 0 LINE",
"668 100 LINE",
"303 700 LINE"
);
},
{
closed = 1;
nodes = (
"974 700 LINE",
"606 50 LINE",
"652 0 LINE",
"1068 700 LINE"
);
},
{
closed = 1;
nodes = (
"404 534 OFFCURVE",
"321 662 OFFCURVE",
"352 700 CURVE",
"0 700 LINE",
"65 633 OFFCURVE",
"212 402 OFFCURVE",
"212 402 CURVE",
"404 534 LINE"
);
},
{
closed = 1;
nodes = (
"878 380 LINE",
"878 380 OFFCURVE",
"990 577 OFFCURVE",
"1085 700 CURVE",
"918 700 LINE",
"931 662 OFFCURVE",
"918 609 OFFCURVE",
"868 512 CURVE"
);
}
);
width = 1085;
}
);
unicode = 0056;
},
{
glyphname = W;
lastChange = "2019-04-07 17:51:27 +0000";
layers = (
{
layerId = "0B0DCF06-F5B0-447D-A254-17124A94DF9D";
paths = (
{
closed = 1;
nodes = (
"102.523 657.51 OFFCURVE",
"136.146 592.457 OFFCURVE",
"160.767 540.204 CURVE SMOOTH",
"197.319 457.666 LINE",
"198 456 LINE",
"353.039 106.042 LINE",
"352 106 LINE",
"374 58 OFFCURVE",
"386 28 OFFCURVE",
"396 0 CURVE",
"423 0 LINE",
"636.295 539.012 LINE",
"672.319 457.666 LINE",
"673 456 LINE",
"828.039 106.042 LINE",
"827 106 LINE",
"849 58 OFFCURVE",
"861 28 OFFCURVE",
"871 0 CURVE",
"898 0 LINE",
"1122.995 568.58 LINE SMOOTH",
"1138.853 606.887 OFFCURVE",
"1162.429 660.645 OFFCURVE",
"1185 700 CURVE",
"1063 700 LINE",
"1069.248 650.911 OFFCURVE",
"1054.784 571.55 OFFCURVE",
"1051.602 555.06 CURVE",
"915.063 137.527 LINE",
"742.127 551.339 LINE",
"734.304 573.984 OFFCURVE",
"704.919 662.648 OFFCURVE",
"711 700 CURVE",
"545 700 LINE",
"562.942 676.56 OFFCURVE",
"581.219 646.252 OFFCURVE",
"598.135 615.015 CURVE",
"437.797 142.951 LINE",
"267.127 551.339 LINE",
"259.304 573.984 OFFCURVE",
"229.919 662.648 OFFCURVE",
"236 700 CURVE",
"70 700 LINE"
);
}
);
width = 1200;
},
{
associatedMasterId = "0B0DCF06-F5B0-447D-A254-17124A94DF9D";
layerId = "DB8940C6-123B-4049-82DF-36C2934A52DC";
width = 600;
},
{
layerId = "BA50C409-052E-472C-B8EA-E9BF3018781A";
paths = (
{
closed = 1;
nodes = (
"730 638 OFFCURVE",
"783 526 OFFCURVE",
"824 450 CURVE SMOOTH",
"1066 0 LINE",
"1243 0 LINE",
"1555 593 LINE",
"1577 630 OFFCURVE",
"1601 667 OFFCURVE",
"1626 700 CURVE",
"1474 700 LINE",
"1474 700 OFFCURVE",
"1485 653 OFFCURVE",
"1407 474 CURVE",
"1238 144 LINE",
"1048 526 LINE",
"998 630 OFFCURVE",
"987 700 OFFCURVE",
"988 700 CURVE",
"676 700 LINE"
);
},
{
closed = 1;
nodes = (
"64 638 OFFCURVE",
"117 526 OFFCURVE",
"158 450 CURVE SMOOTH",
"400 0 LINE",
"577 0 LINE",
"889 593 LINE",
"911 630 OFFCURVE",
"935 667 OFFCURVE",
"960 700 CURVE",
"808 700 LINE",
"808 700 OFFCURVE",
"802 612 OFFCURVE",
"783 555 CURVE",
"572 144 LINE",
"382 526 LINE",
"332 630 OFFCURVE",
"321 700 OFFCURVE",
"322 700 CURVE",
"10 700 LINE"
);
}
);
width = 1636;
}
);
unicode = 0057;
},
{
glyphname = X;
lastChange = "2019-04-07 20:10:15 +0000";
layers = (
{
layerId = "0B0DCF06-F5B0-447D-A254-17124A94DF9D";
paths = (
{
closed = 1;
nodes = (
"77 5 LINE",
"109.072 35.239 OFFCURVE",
"131.907 59.6 OFFCURVE",
"158.586 93.472 CURVE SMOOTH",
"364.377 365.988 LINE",
"251.043 528.891 LINE",
"227.012 560.456 OFFCURVE",
"159.325 647.138 OFFCURVE",
"106 694 CURVE",
"106 700 LINE",
"276 700 LINE",
"287.626 666.178 OFFCURVE",
"310.983 626.769 OFFCURVE",
"330.424 597.126 CURVE SMOOTH",
"358.451 556.757 LINE",
"362 552 LINE",
"447.271 428.828 LINE",
"580.853 612.027 LINE SMOOTH",
"601.315 641.554 OFFCURVE",
"621.88 670.347 OFFCURVE",
"633 700 CURVE",
"721 700 LINE",
"721 695 LINE",
"688.806 664.646 OFFCURVE",
"665.919 640.214 OFFCURVE",
"639.109 606.141 CURVE SMOOTH",
"475.01 388.874 LINE",
"617.956 182.985 LINE",
"618 183 OFFCURVE",
"706 64 OFFCURVE",
"773 6 CURVE",
"773 0 LINE",
"602 0 LINE",
"590.814 32.542 OFFCURVE",
"568.769 70.254 OFFCURVE",
"549.8 99.466 CURVE SMOOTH",
"516.425 147.438 LINE",
"391.505 326.996 LINE",
"216.786 87.452 LINE SMOOTH",
"196.443 58.107 OFFCURVE",
"176.054 29.478 OFFCURVE",
"165 0 CURVE",
"77 0 LINE"
);
}
);
width = 825;
},
{
associatedMasterId = "0B0DCF06-F5B0-447D-A254-17124A94DF9D";
layerId = "DB8940C6-123B-4049-82DF-36C2934A52DC";
width = 600;
},
{
layerId = "BA50C409-052E-472C-B8EA-E9BF3018781A";
paths = (
{
closed = 1;
nodes = (
"1169 0 OFFCURVE",
"917 0 OFFCURVE",
"847 0 CURVE",
"143 701 LINE",
"462 701 LINE",
"1166 0 LINE"
);
},
{
closed = 1;
nodes = (
"861 299 LINE",
"861 299 OFFCURVE",
"1060 101 OFFCURVE",
"1209 0 CURVE",
"772 0 LINE",
"772 78 OFFCURVE",
"609 237 OFFCURVE",
"609 237 CURVE"
);
},
{
closed = 1;
nodes = (
"582 431 LINE",
"677 431 LINE",
"242 0 LINE",
"148 0 LINE"
);
},
{
closed = 1;
nodes = (
"365 123 OFFCURVE",
"267 38 OFFCURVE",
"280 0 CURVE",
"113 0 LINE",
"286 123 OFFCURVE",
"375 224 OFFCURVE",
"375 224 CURVE",
"413 172 LINE"
);
},
{
closed = 1;
nodes = (
"719 319 LINE",
"623 319 LINE",
"1017 700 LINE",
"1111 700 LINE"
);
},
{
closed = 1;
nodes = (
"879 570 OFFCURVE",
"992 662 OFFCURVE",
"979 700 CURVE",
"1146 700 LINE",
"973 577 OFFCURVE",
"876 472 OFFCURVE",
"876 472 CURVE",
"837 525 LINE"
);
},
{
closed = 1;
nodes = (
"442 403 LINE",
"442 403 OFFCURVE",
"249 600 OFFCURVE",
"100 701 CURVE",
"527 701 LINE",
"527 623 OFFCURVE",
"696 468 OFFCURVE",
"696 468 CURVE"
);
}
);
width = 1309;
},
{
associatedMasterId = "BA50C409-052E-472C-B8EA-E9BF3018781A";
layerId = "83EC3993-0BC3-40C5-ADB3-E9C264DCA909";
name = "Oct 11 18, 22:04";
paths = (
{
closed = 1;
nodes = (
"1176 0 OFFCURVE",
"924 0 OFFCURVE",
"854 0 CURVE",
"150 701 LINE",
"469 701 LINE",
"1173 0 LINE"
);
},
{
closed = 1;
nodes = (
"868 299 LINE",
"868 299 OFFCURVE",
"1067 101 OFFCURVE",
"1216 0 CURVE",
"779 0 LINE",
"779 78 OFFCURVE",
"616 237 OFFCURVE",
"616 237 CURVE"
);
},
{
closed = 1;
nodes = (
"589 431 LINE",
"684 431 LINE",
"219 0 LINE",
"125 0 LINE"
);
},
{
closed = 1;
nodes = (
"356 123 OFFCURVE",
"244 38 OFFCURVE",
"257 0 CURVE",
"90 0 LINE",
"263 123 OFFCURVE",
"366 224 OFFCURVE",
"366 224 CURVE",
"404 172 LINE"
);
},
{
closed = 1;
nodes = (
"726 319 LINE",
"630 319 LINE",
"1024 700 LINE",
"1118 700 LINE"
);
},
{
closed = 1;
nodes = (
"886 570 OFFCURVE",
"999 662 OFFCURVE",
"986 700 CURVE",
"1153 700 LINE",
"980 577 OFFCURVE",
"883 472 OFFCURVE",
"883 472 CURVE",
"844 525 LINE"
);
},
{
closed = 1;
nodes = (
"449 403 LINE",
"449 403 OFFCURVE",
"256 600 OFFCURVE",
"107 701 CURVE",
"534 701 LINE",
"534 623 OFFCURVE",
"703 468 OFFCURVE",
"703 468 CURVE"
);
}
);
width = 1316;
},
{
associatedMasterId = "0B0DCF06-F5B0-447D-A254-17124A94DF9D";
layerId = "3C45DEC2-58EB-41A6-94AB-053320E2111F";
name = "Feb 13 19, 18:27";
paths = (
{
closed = 1;
nodes = (
"725 1 LINE",
"599 0 LINE",
"152 700 LINE",
"279 700 LINE"
);
},
{
closed = 1;
nodes = (
"686 700 LINE",
"436 338 LINE",
"381 338 LINE",
"621 700 LINE"
);
},
{
closed = 1;
nodes = (
"436 388 LINE",
"178 0 LINE",
"113 0 LINE",
"381 388 LINE"
);
}
);
width = 825;
}
);
unicode = 0058;
},
{
glyphname = Y;
lastChange = "2019-04-07 17:52:34 +0000";
layers = (
{
layerId = "0B0DCF06-F5B0-447D-A254-17124A94DF9D";
paths = (
{
closed = 1;
nodes = (
"88.53 626.036 OFFCURVE",
"229.596 457.017 OFFCURVE",
"253.51 428.211 CURVE SMOOTH",
"327.49 338.252 LINE",
"324 169 LINE SMOOTH",
"324 38 OFFCURVE",
"298 0 OFFCURVE",
"298 0 CURVE",
"450 0 LINE",
"450 0 OFFCURVE",
"420 38 OFFCURVE",
"420 169 CURVE",
"419.108 342.092 LINE",
"572.494 538.232 LINE SMOOTH",
"601.943 574.631 OFFCURVE",
"666.819 654.053 OFFCURVE",
"709 700 CURVE",
"587 700 LINE",
"587 663.54 OFFCURVE",
"553.012 607.222 OFFCURVE",
"527.043 569.512 CURVE SMOOTH",
"387.973 380.396 LINE",
"307.839 485.804 LINE",
"308 486 LINE",
"302.024 493.453 LINE",
"251.485 559.932 LINE SMOOTH",
"213.9 611.769 OFFCURVE",
"172.082 675.933 OFFCURVE",
"176 700 CURVE",
"10 700 LINE"
);
}
);
width = 709;
},
{
associatedMasterId = "0B0DCF06-F5B0-447D-A254-17124A94DF9D";
layerId = "DB8940C6-123B-4049-82DF-36C2934A52DC";
width = 600;
},
{
layerId = "BA50C409-052E-472C-B8EA-E9BF3018781A";
paths = (
{
closed = 1;
nodes = (
"96 631 OFFCURVE",
"173 561 OFFCURVE",
"249 492 CURVE",
"440 319 LINE",
"439 169 LINE SMOOTH",
"438 32 OFFCURVE",
"411 0 OFFCURVE",
"411 0 CURVE",
"689 0 LINE",
"689 0 OFFCURVE",
"662 32 OFFCURVE",
"662 169 CURVE SMOOTH",
"662 319 LINE",
"717 374 OFFCURVE",
"774 435 OFFCURVE",
"833 497 CURVE SMOOTH",
"898 567 OFFCURVE",
"964 637 OFFCURVE",
"1047 700 CURVE",
"898 700 LINE",
"882 652 OFFCURVE",
"856 601 OFFCURVE",
"764 509 CURVE SMOOTH",
"613 357 LINE",
"462 500 LINE",
"386 580 OFFCURVE",
"342 652 OFFCURVE",
"332 700 CURVE",
"0 700 LINE"
);
}
);
width = 1047;
},
{
associatedMasterId = "BA50C409-052E-472C-B8EA-E9BF3018781A";
layerId = "A07E860D-1254-44B1-B696-97A9634C646D";
name = "Oct 21 18, 18:21";
paths = (
{
closed = 1;
nodes = (
"398 309 LINE",
"397 169 LINE",
"397 32 OFFCURVE",
"370 0 OFFCURVE",
"370 0 CURVE",
"647 0 LINE",
"647 0 OFFCURVE",
"620 32 OFFCURVE",
"620 169 CURVE",
"620 328 LINE"
);
},
{
closed = 1;
nodes = (
"619 323 LINE",
"462 500 LINE",
"396 580 OFFCURVE",
"344 662 OFFCURVE",
"362 700 CURVE",
"0 700 LINE",
"398 309 LINE"
);
},
{
closed = 1;
nodes = (
"620 309 LINE",
"742 436 OFFCURVE",
"863 581 OFFCURVE",
"981 700 CURVE",
"798 700 LINE",
"811 662 OFFCURVE",
"801 616 OFFCURVE",
"728 519 CURVE",
"537 309 LINE"
);
}
);
width = 981;
},
{
associatedMasterId = "BA50C409-052E-472C-B8EA-E9BF3018781A";
layerId = "611EA22C-E331-4110-9674-743878DBAE4C";
name = "Oct 21 18, 18:23";
paths = (
{
closed = 1;
nodes = (
"438 309 LINE",
"437 169 LINE",
"437 32 OFFCURVE",
"410 0 OFFCURVE",
"410 0 CURVE",
"687 0 LINE",
"687 0 OFFCURVE",
"660 32 OFFCURVE",
"660 169 CURVE",
"660 328 LINE"
);
},
{
closed = 1;
nodes = (
"630 316 LINE",
"462 500 LINE",
"396 580 OFFCURVE",
"344 662 OFFCURVE",
"362 700 CURVE",
"0 700 LINE",
"438 309 LINE"
);
},
{
closed = 1;
nodes = (
"660 309 LINE",
"782 436 OFFCURVE",
"903 581 OFFCURVE",
"1021 700 CURVE",
"838 700 LINE",
"851 662 OFFCURVE",
"841 616 OFFCURVE",
"746 507 CURVE",
"577 320 LINE"
);
}
);
width = 981;
}
);
unicode = 0059;
},
{
glyphname = Z;
lastChange = "2019-04-07 17:52:39 +0000";
layers = (
{
layerId = "0B0DCF06-F5B0-447D-A254-17124A94DF9D";
paths = (
{
closed = 1;
nodes = (
"80.378 0.791 LINE",
"657 -3 LINE",
"681 134 LINE",
"674 138 LINE",
"616.298 45.036 OFFCURVE",
"379.404 40.704 OFFCURVE",
"210.384 42.65 CURVE",
"243.376 100.145 OFFCURVE",
"286.688 157.251 OFFCURVE",
"330 215 CURVE SMOOTH",
"695 700 LINE",
"110 703 LINE",
"86 566 LINE",
"93 562 LINE",
"149.031 652.272 OFFCURVE",
"370.391 658.97 OFFCURVE",
"536.521 657.5 CURVE",
"512.984 615 OFFCURVE",
"481.274 572.782 OFFCURVE",
"449 530 CURVE SMOOTH",
"52 1 LINE"
);
}
);
width = 731;
},
{
associatedMasterId = "0B0DCF06-F5B0-447D-A254-17124A94DF9D";
layerId = "DB8940C6-123B-4049-82DF-36C2934A52DC";
width = 600;
},
{
layerId = "BA50C409-052E-472C-B8EA-E9BF3018781A";
paths = (
{
closed = 1;
nodes = (
"761 701 LINE",
"1026 701 LINE",
"379 0 LINE",
"309 0 OFFCURVE",
"97 0 OFFCURVE",
"100 0 CURVE"
);
},
{
closed = 1;
nodes = (
"177 701 LINE",
"836 701 LINE",
"851 682 OFFCURVE",
"882 655 OFFCURVE",
"882 655 CURVE SMOOTH",
"882 655 OFFCURVE",
"314 738 OFFCURVE",
"170 463 CURVE",
"133 467 LINE"
);
},
{
closed = 1;
nodes = (
"984 0 LINE",
"325 0 LINE",
"310 0 OFFCURVE",
"279 44 OFFCURVE",
"279 44 CURVE SMOOTH",
"279 44 OFFCURVE",
"847 -40 OFFCURVE",
"991 236 CURVE",
"1028 232 LINE"
);
}
);
width = 1128;
},
{
associatedMasterId = "0B0DCF06-F5B0-447D-A254-17124A94DF9D";
layerId = "825FB9A9-23E7-498E-B8D4-A40BAB9C3133";
name = "Feb 13 19, 17:39";
paths = (
{
closed = 0;
nodes = (
"238 0 LINE"
);
},
{
closed = 1;
nodes = (
"679 138 LINE",
"607 22 OFFCURVE",
"241 44 OFFCURVE",
"91 44 CURVE",
"70 0 LINE",
"662 -3 LINE",
"686 134 LINE"
);
},
{
closed = 0;
nodes = (
"513 700 LINE"
);
},
{
closed = 1;
nodes = (
"82 562 LINE",
"154 678 OFFCURVE",
"500 656 OFFCURVE",
"650 656 CURVE",
"681 700 LINE",
"99 703 LINE",
"75 566 LINE"
);
},
{
closed = 1;
nodes = (
"42 1 LINE",
"164 0 LINE",
"691 700 LINE",
"567 700 LINE"
);
}
);
width = 731;
}
);
unicode = 005A;
},
